SplineFontDB: 3.2
FontName: BerntiquaBF-Bold
FullName: Berntiqua BF Bold
FamilyName: Berntiqua BF
Weight: Bold
Copyright: Copyright (c) 2023, Bronnel Fonts
UComments: "2023-4-1: Created with FontForge (http://fontforge.org)"
Version: 001.000
ItalicAngle: 0
UnderlinePosition: -100
UnderlineWidth: 50
Ascent: 800
Descent: 200
InvalidEm: 0
LayerCount: 2
Layer: 0 0 "Back" 1
Layer: 1 0 "Fore" 0
XUID: [1021 344 888104427 12482]
FSType: 0
OS2Version: 0
OS2_WeightWidthSlopeOnly: 0
OS2_UseTypoMetrics: 1
CreationTime: 1680387818
ModificationTime: 1697328224
PfmFamily: 17
TTFWeight: 700
TTFWidth: 5
LineGap: 90
VLineGap: 0
OS2TypoAscent: 0
OS2TypoAOffset: 1
OS2TypoDescent: 0
OS2TypoDOffset: 1
OS2TypoLinegap: 90
OS2WinAscent: 0
OS2WinAOffset: 1
OS2WinDescent: 0
OS2WinDOffset: 1
HheadAscent: 0
HheadAOffset: 1
HheadDescent: 0
HheadDOffset: 1
OS2Vendor: 'PfEd'
Lookup: 3 0 0 "'salt' Stylistic Alternatives in Latin lookup 1" { "'salt' Stylistic Alternatives in Latin lookup 1-1"  } ['salt' ('DFLT' <'dflt' > 'latn' <'dflt' > ) ]
Lookup: 4 0 0 "'dlig' Discretionary Ligatures in Latin lookup 0" { "'dlig' Discretionary Ligatures in Latin lookup 0-1"  } ['dlig' ('DFLT' <'dflt' > 'latn' <'dflt' > ) ]
Lookup: 258 0 0 "'kern' Horizontal Kerning in Latin lookup 0" { "'kern' Horizontal Kerning in Latin lookup 0-1" [150,15,2] } ['kern' ('DFLT' <'dflt' > 'latn' <'dflt' > ) ]
MarkAttachClasses: 1
DEI: 91125

StartChar: exclam
Encoding: 33 33 0
Width: 204
Flags: W
HStem: -10 152<49.5543 154.446> 578 20G<84.6396 122.4>
VStem: 26 152<13.5543 118.446> 33.2598 143.96<383.75 580.876> 72 62<190.182 379.406>
LayerCount: 2
Fore
SplineSet
33.259765625 522 m 0xd0
 33.259765625 579 65.759765625 598 103.51953125 598 c 0
 141.280273438 598 177.219726562 581 177.219726562 521 c 0xd0
 177.219726562 417 134 350 134 228 c 16
 134 210 129 189 103 189 c 0
 77 189 72 210 72 229 c 0xc8
 72 348 33.259765625 425 33.259765625 522 c 0xd0
26 66 m 0xe0
 26 108 60 142 102 142 c 0
 144 142 178 108 178 66 c 0
 178 24 144 -10 102 -10 c 0
 60 -10 26 24 26 66 c 0xe0
EndSplineSet
Validated: 1
EndChar

StartChar: dollar
Encoding: 36 36 1
Width: 413
Flags: W
HStem: -91.9805 135.98<165.691 234.174> -8 48.2773<183.247 216.482> 473.723 44.2773<171.518 204.753>
VStem: 32 102<283.5 448.663> 149.035 77.2227<483.122 603.227> 161.742 75.2676<-89.2268 30.8779> 266 112<70.5 246.5>
LayerCount: 2
Fore
SplineSet
151.967773438 541.530273438 m 0x3a
 151.967773438 554.28515625 150.990234375 562.342773438 150.990234375 577.783203125 c 0
 150.990234375 596.581054688 165.65234375 605.98046875 188.134765625 605.98046875 c 0
 210.6171875 605.98046875 226.2578125 591.881835938 226.2578125 577.111328125 c 0
 226.2578125 562.342773438 222.34765625 550.2578125 222.34765625 541.530273438 c 0
 222.34765625 532.802734375 226.2578125 523.403320312 226.2578125 503.262695312 c 0
 226.2578125 483.122070312 204.752929688 473.72265625 188.134765625 473.72265625 c 0
 171.517578125 473.72265625 149.03515625 481.779296875 149.03515625 503.262695312 c 0
 149.03515625 518.704101562 151.967773438 528.102539062 151.967773438 541.530273438 c 0x3a
236.032226562 -27.5302734375 m 4
 236.032226562 -40.28515625 237.009765625 -48.3427734375 237.009765625 -63.783203125 c 4
 237.009765625 -82.5810546875 222.34765625 -91.98046875 199.865234375 -91.98046875 c 4xb6
 177.3828125 -91.98046875 161.7421875 -77.8818359375 161.7421875 -63.111328125 c 4
 161.7421875 -48.3427734375 165.65234375 -36.2578125 165.65234375 -27.5302734375 c 4
 165.65234375 -18.802734375 161.7421875 -9.4033203125 161.7421875 10.7373046875 c 4
 161.7421875 30.8779296875 183.247070312 40.27734375 199.865234375 40.27734375 c 4x76
 216.482421875 40.27734375 238.96484375 32.220703125 238.96484375 10.7373046875 c 4
 238.96484375 -4.7041015625 236.032226562 -14.1025390625 236.032226562 -27.5302734375 c 4
32 377 m 0
 32 450 94 518 192 518 c 0
 290 518 322 472 322 447 c 0
 322 422 308 399 276 399 c 0
 224 399 208 457 172 457 c 0
 148 457 134 438 134 418 c 0
 134 344 378 325 378 168 c 0
 378 64 284 -8 180 -8 c 0x72
 76 -8 22 33 22 83 c 0
 22 113 38 135 80 135 c 0
 154 135 154 44 218 44 c 0
 246 44 266 57 266 84 c 0
 266 202 32 190 32 377 c 0
EndSplineSet
Validated: 524293
EndChar

StartChar: comma
Encoding: 44 44 2
Width: 204
Flags: W
HStem: -161 303
VStem: 64 114<-55.5 87>
LayerCount: 2
Fore
SplineSet
26 66 m 0
 26 108 60 142 102 142 c 0
 144 142 178 108 178 66 c 0
 178 -57 54 -161 13 -161 c 0
 1.95463898281 -161 -4 -155 -4 -146 c 0
 -4 -117 64 -83 64 -28 c 0
 64 3 26 12 26 66 c 0
EndSplineSet
Validated: 1
EndChar

StartChar: hyphen
Encoding: 45 45 3
Width: 329
Flags: W
HStem: 155.266 104.734<85.064 243.664>
LayerCount: 2
Fore
SplineSet
207.999023438 155.265625 m 6
 102 155.265625 l 6
 95.9990234375 155.265625 82 138 56 138 c 4
 30 138 28.5390625 164.354492188 39 178 c 6
 85 238 l 6
 97.0234375 253.682617188 105 260 121 260 c 6
 233 260 l 6
 242 260 246.999023438 277.265625 272.999023438 277.265625 c 4
 298.999023438 277.265625 300.4609375 250.911132812 289.999023438 237.265625 c 6
 243.999023438 177.265625 l 6
 231.9765625 161.583007812 224 155.265625 207.999023438 155.265625 c 6
EndSplineSet
Validated: 33
EndChar

StartChar: period
Encoding: 46 46 4
Width: 204
Flags: W
HStem: -10 152<49.5543 154.446>
VStem: 26 152<13.5543 118.446>
LayerCount: 2
Fore
SplineSet
26 66 m 4
 26 108 60 142 102 142 c 4
 144 142 178 108 178 66 c 4
 178 24 144 -10 102 -10 c 4
 60 -10 26 24 26 66 c 4
EndSplineSet
Validated: 1
EndChar

StartChar: zero
Encoding: 48 48 5
Width: 554
Flags: W
HStem: -10 57<220.644 325.708> 454 56<224.849 324.634>
VStem: 28 143<135.645 353.14> 375 143<135.645 353.14>
LayerCount: 2
Fore
SplineSet
171 243.959960938 m 0
 171 107.719726562 211.6953125 47 273.484375 47 c 0
 335.272460938 47 375 107.719726562 375 243.959960938 c 0
 375 380.200195312 335.272460938 454 273.484375 454 c 0
 211.6953125 454 171 380.200195312 171 243.959960938 c 0
28 244.43359375 m 0
 28 389.961914062 129 510 272.990234375 510 c 0
 416.98046875 510 518 389.961914062 518 244.43359375 c 0
 518 98.9052734375 416.98046875 -10 272.990234375 -10 c 0
 129 -10 28 98.9052734375 28 244.43359375 c 0
EndSplineSet
Validated: 1
EndChar

StartChar: one
Encoding: 49 49 6
Width: 313
Flags: W
HStem: 0 21G<75 97 234 260>
VStem: 100 127<54.0226 399.345>
LayerCount: 2
Fore
SplineSet
227 73 m 2
 227 42.3310832859 285 62 285 30 c 0
 285 6 273 0 247 0 c 0
 221 0 182 4 154 4 c 0
 126 4 108 0 86 0 c 0
 64 0 44 -3.5527136788e-15 44 25 c 0
 44 69 100 40.4169921875 100 70 c 2
 100 389 l 2
 100 416 84 395 54 395 c 0
 41 395 22 397 22 418 c 0
 22 452 67.0795022578 449.807453009 107 469 c 0
 159 494 180 512 202 512 c 0
 222 512 227 499 227 483 c 2
 227 73 l 2
EndSplineSet
Validated: 33
EndChar

StartChar: two
Encoding: 50 50 7
Width: 494
Flags: W
HStem: -6 91<26.9866 109> -3 95.9004<301.045 402.712> 38 66<206.002 259.916> 429.366 81.6338<166.76 319>
VStem: 80 66.5322<354.261 425.646> 280 150<295.598 404.69> 415.062 65.9375<93.1171 161.609>
LayerCount: 2
Fore
SplineSet
80 387 m 0x9c
 80 438.932617188 154 511 270 511 c 0
 368 511 430 444 430 370 c 0
 430 230 206 137 206 112 c 0
 206 107 209 104 215 104 c 0x3c
 227 104 299 129 318 129 c 0
 340 129 386.9296875 92.900390625 402.139648438 92.900390625 c 0
 414.740234375 92.900390625 415.0625 111.89453125 415.0625 127.490234375 c 0
 415.0625 145.040039062 426.8203125 163.759765625 448.240234375 163.759765625 c 0
 471.639648438 163.759765625 481 148.549804688 481 131 c 0
 481 70.16015625 392 -3 350 -3 c 0x5a
 331 -3 179 38 168 38 c 0x3a
 157 38 96 -6 46 -6 c 0
 29 -6 10 6 10 31 c 0
 10 88 96.6787109375 68.77734375 109 85 c 2
 242 239 l 2
 272.557617188 274.3828125 280 312 280 347 c 0
 280 393 249 429.366210938 197.53125 429.366210938 c 0
 163.365234375 429.366210938 145.065429688 418.43359375 145.065429688 402.033203125 c 0
 145.065429688 393.236328125 146.532226562 387.78125 146.532226562 380.067382812 c 0
 146.532226562 366.643554688 135.124023438 352.633789062 112.999023438 352.633789062 c 0
 95.2333984375 352.633789062 80 363.93359375 80 387 c 0x9c
EndSplineSet
Validated: 1
EndChar

StartChar: three
Encoding: 51 51 8
Width: 425
Flags: W
HStem: -9 68<66.5633 214.697> 254.91 65.0898<84.9551 158.298> 262.87 53.1299<119.983 202.63> 454 57<128.318 245.314>
VStem: 219 125.238<358.474 442.568> 219 61<319 387> 260.238 140<113.095 230.342>
LayerCount: 2
Fore
SplineSet
206 511 m 0xb8
 283.23828125 511 344.23828125 474 344.23828125 412 c 0xb8
 344.23828125 355 280 329 280 319 c 0xb4
 280 305 400.23828125 302 400.23828125 187 c 0
 400.23828125 66 252 -9 132 -9 c 0
 43 -9 8.3212890625 19.6591796875 8.3212890625 54.986328125 c 0
 8.3212890625 76.599609375 24.392578125 86 43 86 c 0
 75.4150390625 86 84.23828125 59 150 59 c 0
 212 59 260.23828125 107 260.23828125 170 c 0
 260.23828125 223 221 262.870117188 180 262.870117188 c 0xb2
 140.772460938 262.870117188 134 254.91015625 115 254.91015625 c 0
 100.102539062 254.91015625 83 265 83 287 c 0
 83 306.833007812 98 320 119 320 c 0xd2
 140.249023438 320 143.840820312 316 159 316 c 0
 195 316 219 345.6171875 219 387 c 0
 219 424 200.255859375 454 170 454 c 0
 134 454 116.436523438 414.579101562 104.0390625 400.274414062 c 0
 93.169921875 387.733398438 74.2724609375 385.241210938 60.6875 397.014648438 c 0
 49.7802734375 406.46875 46.8662109375 429.250976562 62.865234375 447.711914062 c 0
 90.5 479.598632812 138 511 206 511 c 0xb8
EndSplineSet
Validated: 33
EndChar

StartChar: four
Encoding: 52 52 9
Width: 457
Flags: W
HStem: 0.110352 21G<204 226 353 379> 158.013 75.0752<349.24 434.485> 166 58<131.224 228.656>
VStem: 229 117<53.6683 163.02 226.152 317.994>
LayerCount: 2
Fore
SplineSet
213 318 m 0xb0
 204 318 193.163085938 309.926757812 184 300 c 2
 142 258 l 18
 122 238 118 224 135 224 c 2
 204 224 l 2
 222 224 230 226 230 238 c 2
 230 293 l 2
 230 310 224 318 213 318 c 0xb0
229 64.447265625 m 2
 229 136 l 2
 229 164.185139918 220.653391192 166 194 166 c 2
 32 166 l 2xb0
 12.7587890625 166 8 170 8 180 c 0
 8 196 43.7333984375 227.293945312 72 256 c 2
 259 452 l 2
 288.784179688 482.247070312 302 505 322 505 c 0
 347 505 349 484 349 450 c 2
 349 235.362304688 l 2
 349 212.612304688 373 233.087890625 408 233.087890625 c 0
 427 233.087890625 438 218.299804688 438 198.962890625 c 0
 438 179.625 429 158.012695312 403 158.012695312 c 0xd0
 374 158.012695312 346 177.349609375 346 143.224609375 c 2
 346 66.7763671875 l 2
 346 43 404 66.2373046875 404 26 c 0
 404 12.767578125 392 0.1103515625 366 0.1103515625 c 0
 340 0.1103515625 308 3.21484375 280 3.21484375 c 0
 252 3.21484375 237 0.1103515625 215 0.1103515625 c 0
 193 0.1103515625 173 5.1103515625 173 24.5166015625 c 0
 173 68.6708984375 229 41.16015625 229 64.447265625 c 2
EndSplineSet
Validated: 33
EndChar

StartChar: five
Encoding: 53 53 10
Width: 421
Flags: W
HStem: -9 68<69.3537 214.354> 258 108<171.062 219.625> 422 78<176.102 317.524> 422.022 109.978<309.396 355.487>
VStem: 253 130<128.872 225.416>
LayerCount: 2
Fore
SplineSet
153 59 m 0xe8
 211 59 253 99 253 168 c 0
 253 228 206 258 142 258 c 2
 81 258 l 2
 68 258 57 262 57 276 c 0
 57 292 64.6171875 306.248046875 80 338 c 2
 148.508789062 480.69140625 l 2
 157.080078125 498.383789062 163 500 172 500 c 10
 297.544921875 500 l 2xe8
 309.544921875 500 315 532 335 532 c 0xd8
 351 532 355.995117188 522 355.995117188 500 c 2xe8
 355.995117188 444 l 2
 355.995117188 429 349 422.024414062 336 422.022460938 c 2xd8
 190 422 l 2
 186 421.999023438 184.36328125 420.852539062 181.600585938 414 c 2
 166.938476562 377.633789062 l 2
 164.57421875 371.768554688 165 366 174 366 c 0
 182 366 200 370 219 370 c 0
 310 370 383 318 383 220 c 0
 383 87 257 -9 143 -9 c 0
 54 -9 10.3212890625 19.6591796875 10.3212890625 54.986328125 c 0
 10.3212890625 76.599609375 26.392578125 86 45 86 c 0
 77.4150390625 86 87.23828125 59 153 59 c 0xe8
EndSplineSet
Validated: 1
EndChar

StartChar: six
Encoding: 54 54 11
Width: 486
Flags: W
HStem: -8 61<221.863 317.041> 305 39<178.457 271.251> 430.68 82.3203<225.024 342.662>
VStem: 28 132<131.392 286.55> 336 119<108.162 227.481>
LayerCount: 2
Fore
SplineSet
160 233 m 0
 160 122 222 53 270 53 c 0
 315 53 336 89 336 125 c 0
 336 230 275 305 227 305 c 0
 184 305 160 274 160 233 c 0
28 202 m 0
 28 387 196 513 317 513 c 0
 340.15234375 513 373.594726562 500.995117188 373.594726562 465.837890625 c 0
 373.594726562 446.97265625 359.017578125 422.962890625 320.4296875 422.962890625 c 0
 298.9921875 422.962890625 281.842773438 430.6796875 258.690429688 430.6796875 c 0
 191.52734375 430.6796875 169 382 169 360 c 0
 169 352 172 344 183 344 c 0
 197 344 223 362 282 362 c 0
 381 362 455 288 455 192 c 0
 455 71 339 -8 228 -8 c 0
 117 -8 28 79 28 202 c 0
EndSplineSet
Validated: 1
EndChar

StartChar: seven
Encoding: 55 55 12
Width: 380
Flags: W
HStem: 0 21G<67 89 223 249> 386 96<115.646 235.917> 512 20G<86.5 122.468>
VStem: 27 189<14.5 108.274>
LayerCount: 2
Fore
SplineSet
216 73 m 0
 216 42 274 64 274 32 c 0
 274 8 262 0 236 0 c 0
 210 0 184 4 156 4 c 0
 128 4 100 0 78 0 c 0
 56 0 27 2 27 27 c 0
 27 71 85.0302734375 36.064453125 87 66 c 0
 92 142 154 262 223 348 c 0
 246.490495199 377.278008509 254 386 226 386 c 2
 86 386 l 2
 68.8447265625 386 74 351 44 351 c 0
 25 351 17.677734375 358 17.677734375 373 c 0
 17.677734375 383 33.6852987896 410.529240497 48 449 c 0
 64 492 72 532 101 532 c 0
 143.936523438 532 93 482 122 482 c 2
 251 482 l 2
 282.727539062 482.82421875 318 496 340 496 c 0
 362 496 373 485 373 468 c 0
 373 428.022460938 311 396 255.234375 246 c 0
 238.731445312 201.610351562 216 143.548828125 216 73 c 0
EndSplineSet
Validated: 33
EndChar

StartChar: eight
Encoding: 56 56 13
Width: 445
Flags: W
HStem: -8 57<124.703 258.207> 241 93<147 253> 468 47<187.607 291.737>
VStem: 12 67<91.2983 204.667> 52 119<363.062 450.299> 291 126<79.8748 172.95> 307 59<354.253 451.845>
LayerCount: 2
Fore
SplineSet
147 241 m 0xf4
 128 241 79 196 79 147 c 0
 79 81 148 49 190 49 c 0
 242.009614496 49 291 80 291 130 c 0
 291 193 166 241 147 241 c 0xf4
171 404 m 0xea
 171 360 234 334 253 334 c 0
 272 334 307 370 307 407 c 0
 307 439 280 468 241 468 c 0
 197 468 171 438 171 404 c 0xea
52 393 m 0
 52 463 124 515 224 515 c 0
 324 515 366 465 366 408 c 16xea
 366 351 314 325 314 313 c 0
 314 297 417 271 417 162 c 0
 417 67 343 -8 209 -8 c 16
 75 -8 12 64 12 148 c 0xf4
 12 241 96 272 96 286 c 0
 96 302 52 323 52 393 c 0
EndSplineSet
Validated: 1
EndChar

StartChar: nine
Encoding: 57 57 14
Width: 486
Flags: W
HStem: -11 96<137.461 253.273> 178 39<206.435 304.543> 449 61<165.959 267.119>
VStem: 28 119<280.128 393.838> 323 132<233.282 384.978>
LayerCount: 2
Fore
SplineSet
323 289 m 0
 323 400 261 449 213 449 c 0
 168 449 147 413 147 377 c 0
 147 272 208 217 256 217 c 0
 299 217 323 248 323 289 c 0
455 300 m 0
 455 115 275 -11 166 -11 c 0
 139 -11 100 3 100 44 c 0
 100 66 117 94 162 94 c 0
 187 94 207 85 234 85 c 0
 289 85 314 140 314 162 c 0
 314 170 311 178 300 178 c 0
 286 178 260 160 201 160 c 0
 102 160 28 214 28 310 c 0
 28 431 144 510 255 510 c 0
 366 510 455 423 455 300 c 0
EndSplineSet
Validated: 1
EndChar

StartChar: colon
Encoding: 58 58 15
Width: 204
Flags: W
HStem: -10 152<49.5543 154.446> 239 152<49.5543 154.446>
VStem: 26 152<13.5543 118.446 262.554 367.446>
LayerCount: 2
Fore
SplineSet
26 315 m 0
 26 357 60 391 102 391 c 0
 144 391 178 357 178 315 c 0
 178 273 144 239 102 239 c 0
 60 239 26 273 26 315 c 0
26 66 m 0
 26 108 60 142 102 142 c 0
 144 142 178 108 178 66 c 0
 178 24 144 -10 102 -10 c 0
 60 -10 26 24 26 66 c 0
EndSplineSet
Validated: 1
EndChar

StartChar: semicolon
Encoding: 59 59 16
Width: 204
Flags: W
HStem: 239 152<49.5543 154.446>
VStem: 26 152<10.0596 118.446 262.554 367.446> 64 114<-55.5 87>
LayerCount: 2
Fore
SplineSet
26 66 m 0xc0
 26 108 60 142 102 142 c 0
 144 142 178 108 178 66 c 0xc0
 178 -57 54 -161 13 -161 c 0
 1.95463898281 -161 -4 -155 -4 -146 c 0
 -4 -117 64 -83 64 -28 c 0xa0
 64 3 26 12 26 66 c 0xc0
26 315 m 0
 26 357 60 391 102 391 c 0
 144 391 178 357 178 315 c 0
 178 273 144 239 102 239 c 0
 60 239 26 273 26 315 c 0
EndSplineSet
Validated: 1
EndChar

StartChar: question
Encoding: 63 63 17
Width: 356
Flags: W
HStem: -10 152<107.554 212.446> 539 61<120.723 205.83>
VStem: 84 152<13.5543 118.446> 112 81<213.317 314.065> 217 118<418.967 529.132>
LayerCount: 2
Fore
SplineSet
164 600 m 4xd8
 254 600 335 565 335 467 c 4
 335 362 193 329 193 283 c 4
 193 254 211.737304688 256.600585938 211.737304688 223.700195312 c 4
 211.737304688 206.900390625 195.969726562 188 170 188 c 4
 130 188 112 222 112 254 c 4
 112 368 217 394 217 482 c 4
 217 513 197.940429688 539 164 539 c 4
 107 539 105 461 53 461 c 4
 21 461 7 484 7 509 c 4
 7 553 66 600 164 600 c 4xd8
84 66 m 4xe0
 84 108 118 142 160 142 c 4
 202 142 236 108 236 66 c 4
 236 24 202 -10 160 -10 c 4
 118 -10 84 24 84 66 c 4xe0
EndSplineSet
EndChar

StartChar: A
Encoding: 65 65 18
Width: 621
Flags: W
HStem: 0 62<-2.95345 66.0223 559.116 624.668> 179 49<215.486 337> 570 20G<285.5 311.041>
LayerCount: 2
Fore
SplineSet
274 379 m 0
 252 379 214 283 214 253 c 0
 214 223 234 228 283 228 c 0
 332 228 339 222 339 250 c 0
 339 278 296 379 274 379 c 0
153 540 m 0
 153 571 172 572 215 572 c 0
 241 572 273 590 298 590 c 0
 324.08203125 590 339.459960938 581.150390625 377 495 c 2
 533 137 l 2
 563.62890625 66.7099609375 569 63 593 63 c 0
 613 63 626 49 626 32 c 0
 626 15 618 -1 582 -1 c 0
 546 -1 532 4 504 4 c 0
 476 4 449 0 410 0 c 0
 371 0 358 3 358 33 c 0
 358 63 404 38 404 73 c 0
 404 108 380 152 375 164 c 0
 370 176 369 179 282 179 c 0
 195 179 188 182 181 175 c 0
 174 168 139 99 139 77 c 0
 139 55 191 74 191 29 c 4
 191 5.6162109375 174.05859375 -0.0380859375 155 0 c 4
 134.12109375 0.0419921875 110.500976562 7 99 7 c 4
 77 7 68 0 40 0 c 4
 12 0 -4 6 -4 31 c 4
 -4 56 15 64 24 64 c 4
 33 64 37 62 47 62 c 4
 57 62 60.568359375 70.759765625 67 86 c 2
 67 86 224 390 224 458 c 0
 224 510 153 487 153 540 c 0
EndSplineSet
Validated: 33
EndChar

StartChar: B
Encoding: 66 66 19
Width: 579
Flags: W
HStem: -2 47<224.292 355.625> 0 59<24.0857 82.5539> 324 48<224.09 318.771> 527 57<30.0745 114.372> 536 48<181.387 317.67>
VStem: 84 130<60.2898 314.009 377.808 526.764> 339 164<409.253 517.031> 406 158<98.186 260.418>
LayerCount: 2
Fore
SplineSet
211 484 m 2x2e
 211 434 l 2
 211 418 212 372 260 372 c 0
 308 372 339 397 339 453 c 0
 339 509 311 536 262 536 c 0
 213 536 211 514 211 484 c 2x2e
214 254 m 2
 214 119 l 2
 214 84 215 45 280 45 c 0
 356 45 406 89 406 183 c 0xa5
 406 277 330 324 276 324 c 0
 216 324 214 285 214 254 c 2
14 547 m 0
 14 568 47 584 80 584 c 0x75
 113 584 113 577 147 577 c 0
 172 577 202 584 271 584 c 0
 373 584 503 562 503 469 c 0x2e
 503 376 393 370 393 358 c 0
 393 346 564 331 564 179 c 0
 564 83 485 -2 335 -2 c 0xad
 230 -2 186 4.8740234375 154 4.8740234375 c 0
 116.997989284 4.8740234375 107 0 74 0 c 0
 34 0 23 10 23 28 c 0
 23 46 33.0546875 57.1015625 57 59 c 0
 80.9111328125 60.896484375 84 79 84 97 c 2
 84 490 l 2
 84 513.509765625 81 527 67 527 c 0x75
 53 527 56 519 39 519 c 0
 22 519 14 526 14 547 c 0
EndSplineSet
EndChar

StartChar: C
Encoding: 67 67 20
Width: 556
Flags: W
HStem: -10 56<269.973 405.425> 532 66<267.791 396.016>
VStem: 15 164<170.497 406.079> 451 64<384.896 473.779>
LayerCount: 2
Fore
SplineSet
308 598 m 0
 362 598 403 571 414 571 c 0
 427 571 424 581 433 586 c 0
 440.51953125 590.177734375 466 592 472 585 c 0
 478 578 515 430 515 416 c 0
 515 400.475585938 511 386 487 383 c 4
 463 380 459.707966638 400.482825425 451 428 c 0
 426 507 374 532 328 532 c 0
 273 532 179 472 179 282 c 0
 179 92 284 46 338 46 c 0
 430 46 428 124.357421875 481.3828125 124.357421875 c 0
 500.266601562 124.357421875 514 109.697265625 514 89 c 4
 514 44 436 -10 324 -10 c 0
 202 -10 15 73 15 282.48046875 c 0
 15 511.73046875 198 598 308 598 c 0
EndSplineSet
EndChar

StartChar: D
Encoding: 68 68 21
Width: 632
Flags: W
HStem: -14.001 62<21.2504 60.973 220.925 347.037> 537.999 62<221.597 344.66>
VStem: 64.9814 143.019<61.8825 522.028> 442 164<181.063 412.719>
LayerCount: 2
Fore
SplineSet
7 552 m 0
 7 578 21 591.999023438 145 591.999023438 c 0
 184 591.999023438 242 599.999023438 313 599.999023438 c 0
 477 599.999023438 606 477.598632812 606 292.798828125 c 0
 606 107.999023438 458 -14.0009765625 304 -14.0009765625 c 0
 226 -14.0009765625 161 -8.0009765625 114 -8.0009765625 c 0
 34 -8.0009765625 16 -2.0009765625 16 26.9990234375 c 0
 16 33.9990234375 17 51.9990234375 39 51.9990234375 c 0
 60.15625 51.9990234375 65.0654296875 76.0439453125 64.9814453125 97.451171875 c 2
 63.44921875 496.8203125 l 2
 63.3984375 509.649414062 56.3681640625 518.759765625 46 522 c 0
 21.18359375 529.754882812 7 526 7 552 c 0
208 112.999023438 m 2
 208 55.9990234375 250.11328125 47.9990234375 285 47.9990234375 c 0
 355 47.9990234375 442 123.598632812 442 301.69921875 c 0
 442 479.798828125 342 537.999023438 272 537.999023438 c 0
 237.11328125 537.999023438 208 519.014648438 208 474.999023438 c 6
 208 112.999023438 l 2
EndSplineSet
EndChar

StartChar: E
Encoding: 69 69 22
Width: 500
Flags: W
HStem: -5 61<11.009 62.8879 211.426 359.151> 307 53<211.115 305.871> 526 60<7.46997 62.9597 211.324 327.602>
VStem: 63 146<55.1917 304.805 360.021 526.938>
LayerCount: 2
Fore
SplineSet
6 555 m 4
 6 573 20 586 47 586 c 4
 61 586 78 582 106 582 c 6
 279 582 l 6
 353 582 345 600 372 600 c 4
 407 600 404.54296875 556.73828125 427 518 c 4
 467 449 430 438 413 438 c 4
 396 438 372 472 338 497 c 4
 304 522 293 531 254 531 c 4
 215 531 211 520 211 494 c 6
 211 382 l 6
 211 367 221 360 232 360 c 6
 274 360 l 6
 309 360 300 399 336 399 c 4
 378 399 376 350 406 308 c 4
 432.849609375 270.41015625 413 242.838867188 383 242.838867188 c 4
 374.920898438 242.838867188 366.73046875 246.26953125 360 253 c 4
 332 281 289 307 254 307 c 4
 219 307 209 300 209 262 c 6
 209 102 l 6
 209 82 209 51 255 51 c 4
 318 51 337.806640625 59.931640625 364 81 c 4
 410 118 410 149 456 149 c 4
 468 149 486 141 486 120 c 4
 486 99 470 87 454 52 c 4
 438 17 441 -23 396 -23 c 4
 355 -23 361 0 339 0 c 6
 154 0 l 6
 118 0 120 -5 67 -5 c 4
 14 -5 8 17 8 32 c 4
 8 47 15 56 25 56 c 4
 35 56 38 50 46 50 c 4
 63 50 63 73 63 85 c 6
 63 502 l 6
 63 526 49 527 43 527 c 4
 37 527 30 526 24 526 c 4
 14 526 6 530 6 555 c 4
EndSplineSet
Validated: 33
EndChar

StartChar: F
Encoding: 70 70 23
Width: 500
Flags: W
HStem: -5 61<11.009 62.8879 209.844 279.728> 277 53<211.314 324.625> 526 60<7.46997 62.9597 211.324 327.602>
VStem: 63 148<53.9927 274.521 330 526.938>
LayerCount: 2
Fore
SplineSet
255 51 m 0
 271 51 282 46 282 30 c 0
 282 14 274 0 252 0 c 2
 154 0 l 1
 154 0 120 -5 67 -5 c 0
 14 -5 8 17 8 32 c 0
 8 47 15 56 25 56 c 0
 35 56 38 50 46 50 c 0
 63 50 63 73 63 85 c 2
 63 502 l 2
 63 526 49 527 43 527 c 0
 37 527 30 526 24 526 c 0
 14 526 6 530 6 555 c 0
 6 573 20 586 47 586 c 0
 61 586 78 582 106 582 c 6
 279 582 l 2
 353 582 345 600 372 600 c 0
 407 600 404.54296875 556.73828125 427 518 c 0
 467 449 430 438 413 438 c 0
 396 438 372 472 338 497 c 0
 304 522 293 531 254 531 c 0
 215 531 211 520 211 494 c 2
 211 352 l 2
 211 337 220 330 231 330 c 2
 294 330 l 2
 329 330 320 369 356 369 c 0
 398 369 396 320 426 278 c 0
 452.849609375 240.41015625 433 212.838867188 403 212.838867188 c 0
 394.920898438 212.838867188 386.73046875 216.26953125 380 223 c 0
 352 251 299 277 264 277 c 0
 219 277 209 270 209 232 c 2
 209 102 l 2
 209 82 203 51 255 51 c 0
EndSplineSet
Validated: 33
EndChar

StartChar: G
Encoding: 71 71 24
Width: 640
Flags: W
HStem: -10 56<255.896 378.092> -7 67<490.404 588.145> 303.174 48.8262<353.591 406.665 534.011 593.991> 532 66<267.791 396.379>
VStem: 15 164<160.974 406.079> 412 122<78.5844 300.261> 451 64<384.869 473.779>
LayerCount: 2
Fore
SplineSet
308 598 m 0xbc
 362 598 403 571 414 571 c 0
 427 571 424 581 433 586 c 0
 440.51953125 590.177734375 466 592 472 585 c 0
 478 578 515 430 515 416 c 0
 515 400.475585938 511 386 487 383 c 4
 463 380 459.067930512 400.288412589 451 428 c 0
 428 507 374 532 328 532 c 0
 273 532 179 472 179 282 c 0
 179 92 265 46 319 46 c 0xba
 370.42578125 46 412 89.431640625 412 127.740234375 c 2
 412 225 l 2
 412 281 405 301 384 301 c 0
 363 301 367 279 341 279 c 0
 335 279 316 284 316 315 c 0
 316 334.318359375 337 348.717773438 371 348.717773438 c 0
 417.859375 348.717773438 489.704101562 352 538 352 c 0
 580.491210938 352 595.112304688 340 595.112304688 323 c 0
 595.112304688 309.755859375 584.599609375 297 574 297 c 0
 562.0859375 297 554 303.173828125 544 303.173828125 c 0
 537.778320312 303.173828125 534 297.87890625 534 280 c 2
 534 100 l 2
 534 75 536 60 555 60 c 0
 578 60 571 83 598 83 c 0
 612.807617188 83 622.555664062 72 622.555664062 50 c 0
 622.555664062 25.033203125 599.47265625 -7 536 -7 c 0x7c
 446 -7 439 35.7998046875 422.87890625 35.7998046875 c 0
 404 35.7998046875 394 -10 284 -10 c 0
 162 -10 15 73 15 282.48046875 c 0
 15 511.73046875 198 598 308 598 c 0xbc
EndSplineSet
Validated: 33
EndChar

StartChar: H
Encoding: 72 72 25
Width: 658
Flags: W
HStem: 0 52<16.3529 62.0809 209.282 254.08 400.353 446.081 593.282 638.08> 308 65<208.447 448.573> 521 62<8.54248 64.8011 210.113 257.444 392.542 447.868 592.164 641.444>
VStem: 65 143<57.5025 307.604 373.159 494> 449 143<57.5025 307.652 373.678 520.569>
LayerCount: 2
Fore
SplineSet
7 552 m 0
 7 578 30 583 140 583 c 0
 250 583 259 571 259 551 c 0
 259 531 251 521 234 521 c 0
 217 521 208 494 208 494 c 1
 208 393 l 2
 208 377.157226562 210.909179688 373 238 373 c 2
 418 373 l 2
 437.161132812 373 449 380.506835938 449 398 c 2
 449 485 l 2
 449 486.959960938 449 524 430 524 c 0
 404 524 391 526 391 552 c 0
 391 578 414 583 524 583 c 0
 634 583 643 571 643 551 c 0
 643 531 635 521 618 521 c 0
 601 521 592 519 592 494 c 2
 592 92 l 2
 592 71 594 57 616 57 c 0
 632 57 639 45 639 34 c 0
 639 -7 622 0 525 0 c 0
 427 0 400 -2 400 27 c 0
 400 34 401 52 423 52 c 0
 445 52 449 78 449 100 c 2
 449 278 l 2
 449 304.21484375 440.06640625 308 418 308 c 2
 236 308 l 2
 213.249023438 308 208 296.838867188 208 278 c 2
 208 92 l 2
 208 71 210 57 232 57 c 0
 248 57 255 45 255 34 c 0
 255 -7 238 0 141 0 c 0
 43 0 16 -2 16 27 c 0
 16 34 17 52 39 52 c 0
 61 52 65 78 65 100 c 2
 65 485 l 2
 65 510 65 524 46 524 c 0
 20 524 7 526 7 552 c 0
EndSplineSet
Validated: 33
EndChar

StartChar: I
Encoding: 73 73 26
Width: 274
Flags: W
HStem: 0 52<18.1454 62.0809 209.282 253.481> 521 62<8.54248 64.8011 208.164 257.444>
VStem: 65 143<57.5025 520.744>
LayerCount: 2
Fore
SplineSet
7 552 m 0
 7 578 30 583 140 583 c 0
 250 583 259 571 259 551 c 0
 259 531 251 521 234 521 c 0
 217 521 208 519 208 494 c 2
 208 92 l 2
 208 71 210 57 232 57 c 0
 248 57 255 45 255 34 c 0
 255 4 238 0 141 0 c 0
 43 0 16 6 16 32 c 0
 16 43 26 52 39 52 c 0
 61 52 65 78 65 100 c 2
 65 485 l 2
 65 510 65 524 46 524 c 0
 20 524 7 526 7 552 c 0
EndSplineSet
EndChar

StartChar: J
Encoding: 74 74 27
Width: 274
Flags: W
HStem: -110 75.8496<-6.13019 48.512> 524 59<8.54248 64.6439 208.42 257.444>
VStem: 65 143<31.3281 520.744>
LayerCount: 2
Fore
SplineSet
208 142 m 6
 208 -27 83.75 -110 -4 -110 c 0
 -45.849609375 -110 -85 -91 -85 -43.849609375 c 0
 -85 -19.62109375 -67.3046875 3.400390625 -36.400390625 3.400390625 c 0
 -5.349609375 3.400390625 -1.2998046875 -34.150390625 24.349609375 -34.150390625 c 0
 47.2734375 -34.150390625 65 11 65 80 c 2
 65 485 l 2
 65 510 65 524 46 524 c 0
 20 524 7 526 7 552 c 0
 7 578 30 583 140 583 c 0
 250 583 259 571 259 551 c 0
 259 531 251 521 234 521 c 0
 217 521 208 519 208 494 c 2
 208 142 l 6
EndSplineSet
Validated: 524289
EndChar

StartChar: K
Encoding: 75 75 28
Width: 614
Flags: W
HStem: 0 54<16.3519 62.5732 208.999 254.079 538.55 598.221> 481 106<434.559 539.156> 524 59<8.5415 64.6429 208.419 257.443>
VStem: 64.999 143<57.5025 300.763 364.718 520.744>
LayerCount: 2
Fore
SplineSet
208 258 m 6xd0
 207.999023438 92 l 6
 207.998899897 71.0000000007 209.999023438 57 231.999023438 57 c 4
 247.999023438 57 254.999023438 45 254.999023438 34 c 4
 254.999023438 -7 237.999023438 0 140.999023438 0 c 4
 42.9990234375 0 15.9990234375 -2 15.9990234375 27 c 4
 15.9990234375 34 16.9990234375 52 38.9990234375 52 c 4
 60.9990234375 52 64.9990234375 78 64.9990234375 100 c 6
 64.9990234375 485 l 6
 64.9990234375 510 64.9990234375 524 45.9990234375 524 c 4
 19.9990234375 524 6.9990234375 526 6.9990234375 552 c 4
 6.9990234375 578 29.9990234375 583 139.999023438 583 c 4xb0
 249.999023438 583 258.999023438 571 258.999023438 551 c 4
 258.999023438 531 250.999023438 521 233.999023438 521 c 4
 216.999023438 521 207.999023438 519 207.999023438 494 c 6
 207.999023438 389.279296875 l 6
 207.999023438 354 242.541015625 363.840820312 252.999023438 375 c 6
 416.999023438 550 l 6
 450.391601562 585.631835938 490.91015625 587 505.999023438 587 c 4
 544.999023438 587 575.999023438 564 575.999023438 520 c 4
 575.999023438 495 558.999023438 467 519.999023438 467 c 4
 480.999023438 467 464.999023438 481 443.999023438 481 c 4
 430.999023438 481 392.668945312 472 392.668945312 427 c 4
 392.668945312 418.97265625 394.137695312 406.495117188 399.999023438 393 c 6
 538.547851562 74 l 6
 546.625 55.4033203125 548.999023438 54 551.999023438 54 c 4
 555.999023438 54 560.999023438 57 572.999023438 57 c 4
 584.999023438 57 599.999023438 53 599.999023438 31 c 4
 599.999023438 9 573.999023438 0 554.999023438 0 c 4
 535.999023438 0 484.999023438 5 456.999023438 5 c 4
 428.999023438 5 412.999023438 0 386.999023438 0 c 4
 360.999023438 0 332.999023438 0 332.999023438 24 c 4
 332.999023438 64 379.385742188 41.763671875 373.999023438 56 c 6
 308.172851562 245.822265625 l 6
 289.439192122 295.331193453 269 303.6875 246 303.6875 c 4
 223 303.6875 208.000135672 290.384765624 208 258 c 6xd0
EndSplineSet
Validated: 524321
EndChar

StartChar: L
Encoding: 76 76 29
Width: 500
Flags: W
HStem: -5 65<11.7541 61.2631> 0 51<214.326 352.399> 527 59<7.46997 62.91 210.282 257.626>
VStem: 63 146<62.0537 520.881>
LayerCount: 2
Fore
SplineSet
127 583 m 0xb0
 166.23046875 583 188 584 213 584 c 0
 247.112304688 584 260 571.670898438 260 551 c 0
 260 531 252 521 235 521 c 0
 218 521 209 517 209 492 c 2
 209 102 l 2
 209 72 220 51 255 51 c 0
 318 51 339 62 364 81 c 0
 411.047851562 116.755859375 410 149 456 149 c 0
 468 149 486 141 486 120 c 0
 486 99 470 87 454 52 c 0
 438 17 441 -23 396 -23 c 0
 355 -23 361 0 339 0 c 2
 154 0 l 2x70
 118 0 94 -5 54 -5 c 0
 14 -5 7 22 7 37 c 0
 7 52 16 60 29 60 c 0
 55.92578125 60 63 77.3857421875 63 95 c 2
 63 502 l 2
 63 526 49 527 43 527 c 0
 37 527 30 526 24 526 c 0
 14 526 6 530 6 555 c 0
 6 573 20 586 47 586 c 0
 61 586 99.107421875 583 127 583 c 0xb0
EndSplineSet
Validated: 524289
EndChar

StartChar: M
Encoding: 77 77 30
Width: 696
Flags: W
HStem: 0 69<3.18591 58.5385 131 194.93 445.043 484.996> 0 58<22.6254 70> 223.625 154.376<300.868 357.5> 519 65.001<9.35669 68.7224>
VStem: 70 61<65.0342 395.996> 487 139<68.1484 411.994>
LayerCount: 2
Fore
SplineSet
7 552 m 0x7c
 7 568.375976562 23.498046875 584.000976562 48 584.000976562 c 0
 69 584.000976562 112.750976562 582.000976562 136 582.000976562 c 0
 165 582.000976562 169.119140625 583.247070312 201 546.000976562 c 2
 302 428.000976562 l 2
 331.836914062 393.141601562 341 378.000976562 352 378.000976562 c 0
 363 378.000976562 372.526367188 384.865234375 389 407.000976562 c 2
 485 536.000976562 l 2
 506.497070312 564.88671875 510 582.000976562 530 582.000976562 c 0
 550 582.000976562 556 577.000976562 581 577.000976562 c 0
 606 577.000976562 617 581.000976562 643 581.000976562 c 0
 669 581.000976562 679 573.000976562 679 546.000976562 c 0
 679 519.000976562 626 540.000976562 626 499.000976562 c 2
 626 105.000976562 l 2
 626 62.0009765625 675 66.0009765625 675 38.0009765625 c 0
 675 10.0009765625 658 0.0009765625 627 0.0009765625 c 0
 596 0.0009765625 579 5.0009765625 564 5.0009765625 c 0
 549 5.0009765625 541 0.0009765625 495 0.0009765625 c 0
 449 0.0009765625 442 23.0009765625 442 36.0009765625 c 0
 442 49.0009765625 446 62.0009765625 456 62.0009765625 c 0
 466 62.0009765625 487 77.0009765625 487 104.000976562 c 2
 487 384.000976562 l 2
 487 403.000976562 482 412.000976562 472 412.000976562 c 0
 462 412.000976562 456 400.000976562 448 391.000976562 c 2
 336 245.000976562 l 2
 324.873046875 230.49609375 316 223.625 305 223.625 c 0
 296.735351562 223.625 288.595703125 229.665039062 280 241 c 2
 189 361 l 2
 171.8359375 383.633789062 162 396 148 396 c 0
 134 396 131 390 131 352 c 2
 131 90 l 2
 131 57 149 66 168 66 c 0
 187 66 199 61 199 38 c 0
 199 15 178 0 156 0 c 0
 134 0 116 4 103 4 c 0
 90 4 76 0 46 0 c 0
 16 0 -2 21 -2 38 c 0
 -2 55 2 69 22 69 c 0xbc
 35.3330078125 69 49.2177734375 58 59 58 c 0
 67 58 70 62 70 70 c 2
 70 474 l 2
 70 500 68 519 50 519 c 0
 24 519 7 524 7 552 c 0x7c
EndSplineSet
Validated: 33
EndChar

StartChar: N
Encoding: 78 78 31
Width: 684
Flags: W
HStem: 0 56<48.033 115 176.913 243.055> 519 65<54.3567 113.722> 530 53<458.916 520.68 581.85 646.132>
VStem: 115 61<57.5156 335.996> 521 60<273.01 525.781>
LayerCount: 2
Fore
SplineSet
521 316 m 2xd8
 521 500 l 6
 521 520 517 530 502 530 c 0
 476 530 458 531 458 554 c 0
 458 580 483.35546875 583 538.689453125 583 c 0xb8
 594.024414062 583 648 587 648 551 c 0
 648 531 632 527 617 527 c 0
 600 527 581 525 581 500 c 2
 581 44 l 2
 581 6 562.193359375 0 551.193359375 0 c 0
 542.928710938 0 533.90625 4.8212890625 521.193359375 17.3759765625 c 2
 234 301 l 2
 217.919921875 316.879882812 207 336 193 336 c 0
 179 336 176 330 176 292 c 2
 176 90 l 2
 176 57 192 57 211 57 c 0
 230 57 244 52 244 29 c 0
 244 6 223 0 201 0 c 0
 179 0 161 4 148 4 c 0
 135 4 121 0 91 0 c 0
 61 0 47 12 47 29 c 0
 47 46 59 59 72 59 c 0
 81.3330078125 59 88.2177734375 56 98 56 c 0
 106 56 115 63 115 77 c 2
 115 474 l 2
 115 500 113 519 95 519 c 0
 69 519 52 524 52 552 c 0
 52 568.375976562 68.498046875 584 93 584 c 0
 114 584 137.750976562 582 161 582 c 0
 190 582 203.716796875 568.474609375 226 546 c 2
 458 312 l 2
 489.685546875 280.041992188 495 273 506 273 c 0
 517 273 521 287 521 316 c 2xd8
EndSplineSet
Validated: 524321
EndChar

StartChar: O
Encoding: 79 79 32
Width: 654
Flags: W
HStem: -14 66<269.774 387.246> 534 66<262.337 392.307>
VStem: 23 167<177.465 411.819> 467 164<178.542 412.407>
LayerCount: 2
Fore
SplineSet
190 301.700195312 m 0
 190 123.599609375 258 52 328 52 c 0
 398 52 467 123.599609375 467 301.700195312 c 0
 467 479.799804688 398 534 328 534 c 0
 258 534 190 479.799804688 190 301.700195312 c 0
23 295 m 0
 23 490 174 600 338 600 c 0
 502 600 631 477.599609375 631 292.799804688 c 0
 631 108 483 -14 329 -14 c 0
 175 -14 23 100 23 295 c 0
EndSplineSet
Validated: 1
EndChar

StartChar: P
Encoding: 80 80 33
Width: 533
Flags: W
HStem: 0 52<20.5226 67.6895 213.215 257.289> 280 57<215.772 323.365> 524 59<12.3169 68.76> 531 52<213.372 330.975>
VStem: 68.6396 143.135<57.3724 283 341.271 523.77> 357.774 142<370.641 504.24>
LayerCount: 2
Fore
SplineSet
68.6396484375 86.900390625 m 2xdc
 68.7744140625 498 l 2
 68.7799870902 515.000399942 68.7744140625 524 49.7744140625 524 c 0xec
 23.7744140625 524 10.7744140625 526 10.7744140625 552 c 0
 10.7744140625 578 33.7744140625 583 143.774414062 583 c 2
 300.774414062 583 l 2
 441 583 499.774414062 525.729492188 499.774414062 429 c 0
 499.774414062 302 372.774414062 280 314.774414062 280 c 0
 268 280 243.346679688 283 233 283 c 0
 221 283 211.774414062 283 211.774414062 265 c 2
 211.774414062 92 l 2
 211.774414063 73 213.774414062 57 235.774414062 57 c 0
 245 57 258.774414062 53 258.774414062 34 c 0
 258.774414062 3 241.774414062 0 144.774414062 0 c 0
 46.7744140625 0 19.7744140625 5 19.7744140625 27 c 0
 19.7744140625 46 30 52 42.7744140625 52 c 0
 64.7744140625 52 68.6337804178 69.0001239746 68.6396484375 86.900390625 c 2xdc
209.774414062 479 m 6
 209.774414062 399 l 6
 209.774414062 357 219 337 258.774414062 337 c 4
 306.774414062 337 357.774414062 362 357.774414062 438 c 4
 357.774414062 514 309.774414062 531 260.774414062 531 c 4xdc
 211.774414062 531 209.774414062 509 209.774414062 479 c 6
EndSplineSet
Validated: 524321
EndChar

StartChar: Q
Encoding: 81 81 34
Width: 654
Flags: W
HStem: -109 81<477.077 555.773> -38 70<278.739 361.923> -14 66<269.774 387.246> 534 66<262.337 392.307>
VStem: 23 167<177.465 411.819> 467 164<178.542 412.407>
LayerCount: 2
Fore
SplineSet
177 -49 m 4x5c
 177 16 281 32 315 32 c 4x5c
 491 32 467 -28 522 -28 c 4
 577 -28 551 50 613 50 c 4
 633 50 653 36 653 10 c 4
 653 -38 598 -109 493 -109 c 4x9c
 388 -109 367 -38 315 -38 c 4
 257 -38 291 -103 224 -103 c 4
 201 -103 177 -84 177 -49 c 4x5c
EndSplineSet
Refer: 32 79 N 1 0 0 1 0 0 2
Validated: 5
EndChar

StartChar: R
Encoding: 82 82 35
Width: 604
Flags: W
HStem: -5 72<434.5 525.911> 0 52<20.5226 65.8553 214.43 257.289> 283 54<215.838 315.139> 524 59<12.3169 68.4183> 531 52<213.372 330.975>
VStem: 68.7744 143<57.5025 281.421 341.271 523.77> 334 150<70.5387 262.948> 357.774 142<368.931 504.24>
LayerCount: 2
Fore
SplineSet
209.774414062 479 m 2x2d
 209.774414062 399 l 2
 209.774414062 357 219 337 258.774414062 337 c 0
 306.774414062 337 357.774414062 362 357.774414062 438 c 0
 357.774414062 514 309.774414062 531 260.774414062 531 c 0
 211.774414062 531 209.774414062 509 209.774414062 479 c 2x2d
211.774414062 250 m 2
 211.774414062 92 l 2
 211.774414062 82.197265625 213.774414062 57 235.774414062 57 c 0
 245 57 258.774414062 53 258.774414062 34 c 0
 258.774414062 3 241.774414062 0 144.774414062 0 c 0
 46.7744140625 0 19.7744140625 5 19.7744140625 27 c 0
 19.7744140625 46 30 52 42.7744140625 52 c 0
 64.7744140625 52 68.7744140625 78 68.7744140625 100 c 2
 68.7744140625 485 l 2
 68.7744140625 510 68.7744140625 524 49.7744140625 524 c 0x76
 23.7744140625 524 10.7744140625 526 10.7744140625 552 c 0
 10.7744140625 578 33.7744140625 583 143.774414062 583 c 2
 300.774414062 583 l 2
 441 583 499.774414062 525.729492188 499.774414062 429 c 0x2d
 499.774414062 315 415.326171875 313 415.326171875 300.118164062 c 0
 415.326171875 287 484 284 484 195 c 0
 484 92 491 67 509 67 c 0
 534 67 518 113 554 113 c 0
 571 113 590 100 590 70 c 0
 590 40 564 -5 481 -5 c 0
 388 -5 334 58 334 189 c 0xae
 334 275 297.0859375 283 250 283 c 0
 221 283 211.774414063 272 211.774414062 250 c 2
EndSplineSet
EndChar

StartChar: S
Encoding: 83 83 36
Width: 416
Flags: W
HStem: -8 52<173.85 255.752> 537 61<139.822 209.669>
VStem: 32 102<334 513.166> 266 115<89.8872 269>
LayerCount: 2
Fore
SplineSet
32 422 m 0
 32 517 94 598 192 598 c 4
 290 598 322 552 322 520 c 0
 322 502 308 479 276 479 c 0
 224 479 208 537 172 537 c 0
 148 537 134 516 134 495 c 0
 134 384 381 365 381 173 c 0
 381 64 284 -8 180 -8 c 0
 76 -8 22 33 22 83 c 0
 22 113 38 135 80 135 c 0
 154 135 154 44 218 44 c 0
 246 44 266 66 266 107 c 0
 266 223 32 246 32 422 c 0
EndSplineSet
Validated: 1
EndChar

StartChar: T
Encoding: 84 84 37
Width: 532
Flags: W
HStem: 0 52<142.515 188.081 335.282 380.08> 391 21G<17.5801 84.5801 444.06 510.7> 520 44<130.747 190.024 335.498 398.344> 572 20G<49.9399 80.6001 447.68 477.12>
VStem: 191 143<57.5025 518.926>
LayerCount: 2
Fore
SplineSet
191 486 m 2
 191 512 181.799804688 520 162.48046875 520 c 0
 101.759765625 520 118 391 51.16015625 391 c 0
 -16 391 23 468 34.599609375 516 c 0
 43.7998046875 553 34 592 65.8798828125 592 c 0
 95.3203125 592 187 564 266 564 c 0
 343 564 432.959960938 592 462.400390625 592 c 0
 491.83984375 592 484.48046875 553 493.6796875 516 c 0
 506 468 544.280273438 391 477.120117188 391 c 0
 411 391 426.51953125 520 365.799804688 520 c 0
 346.48046875 520 334 511 334 485 c 2
 334 92 l 2
 334 71 336 57 358 57 c 0
 374 57 381 45 381 34 c 0
 381 -7 364 0 267 0 c 0
 169 0 142 -2 142 27 c 0
 142 34 152 52 165 52 c 0
 187 52 191 78 191 100 c 2
 191 486 l 2
EndSplineSet
Validated: 33
EndChar

StartChar: U
Encoding: 85 85 38
Width: 600
Flags: W
HStem: -14 66<272.241 421.684> 514 70<18.6848 73.1776> 524 54.8242<410.586 468 534 584.455>
VStem: 74 143<112.348 514.457> 468 66<107.837 521.479>
LayerCount: 2
Fore
SplineSet
217 514 m 2xd8
 217 226 l 2
 217 85 279 52 349 52 c 0
 419 52 468 86 468 222 c 2
 468 505 l 2
 468 535 453 524 437 524 c 0
 423 524 410 533 410 552 c 0
 410 573.443359375 424.20703125 578.82421875 444 578.82421875 c 0xb8
 463 578.82421875 480.1484375 576 499.100585938 576 c 0
 518.64453125 576 538 579.1015625 556 579.1015625 c 0
 573.102539062 579.1015625 585 569.366210938 585 551 c 0
 585 531 577 521 560 521 c 0
 548 521 534 533 534 514 c 2
 534 222.799804688 l 2
 534 38 444 -14 310 -14 c 0
 176 -14 74 31 74 226 c 2
 74 475 l 2
 74 500 71 511 55 514 c 0
 29.4453125 518.791015625 16 526 16 552 c 0
 16 566.392578125 28.6904296875 584 54 584 c 0
 75 584 99.8916015625 578 149 578 c 0
 183.80859375 578 205 584 225 584 c 0
 263.11328125 584 268 564.670898438 268 551 c 0
 268 531 259 523 247 523 c 0
 236 523 230.211914062 528 226 528 c 0
 221 528 217 524 217 514 c 2xd8
EndSplineSet
Validated: 524321
EndChar

StartChar: V
Encoding: 86 86 39
Width: 591
Flags: W
HStem: 0 21G<297.493 332> 519 62<-2.66846 64.9777 525.978 594.953>
LayerCount: 2
Fore
SplineSet
314 0 m 0
 280.985351562 0 271.543945312 33.0859375 245 94 c 2
 89 452 l 2
 67.083984375 502.293945312 53 518 29 518 c 0
 9 518 -4 532 -4 549 c 0
 -4 566 4 582 40 582 c 0
 76 582 90 577 118 577 c 0
 146 577 173 581 212 581 c 0
 251 581 264 578 264 548 c 0
 264 518 218 543 218 508 c 0
 218 490 224.497070312 471.322265625 239 437 c 2
 304.073242188 283 l 2
 319.2421875 247.102539062 333.396484375 240 342 240 c 0
 350.485351562 240 363.928710938 247.271484375 377.051757812 282 c 2
 436 438 l 2
 448.241987734 470.397065895 458 488 458 504 c 0
 458 526 401 507 401 552 c 0
 401 575.383789062 417.94140625 581.038085938 437 581 c 0
 457.87890625 580.958007812 481.499023438 574 493 574 c 0
 515 574 524 581 552 581 c 0
 580 581 596 575 596 550 c 0
 596 525 577 517 568 517 c 0
 559 517 555 519 545 519 c 0
 535 519 531.5078125 510.2109375 525 495 c 2
 383 93 l 1
 357.586914062 33.6044921875 350 0 314 0 c 0
EndSplineSet
EndChar

StartChar: W
Encoding: 87 87 40
Width: 871
Flags: W
HStem: 0 21G<297.491 331.998 577.493 612> 519 62<-2.67041 64.9757 277.331 344.977 805.978 874.953>
LayerCount: 2
Fore
SplineSet
438.763671875 227 m 2
 382.998046875 93 l 2
 358.37890625 33.841796875 349.998046875 0 313.998046875 0 c 0
 280.983398438 -0 271.541992188 33.0859375 244.998046875 94 c 2
 88.998046875 452 l 2
 67.08203125 502.293945312 52.998046875 518 28.998046875 518 c 0
 8.998046875 518 -4.001953125 532 -4.001953125 549 c 0
 -4.001953125 566 3.998046875 582 39.998046875 582 c 0
 75.998046875 582 89.998046875 577 117.998046875 577 c 0
 145.998046875 577 172.998046875 581 211.998046875 581 c 0
 250.998046875 581 263.998046875 578 263.998046875 548 c 0
 263.998046875 518 217.998046875 543 217.998046875 508 c 0
 217.998046875 486 224.0546875 467.033203125 238.999023438 437 c 2
 288.4921875 316 l 2
 316.183014579 248.301962502 330.470703125 240 337.999023438 240 c 0
 348.651367188 240 363.033203125 247.993164062 374.365234375 272 c 2
 401.271484375 329 l 2
 406.45703125 342.205078125 409.752929688 353.059570312 409.752929688 358.474609375 c 0
 409.752929688 364.237975827 404.795937411 377.357009481 398.339536843 391.999999327 c 2
 368.999023438 452 l 2
 347.083007812 502.293945312 332.999023438 518 308.999023438 518 c 0
 288.999023438 518 275.999023438 532 275.999023438 549 c 0
 275.999023438 566 283.999023438 582 319.999023438 582 c 0
 355.999023438 582 369.999023438 577 397.999023438 577 c 0
 425.999023438 577 452.999023438 581 491.999023438 581 c 0
 530.999023438 581 543.999023438 578 543.999023438 548 c 0
 543.999023438 518 497.999023438 543 497.999023438 508 c 0
 497.999023438 492 504.362304688 472.784179688 518.999023438 437 c 2
 568.4921875 316 l 2
 595.927734375 248.92578125 610.470703125 240 621.999023438 240 c 0
 633.783203125 240 649.56640625 254.036132812 671.703125 313 c 2
 713 423 l 2
 722.173828125 447.436523438 733 470 733 504 c 0
 733 525.5703125 681 507 681 552 c 0
 681 575.383789062 697.94140625 581.038085938 717 581 c 0
 737.87890625 580.958007812 761.499023438 574 773 574 c 0
 795 574 804 581 832 581 c 0
 860 581 876 575 876 550 c 0
 876 525 857 517 848 517 c 0
 839 517 835 519 825 519 c 0
 815 519 811.5078125 510.2109375 805 495 c 2
 663 93 l 1
 637.586914062 33.6044921875 630 0 594 0 c 0
 560.985351562 -0 553.102539062 34.0478515625 525 94 c 2
 462.1875 228 l 2
 457.974609375 236.98828125 455 242 450 242 c 0
 445 242 442.936523438 237.026367188 438.763671875 227 c 2
EndSplineSet
EndChar

StartChar: X
Encoding: 88 88 41
Width: 539
Flags: W
HStem: 0 62<-6.95345 61.1719 478.443 540.668> 519 62<3.33154 65.8547 435.004 510.953>
VStem: 192 137<290.328 350.5>
LayerCount: 2
Fore
SplineSet
192 309 m 0
 192 320.03515625 187.174028857 326.114983352 178 340 c 2
 95 452 l 2
 66.8701171875 494.575195312 59 518 35 518 c 0
 15 518 2 532 2 549 c 0
 2 566 10 582 46 582 c 0
 82 582 96 577 124 577 c 0
 152 577 179 581 218 581 c 0
 257 581 270 578 270 548 c 0
 270 518 230 546 230 511 c 0
 230 502 234.517578125 496.610351562 243 485 c 2
 259.073242188 463 l 2
 283.248046875 429.911132812 286.8359375 422 296 422 c 0
 306 422 310.490556956 433.127199441 332.051757812 462 c 2
 344 478 l 2
 349.862304688 485.849609375 357 494 357 504 c 0
 357 526 317 507 317 552 c 0
 317 575.383789062 333.94140625 581.038085938 353 581 c 0
 373.87890625 580.958007812 397.499023438 574 409 574 c 0
 431 574 440 581 468 581 c 0
 496 581 512 575 512 550 c 0
 512 525 493 517 484 517 c 0
 475 517 471 519 461 519 c 0
 451 519 447.156960602 515.295469722 435 498 c 2
 338 360 l 2
 331.024631973 350.076280538 329 343 329 335 c 0
 329 324 333.535080044 316.095935113 341 304 c 2
 449 129 l 2
 479.798912076 84.7978576692 485 63 509 63 c 0
 529 63 542 49 542 32 c 0
 542 15 534 -1 498 -1 c 0
 462 -1 448 4 420 4 c 0
 392 4 365 0 326 0 c 0
 287 0 274 3 274 33 c 0
 274 63 314 35 314 70 c 0
 314 79 309.482421875 84.3896484375 301 96 c 2
 264.926757812 148 l 2
 240.751953125 181.088867188 237.1640625 189 228 189 c 0
 218 189 214.346679688 178.994140625 191.948242188 149 c 2
 160 103 l 2
 154.137695312 95.150390625 147 87 147 77 c 0
 147 55 187 74 187 29 c 0
 187 5.6162109375 170.05859375 -0.0380859375 151 0 c 0
 130.12109375 0.0419921875 106.500976562 7 95 7 c 0
 73 7 64 0 36 0 c 0
 8 0 -8 6 -8 31 c 0
 -8 56 11 64 20 64 c 0
 29 64 33 62 43 62 c 0
 53 62 53.51953125 73.5712890625 63 86 c 2
 182 282 l 2
 186.181156411 288.88661056 192 298 192 309 c 0
EndSplineSet
Validated: 33
EndChar

StartChar: Y
Encoding: 89 89 42
Width: 548
Flags: W
HStem: 0.0859375 52<161.911 207.639 354.558 399.639> 519.086 62<-3.10986 63.7431 486.387 554.512>
VStem: 210.559 143<57.5884 347.215>
LayerCount: 2
Fore
SplineSet
210.55859375 297.239257812 m 2
 210.55859375 327 198.86328125 335.390625 175.811523438 363 c 2
 99 455 l 2
 57.3984375 504.828125 52.55859375 518.0859375 28.55859375 518.0859375 c 0
 8.55859375 518.0859375 -4.44140625 532.0859375 -4.44140625 549.0859375 c 0
 -4.44140625 566.0859375 3.55859375 582.0859375 39.55859375 582.0859375 c 0
 75.55859375 582.0859375 89.55859375 577.0859375 117.55859375 577.0859375 c 0
 145.55859375 577.0859375 172.55859375 581.0859375 211.55859375 581.0859375 c 0
 250.55859375 581.0859375 263.55859375 578.0859375 263.55859375 548.0859375 c 0
 263.55859375 518.0859375 230.55859375 543.0859375 230.55859375 508.0859375 c 0
 230.55859375 494.0859375 238.212890625 483.6328125 255.55859375 465.0859375 c 2
 288.55859375 429.799804688 l 2
 300.966796875 416.532226562 309.836914062 409.0859375 325.55859375 409.0859375 c 0
 341.55859375 409.0859375 351.331054688 419.283203125 359.55859375 428.762695312 c 2
 394.55859375 469.0859375 l 2
 404.366210938 480.384765625 411.55859375 488.0859375 411.55859375 504.0859375 c 0
 411.55859375 526.0859375 360.55859375 507.0859375 360.55859375 552.0859375 c 0
 360.55859375 575.469726562 377.5 581.124023438 396.55859375 581.0859375 c 0
 417.4375 581.043945312 441.057617188 574.0859375 452.55859375 574.0859375 c 0
 474.55859375 574.0859375 483.55859375 581.0859375 511.55859375 581.0859375 c 0
 539.55859375 581.0859375 555.55859375 575.0859375 555.55859375 550.0859375 c 0
 555.55859375 525.0859375 536.55859375 517.0859375 527.55859375 517.0859375 c 0
 518.55859375 517.0859375 514.55859375 519.0859375 504.55859375 519.0859375 c 0
 494.55859375 519.0859375 495.455078125 509.823242188 484.55859375 495.0859375 c 2
 383.94140625 359 l 2
 373.779296875 345.255859375 353.55859375 329.184570312 353.55859375 298 c 2
 353.55859375 92.0859375 l 2
 353.55859375 68 355.55859375 57.0859375 377.55859375 57.0859375 c 0
 393.55859375 57.0859375 400.55859375 45.0859375 400.55859375 34.0859375 c 0
 400.55859375 -6.9140625 383.55859375 0.0859375 286.55859375 0.0859375 c 0
 188.55859375 0.0859375 161.55859375 -1.9140625 161.55859375 27.0859375 c 0
 161.55859375 34.0859375 162.55859375 52.0859375 184.55859375 52.0859375 c 0
 206.55859375 52.0859375 210.55859375 78.0859375 210.55859375 100.0859375 c 2
 210.55859375 297.239257812 l 2
EndSplineSet
EndChar

StartChar: Z
Encoding: 90 90 43
Width: 500
Flags: W
HStem: 0 56<200.956 366.396> 525 57<172.527 295.068>
LayerCount: 2
Fore
SplineSet
306 56 m 2
 330 56 343.806640625 58.931640625 370 80 c 0
 416 117 410 149 456 149 c 0
 468 149 486 141 486 120 c 0
 486 99 470 87 454 52 c 0
 438 17 441 -23 396 -23 c 0
 355 -23 361 0 339 0 c 10
 38 0 l 2
 22.3377871339 0 13.3383935309 8.18047061842 13.3383935309 22.0000011983 c 0
 13.3383935309 33 16.9489076809 42.6981952989 25 56 c 10
 288 489 l 10
 305.579101562 518.043945312 296 525 266 525 c 10
 195 525 l 10
 170 525 142 421 81 421 c 0
 54 421 49 435 49 448 c 0
 49 469 68 499 86 538 c 0
 104 577 111 598 132 598 c 0
 153 598 145 582 216 582 c 10
 404 582 l 10
 463 582 468 574 468 556 c 0
 468 538 457.482421875 516.3203125 426 464 c 10
 211 100 l 2
 187.600585938 62.4521484375 207 56 236 56 c 2
 306 56 l 2
EndSplineSet
Validated: 33
EndChar

StartChar: a
Encoding: 97 97 44
Width: 419
Flags: W
HStem: -4 70<297.5 396.162> 30 38<199.787 228.911> 230 49<152.847 226.818> 230 36<159.671 230.213> 340 52<146.401 226.217>
VStem: 5 133<78.4285 214.028> 238 125<89.1989 330.338> 238 112<74.5308 223.063>
LayerCount: 2
Fore
SplineSet
193 230 m 0x6e
 149 230 138 187 138 145 c 0
 138 103 151 68 191 68 c 0
 224 68 238 93 238 117 c 2
 238 176 l 2
 238 207 229 230 193 230 c 0x6e
94 289 m 0
 73 289 62 308 62 328 c 0
 62 364 134 392 190 392 c 0
 322 392 363 326 363 246 c 0x1e
 363 175 350 113 350 88 c 0
 350 76 355 66 364 66 c 0
 376 66 376 85 400 85 c 0
 413 85 423 76 423 62 c 0
 423 33 386 -4 327 -4 c 0x9d
 268 -4 262 30 240 30 c 4x4d
 218 30 197 -4 137 -4 c 0
 92 -4 5 21 5 140 c 0
 5 248 110 279 158 279 c 0xad
 194 279 207 266 222 266 c 0x1d
 230 266 235 274 235 289 c 0
 235 311 225 340 186 340 c 0
 147 340 141 289 94 289 c 0
EndSplineSet
EndChar

StartChar: b
Encoding: 98 98 45
Width: 485
Flags: W
HStem: -8 50<188.719 277.343> 0 59<11.5469 49.8438> 340 31<200.245 235.605> 561 49<4.14755 49.9412>
VStem: 50 128<59.2046 324.125 371.011 560.725> 322 134<110.262 304.506>
LayerCount: 2
Fore
SplineSet
182 106 m 2xbc
 182 56 196 42 229 42 c 0
 262 42 322 76 322 201 c 0
 322 326 269 340 239 340 c 0
 209 340 182 319 182 276 c 2
 182 106 l 2xbc
4 586 m 0
 4 624 55 610 96 610 c 0
 146 610 178 627 178 584 c 2
 178 402 l 2
 178 386 183 371 198 371 c 0
 218 371 240 400 301 400 c 0
 344 400 456 371 456 213 c 0
 456 42 322 -8 234 -8 c 0xbc
 176 -8 136 3 111 3 c 0
 93 3 77 0 55 0 c 0
 16 0 10 19 10 32 c 0
 10 45 19 59 33 59 c 0x7c
 47 59 50 60 50 91 c 2
 50 536 l 2
 50 558 45 561 34 561 c 0
 23 561 4 555 4 586 c 0
EndSplineSet
Validated: 33
EndChar

StartChar: c
Encoding: 99 99 46
Width: 397
Flags: W
HStem: -12 59<192.387 294.369> 332 60<192.172 269.903>
VStem: 16 142<91.4725 275.731>
LayerCount: 2
Fore
SplineSet
16 193 m 0
 16 304 121 392 227 392 c 0
 350 392 371 335 371 312 c 0
 371 292 353 272 329 272 c 0
 272 272 280 332 234 332 c 0
 200 332 158 293 158 185 c 0
 158 97 185 47 244 47 c 0
 303 47 309 108 356 108 c 0
 374 108 385 96 385 78 c 0
 385 34 308 -12 231 -12 c 0
 134 -12 16 32 16 193 c 0
EndSplineSet
Validated: 1
EndChar

StartChar: d
Encoding: 100 100 47
Width: 509
Flags: W
HStem: 31.1104 21.8896<281 285.015> 344 56<189.319 284.859> 552 47<248.394 306.555>
VStem: 17 143<97.1522 291.827> 307 126<63.7178 330.899 374.009 551.852>
LayerCount: 2
Fore
SplineSet
160 213 m 0
 160 128 182 53 248 53 c 0
 309 53 310 109 310 152 c 2
 310 262 l 2
 310 302 303 344 237 344 c 0
 173 344 160 272 160 213 c 0
17 196 m 0
 17 328 120 400 211 400 c 0
 269 400 283 374 295 374 c 0
 307 374 307 387 307 397 c 2
 307 517 l 2
 307 538 305 552 292 552 c 0
 285.470703125 552 279.841796875 546 270 546 c 0
 259 546 248 557 248 573 c 0
 248 609 309 599 350 599 c 0
 426 599 433 590 433 550 c 2
 433 84 l 2
 433 38 486 63 486 35 c 0
 486 -12 431 9 393 9 c 0
 368 9 351 4 332 4 c 0
 313 4 313 31.1103515625 298.987304688 31.1103515625 c 0
 281 31.1103515625 273 -7 202 -7 c 0
 78 -7 17 92 17 196 c 0
EndSplineSet
Validated: 524321
EndChar

StartChar: e
Encoding: 101 101 48
Width: 397
Flags: W
HStem: -8 59<190.435 299.599> 227 51<175.383 279.994> 341 51<185.518 272.591>
VStem: 13 145<100.349 221.985> 280 106<248.5 324.857>
LayerCount: 2
Fore
SplineSet
226 341 m 0
 200.28515625 341 175 321 175 296 c 0
 175 284.008789062 184.999023438 278 197 278 c 2
 255 278 l 2
 272 278 280 283 280 296 c 0
 280 324 254.705078125 341 226 341 c 0
229 -8 m 0
 58 -8 13 118 13 192 c 0
 13 266 66 392 223 392 c 0
 354 392 386 299 386 257 c 0
 386 240 372 227 344 227 c 2
 204 227 l 2
 172 227 158 211 158 173 c 0
 158 101 184 51 248 51 c 0
 307 51 309 108 356 108 c 0
 374 108 385 96 385 78 c 0
 385 34 306 -8 229 -8 c 0
EndSplineSet
EndChar

StartChar: f
Encoding: 102 102 49
Width: 299
Flags: W
HStem: 1 51<24.2154 76.992 203.35 258.274> 328 51<31.4251 75.9349 206.615 261.442> 541 71<200.088 277.262>
VStem: 77 126<54.125 322.763>
LayerCount: 2
Fore
SplineSet
240 612 m 0
 271 612 300 598 300 563 c 4
 300 545.052734375 286.892578125 528 264 528 c 0
 241 528 238 541 219 541 c 0
 202.01953125 541 195.1484375 519.08203125 194 472 c 0
 192 390 190 379 216 379 c 0
 227 379 249 384 258 384 c 0
 267 384 284 379 284 354 c 0
 284 329 278 321 262 321 c 0
 250 321 244 328 233 328 c 0
 214 328 203 317 203 274 c 2
 203 80 l 2
 203 64 209 52 219 52 c 0
 229 52 233 57 243 57 c 0
 253 57 259 48 259 28 c 0
 259 8 231 1 209 1 c 0
 187 1 155 7 132 7 c 0
 109 7 93 0 64 0 c 0
 35 0 24 0 24 29 c 0
 24 58 36 54 51 54 c 0
 66 54 77 52 77 75 c 2
 77 287 l 2
 77 326 72 323 59 323 c 0
 53.4345703125 323 40 320 31 320 c 0
 21.8486328125 320 17 331.26953125 17 353 c 0
 17 391 52.607421875 379 61 379 c 0
 81 379 85.8465585405 391.175580969 96 454 c 0
 112 553 175 612 240 612 c 0
EndSplineSet
Validated: 524321
EndChar

StartChar: g
Encoding: 103 103 50
Width: 431
Flags: W
HStem: -143 41.7998<178.191 275.589> -13.04 33.04<180.193 251.45> 338 55<173.396 257.802>
VStem: 14 134<143.555 294.705> 128 44.1426<-94.6149 -30.6261> 138 29<40 74> 229 82<378.031 456> 283.383 118.617<-93.9987 -20.9981> 284 129<171.427 310.955>
LayerCount: 2
Fore
SplineSet
334 373 m 0xe2
 361 359 336.000090492 321.00017646 297 341 c 0
 279.47265625 349.98828125 229 384 229 432 c 0
 229 480 263 500 300 500 c 0
 337 500 370 482 370 450 c 0
 370 399 311 421 311 398 c 0
 311 387 321.44509739 379.509949501 334 373 c 0xe2
EndSplineSet
Refer: 74 -1 N 1 0 0 1 0 0 2
Validated: 524325
EndChar

StartChar: h
Encoding: 104 104 51
Width: 477
Flags: W
HStem: 0 48<14.2109 53.644 177 216.968 275.246 311.814 431.404 471.381> 324 41<184.932 237.69> 543 52<5.28495 53.677>
VStem: 54 123<50.5895 314.21 365.008 542.897> 312 119<47.8379 301.706>
LayerCount: 2
Fore
SplineSet
5 566 m 4
 5 577 5 595 39 595 c 6
 152 595 l 6
 162 595 177.771484375 587.99609375 178.108398438 562 c 6
 178.108398438 392 l 2
 178.108398438 375.7890625 179 365 187 365 c 0
 201 365 220 392 297 392 c 0
 374 392 431 338 431 248 c 2
 431 78 l 2
 431 54 440 48 449 48 c 0
 458 48 472 45 472 28 c 0
 472 11 461 -1 436 -1 c 0
 411 -1 390 6 367 6 c 0
 344 6 336 1 312 1 c 0
 288 1 275 8 275 26 c 0
 275 44 282 47 292 47 c 0
 307 47 312 56 312 76 c 2
 312 225 l 2
 312 306 272 324 236 324 c 0
 200 324 177.180664062 301.040039062 177 288 c 2
 177 66 l 2
 177 55.98828125 179 48 192 48 c 0
 206 48 217 37 217 25 c 0
 217 13 218 0 181 0 c 0
 144 0 130 4 114 4 c 0
 98 4 98 0 59 0 c 0
 20 0 14 10 14 26 c 0
 14 42 22 51 38 51 c 0
 54 51 54 70 54 79 c 2
 54 513 l 6
 54 541 45 543 27 543 c 4
 9 543 5 555 5 566 c 4
EndSplineSet
Validated: 524321
EndChar

StartChar: i
Encoding: 105 105 52
Width: 218
Flags: W
HStem: 0 21G<41 63 170 196> 334 52<5.8253 56> 422.495 133.935<76.8826 139.905>
VStem: 56 117<51.9936 333.997>
LayerCount: 2
Fore
SplineSet
32.7880859375 468.924804688 m 0
 32.7880859375 514.4609375 93.5673828125 556.4296875 138.721679688 556.4296875 c 0
 171 556.4296875 184 535.536132812 184 510 c 0
 184 464.462890625 123.220703125 422.495117188 78.06640625 422.495117188 c 0
 39 422.495117188 32.7880859375 443.387695312 32.7880859375 468.924804688 c 0
5 355 m 0
 5 379 18 386 35 386 c 0
 52 386 64 380 89 380 c 0
 117 380 127 382 141 382 c 0
 165.591796875 382 173 376.724609375 173 348 c 2
 173 73 l 2
 173 39 221 62 221 30 c 0
 221 6 209 0 183 0 c 0
 157 0 145 4 117 4 c 0
 89 4 74 0 52 0 c 0
 30 0 10 0 10 25 c 0
 10 69 56 37 56 70 c 2
 56 316 l 2
 56 330 51 334 44 334 c 0
 37 334 33 329 23 329 c 0
 15 329 5 337 5 355 c 0
EndSplineSet
Validated: 1
EndChar

StartChar: j
Encoding: 106 106 53
Width: 245
Flags: W
HStem: -140 71<-41.2616 37.5643> 422.495 133.935<86.8826 149.905>
VStem: 56 117<-36.7821 330.765>
LayerCount: 2
Fore
SplineSet
56 310 m 2
 56 344 10 322 10 354 c 0
 10 378 22 384 48 384 c 0
 74 384 86 380 114 380 c 0
 142 380 157 384 179 384 c 0
 201 384 221 384 221 359 c 0
 221 315 173 345 173 312 c 2
 173 65 l 2
 173 -69 81 -140 -4 -140 c 0
 -35 -140 -64 -124 -64 -91 c 0
 -64 -73.052734375 -50.892578125 -56 -28 -56 c 0
 -5 -56 -2 -69 17 -69 c 0
 33.98046875 -69 56 -29 56 40 c 2
 56 310 l 2
42.7880859375 468.924804688 m 0
 42.7880859375 514.4609375 103.567382812 556.4296875 148.721679688 556.4296875 c 0
 181 556.4296875 194 535.536132812 194 510 c 0
 194 464.462890625 133.220703125 422.495117188 88.06640625 422.495117188 c 0
 49 422.495117188 42.7880859375 443.387695312 42.7880859375 468.924804688 c 0
EndSplineSet
Validated: 524289
EndChar

StartChar: k
Encoding: 107 107 54
Width: 487
Flags: W
HStem: 0 50<407.747 440.443> 310 77<348.605 434.165> 539 48<30.693 73.6367>
VStem: 74 119<53.931 208.997 253.809 538.993>
LayerCount: 2
Fore
SplineSet
8 559 m 4
 8 580 30 587 50 587 c 4
 70 587 87 582 102 582 c 4
 117 582 132 587 149 587 c 4
 192 587 193 561 193 540 c 6
 193 278 l 6
 193 248 199.290039062 240.030273438 223 260 c 6
 351 367.80859375 l 6
 368.0546875 382.172851562 388.911132812 387 404 387 c 4
 453 387 472 359 472 334 c 4
 472 309 458 287 423 287 c 4
 384 287 374 310 355 310 c 4
 333 310 323 293 323 278 c 4
 323 258.97265625 328.228469165 246.433572648 334.330078125 233 c 6
 406.548828125 74 l 6
 413.037109375 59.71484375 418 50 421 50 c 4
 425 50 429 57 441 57 c 4
 453 57 468 53 468 31 c 4
 468 9 442 0 423 0 c 4
 404 0 393 5 365 5 c 4
 337 5 327 0 301 0 c 4
 275 0 257 0 257 24 c 4
 257 57 293.900390625 41.9599609375 288 56 c 6
 230 194 l 6
 224.755859375 206.477539062 219 209 214 209 c 4
 209 209 197 205 197 187 c 6
 197 66 l 6
 197 49.8740234375 242 58 242 29 c 4
 242 9 231 0 200 0 c 4
 169 0 151 6 130 6 c 4
 109 6 84 0 66 0 c 4
 48 0 33 4 33 23 c 4
 33 50 74 47 74 62 c 6
 74 511 l 6
 74 529 66 539 56 539 c 4
 46 539 45 531 30 531 c 4
 15 531 8 538 8 559 c 4
EndSplineSet
EndChar

StartChar: l
Encoding: 108 108 55
Width: 237
Flags: W
HStem: 0 21G<40 62 178 204> 548 52<4.8253 55>
VStem: 55 126<51.9936 547.997>
LayerCount: 2
Fore
SplineSet
4 569 m 4
 4 593 17 600 34 600 c 4
 51 600 63 594 88 594 c 4
 116 594 135 596 149 596 c 4
 173.591796875 596 181 590.724609375 181 562 c 6
 181 73 l 2
 181 39 229 62 229 30 c 0
 229 6 217 0 191 0 c 0
 165 0 153 4 125 4 c 0
 97 4 73 0 51 0 c 0
 29 0 9 0 9 25 c 0
 9 69 55 37 55 70 c 2
 55 530 l 6
 55 544 50 548 43 548 c 4
 36 548 32 543 22 543 c 4
 14 543 4 551 4 569 c 4
EndSplineSet
Validated: 524289
EndChar

StartChar: m
Encoding: 109 109 56
Width: 745
Flags: W
HStem: 0 48<14.2109 53.644 177 216.968 275.246 311.814 431.625 471.381 525.246 561.814 681.404 721.381> 324 68<218.567 338 452.314 585.5> 333 52<5.28495 53.677>
VStem: 54 123<50.5895 314.21> 312 119<47.8379 301.771> 562 119<47.8379 298.237>
LayerCount: 2
Fore
SplineSet
431 278 m 2xdc
 431 78 l 2
 431 58 440 48 449 48 c 0
 458 48 472 45 472 28 c 0
 472 11 461 -1 436 -1 c 0
 411 -1 390 6 367 6 c 0
 344 6 336 1 312 1 c 0
 288 1 275 8 275 26 c 0
 275 44 282 47 292 47 c 0
 307 47 312 56 312 76 c 2
 312 225 l 2
 312 306 272 324 236 324 c 0xdc
 200 324 177.180664062 301.040039062 177 288 c 2
 177 66 l 2
 177 55.98828125 179 48 192 48 c 0
 206 48 217 37 217 25 c 0
 217 13 218 0 181 0 c 0
 144 0 130 4 114 4 c 0
 98 4 98 0 59 0 c 0
 20 0 14 10 14 26 c 0
 14 42 22 51 38 51 c 0
 54 51 54 70 54 79 c 2
 54 303 l 2
 54 331 45 333 27 333 c 0
 9 333 5 345 5 356 c 0
 5 367 5 385 39 385 c 2
 170 385 l 2xbc
 182 385 170 346 184 346 c 0
 198 346 220 392 297 392 c 0
 379 392 395 348 413 348 c 0
 435 348 448 392 547 392 c 0
 624 392 681 338 681 248 c 2
 681 78 l 2
 681 54 690 48 699 48 c 0
 708 48 722 45 722 28 c 0
 722 11 711 -1 686 -1 c 0
 661 -1 640 6 617 6 c 0
 594 6 586 1 562 1 c 0
 538 1 525 8 525 26 c 0
 525 44 532 47 542 47 c 0
 557 47 562 56 562 76 c 2
 562 225 l 2
 562 306 519 321 483 321 c 0
 447 321 431 291 431 278 c 2xdc
EndSplineSet
Validated: 33
EndChar

StartChar: n
Encoding: 110 110 57
Width: 487
Flags: W
HStem: 0 48<14.2109 53.644 177 216.968 275.246 311.814 431.404 471.381> 333 52<5.28495 53.677>
VStem: 54 123<50.5895 314.21> 312 119<47.8379 301.706>
LayerCount: 2
Fore
SplineSet
5 356 m 0
 5 367 5 385 39 385 c 2
 170 385 l 2
 182 385 170 346 184 346 c 0
 198 346 220 392 297 392 c 0
 374 392 431 338 431 248 c 2
 431 78 l 2
 431 54 440 48 449 48 c 0
 458 48 472 45 472 28 c 0
 472 11 461 -1 436 -1 c 0
 411 -1 390 6 367 6 c 0
 344 6 336 1 312 1 c 0
 288 1 275 8 275 26 c 0
 275 44 282 47 292 47 c 0
 307 47 312 56 312 76 c 2
 312 225 l 2
 312 306 272 324 236 324 c 0
 200 324 177.180664062 301.040039062 177 288 c 2
 177 66 l 2
 177 55.98828125 179 48 192 48 c 0
 206 48 217 37 217 25 c 0
 217 13 218 0 181 0 c 0
 144 0 130 4 114 4 c 0
 98 4 98 0 59 0 c 0
 20 0 14 10 14 26 c 0
 14 42 22 51 38 51 c 0
 54 51 54 70 54 79 c 2
 54 303 l 2
 54 331 45 333 27 333 c 0
 9 333 5 345 5 356 c 0
EndSplineSet
Validated: 33
EndChar

StartChar: o
Encoding: 111 111 58
Width: 456
Flags: W
HStem: -5 51<181.641 265.155> 353 46<176.972 268.552>
VStem: 16.5 132<103.95 289.483> 296.5 143<105.896 289.886>
LayerCount: 2
Fore
SplineSet
148.5 203.91015625 m 0
 148.5 86.0546875 183.5 46 224.5 46 c 0
 265.5 46 296.5 86.0546875 296.5 203.91015625 c 0
 296.5 321.764648438 263.5 353 222.5 353 c 0
 181.5 353 148.5 321.764648438 148.5 203.91015625 c 0
16.5 197 m 0
 16.5 317 106.5 399 225.5 399 c 4
 344.5 399 439.5 318 439.5 198 c 0
 439.5 78 344.5 -5 225.5 -5 c 0
 106.5 -5 16.5 77 16.5 197 c 0
EndSplineSet
Validated: 1
EndChar

StartChar: p
Encoding: 112 112 59
Width: 504
Flags: W
HStem: -114 21G<59 81 188 214> 14 30<207.074 233.384> 335 28<198.475 211> 364 20G<156.5 175.5>
VStem: 65 123<-62.0064 13.9912 56.1478 322.398> 338 143<93.0017 292.272>
LayerCount: 2
Fore
SplineSet
338 185 m 0
 338 270 310.870117188 335 252.459960938 335 c 0
 198.474609375 335 188 299 188 256 c 2
 188 136 l 2
 188 85 192.280273438 44 253.344726562 44 c 0
 309.985351562 44 338 126 338 185 c 0
191 -41 m 2
 191 -75 239 -52 239 -84 c 0
 239 -108 227 -114 201 -114 c 0
 175 -114 163 -110 135 -110 c 0
 107 -110 92 -114 70 -114 c 0
 48 -114 28 -114 28 -89 c 0
 28 -45 65 -77 65 -44 c 2
 65 304 l 2
 65 350 12 306 12 353 c 0
 12 400 80 379 105 379 c 0
 130 379 147 384 166 384 c 0
 185 384 184 363 196 363 c 0
 211 363 215 395 296 395 c 0
 420 395 481 306 481 188 c 0
 481 70 408 -12 287 -12 c 0
 234 -12 215 14 203 14 c 0
 191 14 191 2 191 -18 c 2
 191 -41 l 2
EndSplineSet
Validated: 33
EndChar

StartChar: q
Encoding: 113 113 60
Width: 470
Flags: W
HStem: -110 49<415.114 462.839> 24 30<261.846 280.042> 333 51<414.012 463.457> 336 28<253.125 275.25>
VStem: 10 142<96.8806 292.012> 292 122<-60.9209 23.9883 60.4688 327.207>
LayerCount: 2
Fore
SplineSet
243 54 m 0xdc
 290 54 292 94 292 108 c 2
 292 260 l 2
 292 326 265 336 239 336 c 0
 213 336 152 317 152 200 c 0
 152 83 196 54 243 54 c 0xdc
10 204 m 0
 10 333 126 392 186 392 c 0
 246 392 273 364 282 364 c 0xdc
 291 364 291 386 305 386 c 0
 319 386 350 380 362 380 c 0
 374 380 385 384 414 384 c 0
 443 384 464 380 464 356 c 0
 464 332 434 333 426 333 c 0xec
 418 333 414 331 414 310 c 2
 414 -23 l 2
 414 -59 425 -61 440 -61 c 0
 455 -61 463 -66 463 -85 c 0
 463 -104 449 -110 434 -110 c 0
 419 -110 407 -107 377 -107 c 0
 347 -107 329 -108 314 -108 c 0
 299 -108 290 -103 290 -82 c 2
 290 -14 l 2
 290 8 290 24 282 24 c 0
 274 24 254 -12 189 -12 c 0
 88 -12 10 75 10 204 c 0
EndSplineSet
Validated: 33
EndChar

StartChar: r
Encoding: 114 114 61
Width: 366
Flags: W
HStem: 0 49<15.132 62.1861 180.831 229.617> 279 110<261.133 343.717> 308 38<198.426 221.537> 330 54<2.38281 62.5906>
VStem: 63 117<49.0948 292.819>
LayerCount: 2
Fore
SplineSet
2 355 m 0x98
 2 378 10 384 30 384 c 0x98
 50 384 73 378 96 378 c 0
 119 378 131 381 157 381 c 0
 196 381 171 346 191 346 c 0xa8
 211 346 231 389 287 389 c 0
 329 389 358 367 358 329 c 0
 358 309 345 279 309 279 c 0xc8
 269 279 269 308 237 308 c 0xa8
 205 308 182 282 182 227 c 0
 182 172 180 121 180 92 c 0
 180 63 182 48 202 48 c 0
 222 48 230 38 230 27 c 0
 230 16 226 0 198 0 c 0
 170 0 142 3 118 3 c 0
 94 3 66 0 44 0 c 0
 22 0 15 11 15 25 c 0
 15 39 16 49 39 49 c 0
 62 49 63 66 63 90 c 2
 63 295 l 2
 63 316 62 330 41 330 c 0
 20 330 2 331.913085938 2 355 c 0x98
EndSplineSet
EndChar

StartChar: s
Encoding: 115 115 62
Width: 307
Flags: W
HStem: -3 55<128.336 195.154> 347 52<110.039 170.822>
VStem: 17.8682 92<209.5 344.864> 196.868 94<54.6889 202.5>
LayerCount: 2
Fore
SplineSet
22.8681640625 79 m 4
 22.8681640625 100 34 118 61.8681640625 118 c 4
 115.868164062 118 120.868164062 52 167.868164062 52 c 4
 185.868164062 52 196.868164062 66 196.868164062 82 c 4
 196.868164062 138 17.8681640625 136 17.8681640625 283 c 4
 17.8681640625 349 83.8681640625 399 149.868164062 399 c 4
 215.868164062 399 249.58984375 372.150390625 249.58984375 342.044921875 c 4
 249.58984375 323.08984375 236.209960938 305.25 213.91015625 305.25 c 4
 176 305.25 161.868164062 347 133.868164062 347 c 4
 119.868164062 347 109.868164062 340 109.868164062 328 c 4
 109.868164062 264 290.868164062 284 290.868164062 121 c 4
 290.868164062 44 217.868164062 -3 149.868164062 -3 c 4
 85 -3 22.8681640625 35 22.8681640625 79 c 4
EndSplineSet
Validated: 524289
EndChar

StartChar: t
Encoding: 116 116 63
Width: 261
Flags: W
HStem: 1 51<10.6305 63.407 185.765 240.689> 321 63<206.93 252.856> 325.48 69.5195<12.9064 63.0352> 328 51<185.96 231.036>
VStem: 63.415 122<54.125 327.992> 103.415 76<413.796 515.271>
LayerCount: 2
Fore
SplineSet
149.415039062 564 m 0xa4
 180.415039062 564 188.415039062 548 188.415039062 517 c 0
 188.415039062 480 179.415039062 450 179.415039062 419 c 0
 179.415039062 403 180.415039062 379 206.415039062 379 c 0x94
 217.415039062 379 227.415039062 384 236.415039062 384 c 0
 245.415039062 384 253.415039062 379 253.415039062 354 c 0
 253.415039062 329 247.415039062 321 231.415039062 321 c 0xc4
 223.415039062 321 210.415039062 328 202.415039062 328 c 0
 183.415039062 328 185.415039062 317 185.415039062 274 c 2
 185.415039062 80 l 2
 185.415039062 64 191.415039062 52 201.415039062 52 c 0
 211.415039062 52 215.415039062 57 225.415039062 57 c 0
 235.415039062 57 241.415039062 48 241.415039062 28 c 0
 241.415039062 8 213.415039062 1 191.415039062 1 c 0
 169.415039062 1 141.415039062 7 118.415039062 7 c 0
 95.4150390625 7 79.4150390625 0 50.4150390625 0 c 0
 21.4150390625 0 10.4150390625 0 10.4150390625 29 c 0
 10.4150390625 58 22.4150390625 54 37.4150390625 54 c 0
 52.4150390625 54 63.4150390625 52 63.4150390625 75 c 2
 63.4150390625 287 l 2
 63.4150390625 326 59.4150390625 328 46.4150390625 328 c 0x98
 40.849609375 328 35.4150390625 325.48046875 26.4150390625 325.48046875 c 0
 17.263671875 325.48046875 9.4150390625 330.26953125 9.4150390625 352 c 0
 9.4150390625 390 29.59375 384.096679688 51.2529296875 395 c 0
 76.3408203125 407.629882812 103.415039062 422.286132812 103.415039062 462 c 0
 103.415039062 536 109.415039062 564 149.415039062 564 c 0xa4
EndSplineSet
Validated: 33
EndChar

StartChar: u
Encoding: 117 117 64
Width: 465
Flags: W
HStem: 0 57<406 453.645> 31 30<250.621 262> 329 60<-1.26193 45 231.738 280>
VStem: 45 119<77.1641 329.559> 280 126<74.2891 329.726>
LayerCount: 2
Fore
SplineSet
406 364 m 6x78
 406 72 l 2
 406 44 415 57 433 57 c 0
 451 57 455 40 455 29 c 0
 455 18 445 0 411 0 c 2
 307 0 l 2xb8
 277 0 284 31 270 31 c 0
 256 31 250 -7 173 -7 c 0
 96 -7 45 47 45 137 c 2
 45 310 l 6
 45 341 28 329 19 329 c 4
 5 329 -3 339 -3 356 c 4
 -3 373 7 389 34 389 c 4
 59 389 80 386 103 386 c 4
 126 386 137 387 148 387 c 4
 161 387 164 378 164 361 c 6
 164 160 l 2
 164 134.012695312 164 61 224 61 c 0
 262 61 280 100 280 118 c 2
 280 313 l 6
 280 340 263 329 252 329 c 4
 238 329 230 339 230 356 c 4
 230 373 240 389 267 389 c 4
 292 389 318 386 341 386 c 4
 364 386 375 387 386 387 c 4
 399 387 406 381 406 364 c 6x78
EndSplineSet
Validated: 524321
EndChar

StartChar: v
Encoding: 118 118 65
Width: 457
Flags: W
HStem: 326 61<9.83293 64.5127> 334 52<198.567 229.717 283.713 320.25 392.673 448.271>
LayerCount: 2
Fore
SplineSet
8 359 m 0x80
 8 384 30 387 51 387 c 0x80
 72 387 64 383 108 383 c 0
 152 383 172 386 190 386 c 0
 208 386 230 386 230 361 c 0
 230 336 214 334 202 334 c 0x40
 185.96875 334 195.538085938 320.225585938 204 300 c 2
 235 212 l 2
 243.966796875 190.567382812 249 184 259 184 c 0
 269 184 272.369140625 192.73046875 281 212 c 2
 314 298 l 2
 324.418945312 321.260742188 329.396484375 336 315 336 c 0
 292 336 283 346 283 363 c 0
 283 380 299 387 312 387 c 0x80
 325 387 364 381 381 381 c 0
 398 381 407 384 422 384 c 0
 437 384 449 378 449 356 c 0
 449 344 441 334 421 334 c 0x40
 397 334 389.883789062 306.645507812 378 277 c 2
 265 25 l 2
 253.530273438 -3.61328125 241 -16 227 -16 c 0
 213 -16 204.112304688 -7.46484375 188 26 c 2
 71 289 l 2
 59.9189453125 312.015625 61 326 45 326 c 0
 29 326 8 334 8 359 c 0x80
EndSplineSet
Validated: 33
EndChar

StartChar: w
Encoding: 119 119 66
Width: 677
Flags: W
HStem: 326 61<9.83293 64.5127> 334 52<189.794 225.786 236.676 283.491 408.567 439.717 503.713 540.25 612.673 668.271>
LayerCount: 2
Fore
SplineSet
8 359 m 0x80
 8 384 30 387 51 387 c 0x80
 72 387 64 383 108 383 c 0
 152 383 172 386 190 386 c 0
 208 386 226 386 226 361 c 0
 226 336 214 334 202 334 c 0x40
 185.96875 334 185.538085938 320.225585938 194 300 c 2
 235 212 l 2
 243.966796875 190.567382812 249 184 259 184 c 0
 269 184 274.808387406 193.510681865 286 212 c 2
 299.921935034 234.999999664 l 2
 303.31992264 241.679828182 306 248.404878425 306 253 c 0
 306 258.663715361 304.074777228 265.714261117 301.835181819 271.999999686 c 2
 295 288 l 2
 285.301839774 310.701746751 276.0078125 332.049804688 261.594726562 332.049804688 c 0
 247.181640625 332.049804688 236.37109375 339.255859375 236.37109375 361.77734375 c 0
 236.37109375 384.297851562 248.08203125 387 267 387 c 0x80
 285.916992188 387 296 383 328 383 c 0
 372 383 382 386 400 386 c 0
 418 386 440 386 440 361 c 0
 440 336 424 334 412 334 c 0x40
 395.96875 334 405.538085938 320.225585938 414 300 c 2
 455 212 l 2
 463.966796875 190.567382812 469 184 479 184 c 0
 489 184 492.369140625 192.73046875 501 212 c 2
 534 298 l 2
 544.418945312 321.260742188 549.396484375 336 535 336 c 0
 512 336 503 346 503 363 c 0
 503 380 519 387 532 387 c 0x80
 545 387 584 381 601 381 c 0
 618 381 627 384 642 384 c 0
 657 384 669 378 669 356 c 0
 669 344 661 334 641 334 c 0x40
 617 334 609.883789062 306.645507812 598 277 c 2
 485 25 l 2
 473.530273438 -3.61328125 461 -16 447 -16 c 0
 433 -16 424.112304688 -7.46484375 408 26 c 2
 351.946289062 152 l 2
 347.919921875 161.05078125 345 168 338 168 c 0
 331 168 326.436523438 162.009765625 321.948242188 152 c 2
 265 25 l 2
 253.530273438 -3.61328125 241 -16 227 -16 c 0
 213 -16 204.112304688 -7.46484375 188 26 c 2
 71 289 l 2
 59.9189453125 312.015625 61 326 45 326 c 0
 29 326 8 334 8 359 c 0x80
EndSplineSet
Validated: 33
EndChar

StartChar: x
Encoding: 120 120 67
Width: 464
Flags: W
HStem: 0 60<393.579 465.2> 0 50<-2.58111 63.9003 132.883 162.828 225.183 257.486> 326 61<19.8329 89.407> 334 52<221.333 239.847 262.183 285.424 350.545 427.271>
VStem: 156.834 147.026<182.047 240.188>
LayerCount: 2
Fore
SplineSet
18 359 m 0x68
 18 384 40 387 61 387 c 0x68
 82 387 74 383 118 383 c 0
 162 383 182 386 200 386 c 0
 218 386 240 386 240 361 c 0
 240 336 234 334 228 334 c 0x18
 211.96875 334 217.229492188 319.166992188 223.255859375 309 c 2
 226.8125 303 l 2
 237.883638748 284.323153085 241.669921875 274 251.669921875 274 c 0
 261.669921875 274 265.818067472 278.61596238 276.369140625 297 c 2
 282.108398438 307 l 2
 295.842773438 329.177734375 288.396484375 336 274 336 c 0
 264 336 262 346 262 363 c 0
 262 380 278 387 291 387 c 0x28
 304 387 343 381 360 381 c 0
 377 381 386 384 401 384 c 0
 416 384 428 378 428 356 c 0
 428 344 420 334 400 334 c 0
 376 334 362.212727923 333.725062567 347 307 c 2
 310 242 l 2
 306.437772334 235.742032479 303.860351562 230.129882812 303.860351562 224 c 0
 303.860351562 217 305.767262686 211.813265305 311 204 c 2
 384 95 l 2
 402.057001743 68.0381754794 414 60 430 60 c 0
 446 60 467 52 467 27 c 0
 467 2 449 0 428 0 c 0x98
 407 0 401 3 357 3 c 0
 313 3 283 0 265 0 c 0
 247 0 225 0 225 25 c 0
 225 50 241 52 253 52 c 0
 269.03125 52 257.303030043 73.5862981894 251 84 c 2
 228 122 l 2
 216.04565838 141.750651372 208 152 198 152 c 0
 188 152 180.960649087 144.978093306 168 126 c 2
 140 85 l 2
 120.419150416 56.3280416808 136.603515625 48 151 48 c 0
 157 48 163 41 163 24 c 0
 163 7 148 0 135 0 c 0
 122 0 82 3 65 3 c 0
 48 3 39 0 24 0 c 0
 9 0 -3 6 -3 28 c 0
 -3 40 5 50 25 50 c 0
 49 50 49.1304872894 53.7043052956 68 77 c 2
 149 177 l 2
 154.893665841 184.276130668 156.833984375 190.989257812 156.833984375 199 c 0
 156.833984375 207 154.348362286 213.245325554 151 218 c 2
 101 289 l 2
 81.6590637846 316.464129426 71 326 55 326 c 0
 39 326 18 334 18 359 c 0x68
EndSplineSet
Validated: 33
EndChar

StartChar: y
Encoding: 121 121 68
Width: 457
Flags: W
HStem: -116 68<86.7783 182.364> 326 61<9.83293 64.5127> 334 52<198.567 229.717 283.713 320.25 393.294 448.271>
LayerCount: 2
Fore
SplineSet
8 359 m 0xc0
 8 384 30 387 51 387 c 0xc0
 72 387 64 383 108 383 c 0
 152 383 172 386 190 386 c 0
 208 386 230 386 230 361 c 0
 230 336 214 334 202 334 c 0xa0
 185.96875 334 195.538085938 320.225585938 204 300 c 2
 235 212 l 2
 243.966796875 190.567382812 249 184 259 184 c 0
 269 184 272.369140625 192.73046875 281 212 c 2
 314 298 l 2
 324.418945312 321.260742188 329.396484375 336 315 336 c 0
 292 336 283 346 283 363 c 0
 283 380 299 387 312 387 c 0xc0
 325 387 364 381 381 381 c 0
 398 381 407 384 422 384 c 0
 437 384 449 378 449 356 c 0
 449 344 441 334 421 334 c 0xa0
 397 334 391.37890625 305.955078125 378 277 c 2
 238 -26 l 2
 198.112304688 -112.329101562 144.668945312 -116 122 -116 c 0
 98 -116 62 -102 62 -68 c 0
 62 -44 79 -27 101 -27 c 0
 133 -27 130 -48 154 -48 c 0
 177.885742188 -48 188 -24 188 1 c 0
 188 8.08203125 186.748046875 18.83203125 180 34 c 2
 71 289 l 2
 59.9189453125 312.015625 61 326 45 326 c 0
 29 326 8 334 8 359 c 0xc0
EndSplineSet
Validated: 33
EndChar

StartChar: z
Encoding: 122 122 69
Width: 406
Flags: W
HStem: 0 50<187.772 288.136> 333 50<127.194 218.361>
LayerCount: 2
Fore
SplineSet
156 333 m 2
 121 333 105 253.6328125 56.875 253.6328125 c 0
 26.431640625 253.6328125 20.794921875 269.41796875 20.794921875 284.075195312 c 0
 20.794921875 307.752929688 43.197265625 332.262695312 55.599609375 352.557617188 c 0
 75.6669921875 385.395507812 92.806640625 406.677734375 116.484375 406.677734375 c 0
 140.162109375 406.677734375 136 383 226 383 c 2
 339 383 l 2
 366 383 378 375 378 357 c 0
 378 339 363.575195312 315.317382812 326 265 c 10
 201 94 l 2
 172.995117188 56.4970703125 189.282226562 50 216 50 c 2
 266 50 l 2
 301 50 317 129.3671875 365.125 129.3671875 c 0
 395.568359375 129.3671875 401.205078125 113.58203125 401.205078125 98.9248046875 c 0
 401.205078125 75.2470703125 378.802715725 50.7373160845 366.400390625 30.4423828125 c 0
 346.333007812 -2.3955078125 334 -23.677734375 299 -23.677734375 c 0
 275 -23.677734375 276.200195312 -1.10459732295e-14 186 0 c 2
 38 0 l 2
 21.9560546875 0 10.3720703125 7.7041015625 10.3720703125 22 c 0
 10.3720703125 32 14.6416015625 42.3017578125 25 56 c 10
 213 303 l 2
 228.506835938 323.373046875 217 333 197 333 c 10
 156 333 l 2
EndSplineSet
Validated: 524321
EndChar

StartChar: dieresis
Encoding: 168 168 70
Width: 371
Flags: W
HStem: 470 133.935<60.8162 123.839 240.816 303.839>
VStem: 16.7217 331.212
LayerCount: 2
Fore
SplineSet
196.721679688 516.4296875 m 0
 196.721679688 561.965820312 257.500976562 603.934570312 302.655273438 603.934570312 c 0
 334.93359375 603.934570312 347.93359375 583.041015625 347.93359375 557.504882812 c 0
 347.93359375 511.967773438 287.154296875 470 242 470 c 0
 202.93359375 470 196.721679688 490.892578125 196.721679688 516.4296875 c 0
16.7216796875 516.4296875 m 0
 16.7216796875 561.965820312 77.5009765625 603.934570312 122.655273438 603.934570312 c 0
 154.93359375 603.934570312 167.93359375 583.041015625 167.93359375 557.504882812 c 0
 167.93359375 511.967773438 107.154296875 470 62 470 c 0
 22.93359375 470 16.7216796875 490.892578125 16.7216796875 516.4296875 c 0
EndSplineSet
Validated: 1
EndChar

StartChar: germandbls
Encoding: 223 223 71
Width: 466
Flags: W
HStem: 1 51<24.2154 76.992 199.35 254.274> 293 41<202.39 249.779> 374 20G<309 371.5> 541 71<200.169 273.262>
VStem: 77 122<54.125 483.926> 297 65<228.508 265.644> 311 128<26.8371 134.379>
LayerCount: 2
Fore
SplineSet
199 255.573242188 m 0xfc
 199 255.573242188 181 269 181 304 c 1
 181 339 198.471679688 354.16796875 198.471679688 354.16796875 c 1
 198.471679688 342 201 334 212 334 c 0
 242 334 272 394 346 394 c 0
 397 394 418 360 418 332 c 0
 418 269 362 263 362 241 c 0xfc
 362 221 439 230 439 124 c 0
 439 -39 270 -149 212 -149 c 0
 183 -149 171 -130 171 -113 c 0
 171 -34 311 -120 311 59 c 0xfa
 311 169 235 154 235 187 c 0
 235 211 297 228 297 262 c 0
 297 282 280 293 250 293 c 0
 208 293 199 275 199 255.573242188 c 0xfc
EndSplineSet
Refer: 101 383 N 1 0 0 1 0 0 2
Validated: 524293
EndChar

StartChar: ampersand
Encoding: 38 38 72
Width: 690
Flags: W
HStem: -12 75<241.975 342.465 499.343 580.791> 460 49<284.418 340.517> 558 34<210.266 380.346>
VStem: 49 75<383.089 484.245> 65 109<132.017 253.676> 192 92<401.342 458.935> 341 66<407.56 458.514> 540 54<205.091 400.772>
LayerCount: 2
Fore
SplineSet
204 266 m 0xef
 186 266 174 241 174 202 c 0
 174 117 254 63 306 63 c 0
 326 63 344 75 344 84 c 0
 344 99.72265625 314.323242188 127.350585938 278 174 c 0
 245.80399941 215.348857432 221.277207523 266 204 266 c 0xef
303 401 m 0
 315 401 341 420 341 434 c 0
 341 448 328 460 311 460 c 0
 294 460 284 446 284 435 c 0
 284 420 291 401 303 401 c 0
205 354 m 0
 205 363.787563509 192 381 192 405 c 0
 192 466 239.101586517 509 310 509 c 0
 368 509 407 478 407 432 c 0
 407 370 329 343 329 334 c 0
 329 317 441 150 460 150 c 0
 479 150 540 197 540 303 c 4
 540 458 416 558 299 558 c 4
 182 558 124 482 124 453 c 20
 124 424 142 420 142 397 c 20
 142 374 120 359 98 359 c 20
 76 359 49 377 49 416 c 4xf7
 49 479 119 592 301 592 c 4
 480 592 594 432 594 295 c 4
 594 172 491 108 491 98 c 0
 491 88 519 63 544 63 c 0
 591 63 582 122 626 122 c 0
 647 122 671 111 671 82 c 0
 671 38 609 -12 540 -12 c 16
 471 -12 457 26 435 26 c 16
 413 26 378 -12 268 -12 c 0
 158 -12 65 60 65 172 c 0
 65 304 205 338 205 354 c 0
EndSplineSet
Validated: 1
EndChar

StartChar: parenleft
Encoding: 40 40 73
Width: 325
Flags: W
HStem: -74 56<211.174 282.424> 538 59<212.137 286.652>
VStem: 42.3871 135.613<121.104 411.93>
LayerCount: 2
Back
SplineSet
32 186.400390625 m 4
 32 448 221.959960938 643.008789062 255.755859375 643.008789062 c 4
 270.666015625 643.008789062 286.072265625 637.48828125 286.072265625 613.334960938 c 4
 286.072265625 558.814453125 154 477.36328125 154 213.952148438 c 4
 154 -143.744140625 287.06640625 -164.3203125 287.06640625 -224.897460938 c 4
 287.06640625 -241.724609375 276.1328125 -253.83984375 256.75 -253.83984375 c 4
 215.499023438 -253.83984375 32 -75.2001953125 32 186.400390625 c 4
EndSplineSet
Fore
SplineSet
42.3871013419 262.999989457 m 0
 42.3871013419 68 148 -74 249 -74 c 0
 280 -74 300 -62 300 -37 c 0
 300 -9 284 -3 269 -3 c 0
 248 -3 243 -18 232 -18 c 0
 221 -18 178 15 178 263 c 0
 178 497 216 538 239 538 c 4
 252.857291475 538 255 519 277 519 c 4
 291 519 305 528 305 550 c 4
 305 586 272 597 246 597 c 4
 142 597 42.3871013419 457.999978913 42.3871013419 262.999989457 c 0
EndSplineSet
Validated: 9
EndChar

StartChar: g.earless
Encoding: 65537 -1 74
Width: 431
Flags: W
HStem: -143 41.7998<178.191 275.589> -13.04 33.04<180.193 251.45> 338 55<173.396 257.802>
VStem: 14 134<143.555 294.705> 128 44.1426<-94.6149 -30.6261> 138 29<40 74> 283.383 118.617<-93.9987 -20.9981> 284 129<171.427 310.955>
LayerCount: 2
Fore
SplineSet
148 228 m 0xf1
 148 156 178 118 216 118 c 0
 254 118 284 156 284 228 c 0
 284 300 254 338 216 338 c 0
 178 338 148 300 148 228 c 0xf1
172.142578125 -55 m 0xea
 172.142578125 -81.48046875 186.047851562 -101.200195312 227.762695312 -101.200195312 c 0
 269.477539062 -101.200195312 283.3828125 -81.48046875 283.3828125 -57.1201171875 c 0
 283.3828125 -32.759765625 269.477539062 -13.0400390625 225 -13.0400390625 c 0
 195.333984375 -13.0400390625 184 -20 180 -23 c 0
 176.60546875 -25.5458984375 172.142578125 -36 172.142578125 -55 c 0xea
14 216 m 0xf0
 14 328 126 393 245 393 c 0
 324 393 413 350 413 248 c 0
 413 138 306 87 210 65 c 0
 175.386707756 57.067787194 167 51 167 40 c 0xe5
 167 29 174 20 191 20 c 0
 212 20 239 40 285 40 c 0
 345 40 402 20 402 -44 c 0
 402 -108 353 -143 245 -143 c 0
 137 -143 128 -90 128 -66 c 0xea
 128 -44 138 -35 135 -31 c 0
 132 -27 122 -37 97 -37 c 0
 76 -37 55 -24 55 10 c 0
 55 68 138 54 138 74 c 0xe4
 138 98 14 79 14 216 c 0xf0
EndSplineSet
Validated: 524321
EndChar

StartChar: parenright
Encoding: 41 41 75
Width: 325
Flags: W
HStem: -74 56<44.9631 116.213> 538 59<40.7345 115.25>
VStem: 149.387 135.613<121.104 411.93>
LayerCount: 2
Fore
SplineSet
285 263 m 4
 285 68 179.38671875 -74 78.38671875 -74 c 4
 47.38671875 -74 27.38671875 -62 27.38671875 -37 c 4
 27.38671875 -9 43.38671875 -3 58.38671875 -3 c 4
 79.38671875 -3 84.38671875 -18 95.38671875 -18 c 4
 106.38671875 -18 149.38671875 15 149.38671875 263 c 4
 149.38671875 497 111.38671875 538 88.38671875 538 c 4
 74.5302734375 538 72.38671875 519 50.38671875 519 c 4
 36.38671875 519 22.38671875 528 22.38671875 550 c 4
 22.38671875 586 55.38671875 597 81.38671875 597 c 4
 185.38671875 597 285 458 285 263 c 4
EndSplineSet
Validated: 1
EndChar

StartChar: slash
Encoding: 47 47 76
Width: 407
Flags: W
LayerCount: 2
Fore
SplineSet
22 -15 m 0
 33.052734375 9.451171875 125.12109375 192.510742188 147.233398438 242.6875 c 0
 178.21875 312.998046875 296.508789062 597.705078125 304 618 c 0
 315.629882812 649.506835938 394.030273438 614.174804688 380 585 c 0
 367.795898438 559.622070312 247.391601562 299.83203125 216 228 c 0
 194.419921875 178.619140625 109 -20 97 -50 c 0
 85.986328125 -77.5341796875 9.470703125 -42.716796875 22 -15 c 0
EndSplineSet
Validated: 33
EndChar

StartChar: quotesingle
Encoding: 39 39 77
Width: 151
Flags: W
HStem: 367.843 246.497<44.732 103.143>
VStem: 17.793 118.047<466.22 602.362> 43.083 62.0254<368.923 505.478>
LayerCount: 2
Fore
SplineSet
17.79296875 561.01953125 m 0xc0
 17.79296875 593.509765625 44.443359375 614.33984375 75.40625 614.33984375 c 0
 106.370117188 614.33984375 135.83984375 594.650390625 135.83984375 560.450195312 c 0xc0
 135.83984375 501.169921875 105.108398438 474 105.108398438 403.498046875 c 0
 105.108398438 387.040039062 100.10546875 367.842773438 74.095703125 367.842773438 c 0
 48.0849609375 367.842773438 43.0830078125 387.040039062 43.0830078125 404.41015625 c 0xa0
 43.0830078125 475 17.79296875 505.73046875 17.79296875 561.01953125 c 0xc0
EndSplineSet
Validated: 1
EndChar

StartChar: quotedbl
Encoding: 34 34 78
Width: 301
Flags: W
HStem: 367.843 246.497<44.732 103.143 194.732 253.143>
VStem: 17.793 118.047<466.22 602.362> 43.083 62.0254<368.923 505.478> 167.793 118.047<466.22 602.362> 193.083 62.0254<368.923 505.478>
LayerCount: 2
Fore
SplineSet
167.79296875 561.01953125 m 4x90
 167.79296875 593.509765625 194.443359375 614.33984375 225.40625 614.33984375 c 4
 256.370117188 614.33984375 285.83984375 594.650390625 285.83984375 560.450195312 c 4x90
 285.83984375 501.169921875 255.108398438 474 255.108398438 403.498046875 c 4
 255.108398438 387.040039062 250.10546875 367.842773438 224.095703125 367.842773438 c 4
 198.084960938 367.842773438 193.083007812 387.040039062 193.083007812 404.41015625 c 4x88
 193.083007812 475 167.79296875 505.73046875 167.79296875 561.01953125 c 4x90
17.79296875 561.01953125 m 0xc0
 17.79296875 593.509765625 44.443359375 614.33984375 75.40625 614.33984375 c 0
 106.370117188 614.33984375 135.83984375 594.650390625 135.83984375 560.450195312 c 0xc0
 135.83984375 501.169921875 105.108398438 474 105.108398438 403.498046875 c 0
 105.108398438 387.040039062 100.10546875 367.842773438 74.095703125 367.842773438 c 0
 48.0849609375 367.842773438 43.0830078125 387.040039062 43.0830078125 404.41015625 c 0xa0
 43.0830078125 475 17.79296875 505.73046875 17.79296875 561.01953125 c 0xc0
EndSplineSet
Validated: 1
EndChar

StartChar: asciitilde
Encoding: 126 126 79
Width: 336
Flags: W
LayerCount: 2
Fore
SplineSet
201.303710938 240.568359375 m 6
 97.0556640625 259.755859375 l 6
 91.1533203125 260.841796875 74.9853515625 251.1015625 53.9853515625 251.1015625 c 4
 22.689453125 251.1015625 26.4521484375 281.991210938 39.2109375 293.517578125 c 6
 95.3115234375 344.200195312 l 6
 109.974609375 357.447265625 118.963867188 362.216796875 134.69921875 359.3203125 c 6
 244.849609375 339.047851562 l 6
 253.700195312 337.418945312 260.985351562 348.788085938 281.985351562 348.788085938 c 4
 313.3125 348.788085938 309.55078125 317.897460938 296.791992188 306.37109375 c 6
 240.690429688 255.689453125 l 6
 226.02734375 242.44140625 217.040039062 237.672851562 201.303710938 240.568359375 c 6
EndSplineSet
Validated: 33
EndChar

StartChar: asterisk
Encoding: 42 42 80
Width: 304
Flags: W
VStem: 30.1025 241.035
LayerCount: 2
Fore
SplineSet
150.620117188 579.919921875 m 24
 181.639648438 579.919921875 168.440429688 530.419921875 193.624023438 512.389648438 c 24
 218.599609375 494.120117188 261.5 521.83984375 271.137695312 492.358398438 c 24
 280.639648438 462.440429688 229.8203125 460.459960938 220.201171875 430.591796875 c 24
 210.6796875 401.059570312 250.280273438 368.719726562 225.103515625 350.681640625 c 24
 200.120117188 332.419921875 181.639648438 379.940429688 150.620117188 380.038085938 c 24
 119.599609375 379.940429688 101.120117188 332.419921875 76.1357421875 350.681640625 c 24
 50.9599609375 368.719726562 90.5595703125 401.059570312 81.0390625 430.591796875 c 24
 71.419921875 460.459960938 20.599609375 462.440429688 30.1025390625 492.358398438 c 24
 39.740234375 521.83984375 82.6396484375 494.120117188 107.616210938 512.389648438 c 24
 132.799804688 530.419921875 119.599609375 579.919921875 150.620117188 579.919921875 c 24
EndSplineSet
Validated: 33
EndChar

StartChar: .notdef
Encoding: 65536 -1 81
Width: 654
Flags: W
HStem: -14 60<277.478 366.548> 167.6 36.8008<294.511 360.883> 534 66<238.041 413.962>
VStem: 23 176.8<197.5 493.2> 462.2 168.8<200.4 491.8>
LayerCount: 2
Fore
SplineSet
325.400390625 534 m 4
 247 534 199.799804688 496.400390625 199.799804688 461.200195312 c 4
 199.799804688 441.200195312 211 422.799804688 236.599609375 422.799804688 c 4
 278.200195312 422.799804688 279.799804688 485.200195312 325.400390625 485.200195312 c 4
 352.552734375 485.200195312 367.799804688 464.400390625 367.799804688 439.599609375 c 4
 367.799804688 369.200195312 283.799804688 348.400390625 283.799804688 257.200195312 c 4
 283.799804688 231.599609375 298.200195312 204.400390625 330.200195312 204.400390625 c 4
 350.975585938 204.400390625 363.58984375 219.520507812 363.58984375 232.959960938 c 4
 363.58984375 259.280273438 348.599609375 257.200195312 348.599609375 280.400390625 c 4
 348.599609375 317.200195312 462.200195312 343.599609375 462.200195312 427.599609375 c 4
 462.200195312 506 397.400390625 534 325.400390625 534 c 4
261.400390625 106.799804688 m 4
 261.400390625 73.2001953125 288.599609375 46 322.200195312 46 c 4
 355.799804688 46 383 73.2001953125 383 106.799804688 c 4
 383 140.400390625 355.799804688 167.599609375 322.200195312 167.599609375 c 4
 288.599609375 167.599609375 261.400390625 140.400390625 261.400390625 106.799804688 c 4
23 295 m 0
 23 490 174 600 338 600 c 0
 502 600 631 477.599609375 631 292.799804688 c 0
 631 108 483 -14 329 -14 c 0
 175 -14 23 100 23 295 c 0
EndSplineSet
EndChar

StartChar: at
Encoding: 64 64 82
Width: 825
Flags: W
HStem: -138 54<318.445 538.068> -19 20G<608 657> 48.293 60.8291<346.924 436.301> 58.5996 54.2803<580.476 676.515> 81 301.106<478.582 568.045> 355.821 49.0645<386.507 473.068> 532 54<302.562 531.418>
VStem: 56 54<111.666 342.308> 206.917 125.895<123.389 291.047> 711 59<151.293 353.186>
LayerCount: 2
Fore
SplineSet
332.811523438 185 m 0xe7c0
 332.811523438 154.997070312 338 109.122070312 400 109.122070312 c 0
 436.071289062 109.122070312 443.600086658 141.286034091 451.392578125 178.959960938 c 2
 473.114257812 283.9765625 l 2
 481.413085938 324.099609375 477.68359375 355.821289062 438.743164062 355.821289062 c 0
 367.940429688 355.821289062 332.811523438 266 332.811523438 185 c 0xe7c0
619.959960938 58.599609375 m 0xd3c0
 550 58.599609375 510.27734375 81 498 81 c 0xcbc0
 482.240234375 81 425.814453125 48.29296875 349.741210938 48.29296875 c 0
 241.098632812 48.29296875 206.916992188 132 206.916992188 195 c 0
 206.916992188 344.176757812 331.653320312 404.885742188 411.3828125 404.885742188 c 0xe7c0
 486.651367188 404.885742188 510.319335938 382.106445312 526.249023438 382.106445312 c 0xcbc0
 543.7734375 382.106445312 558.46484375 403.69140625 585.545898438 403.69140625 c 0
 609.204101562 403.69140625 610.69921875 387.8203125 605.381835938 362.114257812 c 2
 570.81640625 195 l 2
 560.140431943 143.384627678 588 112.879882812 624 112.879882812 c 0
 688.400390625 112.879882812 711 179 711 242 c 0
 711 410 582 532 418 532 c 0
 264 532 110 426 110 220 c 0
 110 19 294 -84 431 -84 c 0
 586 -84 570 1 646 1 c 0
 668 1 687 -17 687 -45 c 0
 687 -90 593 -138 429 -138 c 0
 230 -138 56 11 56 228 c 0
 56 451 230 586 422 586 c 0
 626 586 770 424 770 253 c 0
 770 152 724.98046875 58.599609375 619.959960938 58.599609375 c 0xd3c0
EndSplineSet
Validated: 33
AlternateSubs2: "'salt' Stylistic Alternatives in Latin lookup 1-1" at.salt
EndChar

StartChar: numbersign
Encoding: 35 35 83
Width: 593
Flags: W
HStem: 161 70.9756<188.27 454.58> 161.021 79.2334<29.1338 93.5316 381.056 464.736> 371 70.9756<280.195 544.573> 371.021 79.2334<109.134 188.253 473.396 554.736>
LayerCount: 2
Fore
SplineSet
37.662109375 240.25390625 m 0x40
 76 240.25390625 197 231.975585938 260.09765625 231.975585938 c 0
 336.932617188 231.975585938 423 235.65234375 456.173828125 235.65234375 c 0
 489.758789062 235.65234375 489.803710938 156.272460938 457.4296875 156.272460938 c 0
 418 156.272460938 341.391601562 161 263 161 c 0x80
 204 161 75 161.020507812 36.6865234375 161.020507812 c 0
 7.03125 161.020507812 7.2451171875 240.25390625 37.662109375 240.25390625 c 0x40
117.662109375 450.25390625 m 4x10
 156 450.25390625 277 441.975585938 340.09765625 441.975585938 c 4
 416.932617188 441.975585938 513 445.65234375 546.173828125 445.65234375 c 4
 579.758789062 445.65234375 579.803710938 366.272460938 547.4296875 366.272460938 c 4
 508 366.272460938 421.391601562 371 343 371 c 4x20
 284 371 155 371.020507812 116.686523438 371.020507812 c 4
 87.03125 371.020507812 87.2451171875 450.25390625 117.662109375 450.25390625 c 4x10
214 33 m 0
 225.052734375 57.451171875 327.287109375 272.05859375 349.400390625 322.235351562 c 0
 380.385742188 392.545898438 444.508789062 557.705078125 452 578 c 0
 463.629882812 609.506835938 542.030273438 574.174804688 528 545 c 0
 515.795898438 519.622070312 449.55859375 379.379882812 418.166992188 307.547851562 c 0
 396.586914062 258.166992188 301 28 289 -2 c 0
 277.986328125 -29.5341796875 201.470703125 5.283203125 214 33 c 0
24 33 m 0
 35.052734375 57.451171875 137.287109375 272.05859375 159.400390625 322.235351562 c 0
 190.385742188 392.545898438 254.508789062 557.705078125 262 578 c 0
 273.629882812 609.506835938 352.030273438 574.174804688 338 545 c 0
 325.795898438 519.622070312 259.55859375 379.379882812 228.166992188 307.547851562 c 0
 206.586914062 258.166992188 111 28 99 -2 c 0
 87.986328125 -29.5341796875 11.470703125 5.283203125 24 33 c 0
EndSplineSet
Validated: 37
EndChar

StartChar: percent
Encoding: 37 37 84
Width: 713
Flags: W
HStem: -4 47.2695<484.018 556.643> 263.66 43.4199<480.48 557.095> 289 47.2695<143.018 215.643> 556.66 43.4199<139.48 216.095>
VStem: 20.0703 101.64<363.994 525.349> 235.67 110.11<365.174 525.637> 361.07 101.64<70.9944 232.349> 576.67 110.11<72.1743 232.637>
LayerCount: 2
Fore
SplineSet
121.709960938 449.860351562 m 4xbf
 121.709960938 367.112304688 148.66015625 336.26953125 180.23046875 336.26953125 c 4
 211.799804688 336.26953125 235.669921875 367.112304688 235.669921875 449.860351562 c 4
 235.669921875 532.608398438 209.799804688 556.66015625 178.23046875 556.66015625 c 4
 146.66015625 556.66015625 121.709960938 532.608398438 121.709960938 449.860351562 c 4xbf
20.0703125 444.540039062 m 4
 20.0703125 536.940429688 89.3701171875 600.080078125 181 600.080078125 c 4
 272.629882812 600.080078125 345.780273438 537.709960938 345.780273438 445.309570312 c 4
 345.780273438 352.91015625 272.629882812 289 181 289 c 4
 89.3701171875 289 20.0703125 352.139648438 20.0703125 444.540039062 c 4
462.709960938 156.860351562 m 4
 462.709960938 74.1123046875 489.66015625 43.26953125 521.23046875 43.26953125 c 4
 552.799804688 43.26953125 576.669921875 74.1123046875 576.669921875 156.860351562 c 4
 576.669921875 239.608398438 550.799804688 263.66015625 519.23046875 263.66015625 c 4xdf
 487.66015625 263.66015625 462.709960938 239.608398438 462.709960938 156.860351562 c 4
361.0703125 151.540039062 m 4
 361.0703125 243.940429688 430.370117188 307.080078125 522 307.080078125 c 4
 613.629882812 307.080078125 686.780273438 244.709960938 686.780273438 152.309570312 c 4
 686.780273438 59.91015625 613.629882812 -4 522 -4 c 4
 430.370117188 -4 361.0703125 59.1396484375 361.0703125 151.540039062 c 4
148.963867188 66.7392578125 m 4
 164.5625 88.5732421875 306.586914062 279.196289062 338.037109375 324.112304688 c 4
 382.107421875 387.053710938 477.130859375 536.5859375 488.426757812 555.036132812 c 4
 505.962890625 583.678710938 565.993164062 543.772460938 546.555664062 517.883789062 c 4
 529.649414062 495.364257812 437.3984375 370.684570312 392.633789062 306.330078125 c 4
 361.861328125 262.08984375 223.330078125 54.912109375 205.723632812 27.8193359375 c 4
 189.565429688 2.953125 131.283203125 41.98828125 148.963867188 66.7392578125 c 4
EndSplineSet
Validated: 33
EndChar

StartChar: plus
Encoding: 43 43 85
Width: 392
Flags: W
HStem: 223.021 79.2334<37.042 356.264>
VStem: 154.577 82.3799<102.339 421.561>
LayerCount: 2
Fore
SplineSet
152.975585938 110.8671875 m 0
 152.975585938 149.205078125 155.25390625 190.205078125 155.25390625 253.302734375 c 0
 155.25390625 330.137695312 154.577148438 376.205078125 154.577148438 409.37890625 c 0
 154.577148438 442.963867188 236.95703125 443.008789062 236.95703125 410.634765625 c 0
 236.95703125 371.205078125 232.229492188 334.596679688 232.229492188 256.205078125 c 0
 232.229492188 197.205078125 232.208984375 148.205078125 232.208984375 109.891601562 c 0
 232.208984375 80.236328125 152.975585938 80.4501953125 152.975585938 110.8671875 c 0
45.5703125 302.25390625 m 4
 83.908203125 302.25390625 124.908203125 299.975585938 188.005859375 299.975585938 c 4
 264.840820312 299.975585938 310.908203125 300.65234375 344.08203125 300.65234375 c 4
 377.666992188 300.65234375 377.711914062 218.272460938 345.337890625 218.272460938 c 4
 305.908203125 218.272460938 269.299804688 223 190.908203125 223 c 4
 131.908203125 223 82.908203125 223.020507812 44.5947265625 223.020507812 c 4
 14.939453125 223.020507812 15.1533203125 302.25390625 45.5703125 302.25390625 c 4
EndSplineSet
Validated: 37
EndChar

StartChar: equal
Encoding: 61 61 86
Width: 392
Flags: W
HStem: 153.021 79.2334<37.042 356.264> 293.021 79.2334<37.042 356.264>
LayerCount: 2
Fore
SplineSet
45.5703125 232.25390625 m 0
 83.908203125 232.25390625 124.908203125 229.975585938 188.005859375 229.975585938 c 0
 264.840820312 229.975585938 310.908203125 230.65234375 344.08203125 230.65234375 c 0
 377.666992188 230.65234375 377.711914062 148.272460938 345.337890625 148.272460938 c 0
 305.908203125 148.272460938 269.299804688 153 190.908203125 153 c 0
 131.908203125 153 82.908203125 153.020507812 44.5947265625 153.020507812 c 0
 14.939453125 153.020507812 15.1533203125 232.25390625 45.5703125 232.25390625 c 0
45.5703125 372.25390625 m 4
 83.908203125 372.25390625 124.908203125 369.975585938 188.005859375 369.975585938 c 4
 264.840820312 369.975585938 310.908203125 370.65234375 344.08203125 370.65234375 c 4
 377.666992188 370.65234375 377.711914062 288.272460938 345.337890625 288.272460938 c 4
 305.908203125 288.272460938 269.299804688 293 190.908203125 293 c 4
 131.908203125 293 82.908203125 293.020507812 44.5947265625 293.020507812 c 4
 14.939453125 293.020507812 15.1533203125 372.25390625 45.5703125 372.25390625 c 4
EndSplineSet
Validated: 33
EndChar

StartChar: less
Encoding: 60 60 87
Width: 392
Flags: W
HStem: 117.854 77.5127<272.157 344.527> 300.972 77.5127<271.576 344.563>
LayerCount: 2
Fore
SplineSet
28.0927734375 248.168945312 m 0
 28.0927734375 275.009765625 31.365234375 282.325195312 60.5927734375 292.821289062 c 0
 244.875976562 359 291.114257812 367.717773438 322.4921875 378.484375 c 0
 354.258789062 389.384765625 381.038085938 312.478515625 350.416992188 300.971679688 c 0
 313.5078125 287.1015625 258.875976562 277 193.294921875 261.782226562 c 0
 154.587890625 252.80078125 131.965820312 248.168945312 131.965820312 248.168945312 c 1
 131.965820312 248.168945312 154.564453125 243.44921875 193.678710938 234.42578125 c 0
 251.875976562 221 313.122070312 209.1640625 350.416992188 195.366210938 c 0
 380.779296875 184.1328125 354.258789062 106.953125 322.4921875 117.853515625 c 0
 291.114257812 128.620117188 227.525390625 143.540039062 60.662109375 202.536132812 c 0
 33.8759765625 212 28.0927734375 221.328125 28.0927734375 248.168945312 c 0
EndSplineSet
Validated: 33
EndChar

StartChar: greater
Encoding: 62 62 88
Width: 392
Flags: W
HStem: 117.854 77.5127<47.4733 119.843> 300.972 77.5127<47.4369 120.424>
LayerCount: 2
Fore
SplineSet
363.907226562 248.168945312 m 0
 363.907226562 221.328125 358.124023438 212 331.337890625 202.536132812 c 0
 164.474609375 143.540039062 100.885742188 128.620117188 69.5078125 117.853515625 c 0
 37.7412109375 106.953125 11.220703125 184.1328125 41.5830078125 195.366210938 c 0
 78.8779296875 209.1640625 140.124023438 221 198.321289062 234.42578125 c 0
 237.435546875 243.44921875 260.034179688 248.168945312 260.034179688 248.168945312 c 1
 260.034179688 248.168945312 237.412109375 252.80078125 198.705078125 261.782226562 c 0
 133.124023438 277 78.4921875 287.1015625 41.5830078125 300.971679688 c 0
 10.9619140625 312.478515625 37.7412109375 389.384765625 69.5078125 378.484375 c 0
 100.885742188 367.717773438 147.124023438 359 331.407226562 292.821289062 c 0
 360.634765625 282.325195312 363.907226562 275.009765625 363.907226562 248.168945312 c 0
EndSplineSet
Validated: 33
EndChar

StartChar: at.salt
Encoding: 65538 -1 89
Width: 825
Flags: W
HStem: -138 54<318.445 538.068> -19 20G<608 657> 48.293 60.8291<372.245 465.594> 58.5996 54.2803<598.227 680.236> 81.0195 301.087<474.627 559.604> 355.821 49.0645<368.033 463.134> 532 54<302.562 531.418>
VStem: 56 54<111.666 342.308> 218.22 123.548<141.302 317.016> 473.19 116.106<119.851 348.044> 711 59<147.136 353.186>
LayerCount: 2
Fore
SplineSet
341.767578125 241.045898438 m 0xe7e0
 341.767578125 166.573242188 361.04296875 109.122070312 420.419921875 109.122070312 c 0
 472.314453125 109.122070312 473.190429688 141.286132812 473.190429688 178.959960938 c 2
 473.190429688 283.9765625 l 2
 473.190429688 324.099609375 462.900390625 355.821289062 423.959960938 355.821289062 c 0
 353.157226562 355.821289062 341.767578125 292.73828125 341.767578125 241.045898438 c 0xe7e0
619.959960938 58.599609375 m 0xd3e0
 550 58.599609375 522.376953125 81.01953125 510.099609375 81.01953125 c 0xcbe0
 494.33984375 81.01953125 454.639648438 48.29296875 378.56640625 48.29296875 c 0
 269.923828125 48.29296875 218.219726562 135.03125 218.219726562 229.700195312 c 0
 218.219726562 341.803710938 306.721679688 404.885742188 386.451171875 404.885742188 c 0xe7e0
 461.719726562 404.885742188 490.098632812 382.106445312 506.028320312 382.106445312 c 0xcbe0
 523.552734375 382.106445312 533.780273438 403.69140625 560.861328125 403.69140625 c 0
 584.51953125 403.69140625 589.296875 387.8203125 589.296875 362.114257812 c 2
 589.296875 195 l 2
 589.296875 159.754882812 588 112.879882812 637 112.879882812 c 0
 688.400390625 112.879882812 711 179 711 242 c 0
 711 410 582 532 418 532 c 0
 264 532 110 426 110 220 c 0
 110 19 294 -84 431 -84 c 0
 586 -84 570 1 646 1 c 0
 668 1 687 -17 687 -45 c 0
 687 -90 593 -138 429 -138 c 0
 230 -138 56 11 56 228 c 0
 56 451 230 586 422 586 c 0
 626 586 770 424 770 253 c 0
 770 152 724.98046875 58.599609375 619.959960938 58.599609375 c 0xd3e0
EndSplineSet
Validated: 33
EndChar

StartChar: acute
Encoding: 180 180 90
Width: 231
Flags: W
HStem: 433 47<25.3864 98.2552> 572 20G<142 176.5>
VStem: 105 103<486.139 576.724>
LayerCount: 2
Fore
SplineSet
25 459 m 0
 25 479 40 480 59 480 c 0
 82 480 99.5087890625 488.54296875 105 516 c 0
 114 561 124 592 160 592 c 0
 193 592 208 570 208 531 c 0
 208 449 126 433 86 433 c 0
 46 433 25 439 25 459 c 0
EndSplineSet
Validated: 1
EndChar

StartChar: grave
Encoding: 96 96 92
Width: 231
Flags: W
HStem: 433 47<134.745 207.614> 572 20G<56.5 91>
VStem: 25 103<486.139 576.724>
LayerCount: 2
Fore
SplineSet
208 459 m 4
 208 439 187 433 147 433 c 4
 107 433 25 449 25 531 c 4
 25 570 40 592 73 592 c 4
 109 592 119 561 128 516 c 4
 133.491210938 488.54296875 151 480 174 480 c 4
 193 480 208 479 208 459 c 4
EndSplineSet
Validated: 524289
EndChar

StartChar: backslash
Encoding: 92 92 93
Width: 407
Flags: W
LayerCount: 2
Fore
SplineSet
380.29296875 -15 m 0
 392.822265625 -42.716796875 316.306640625 -77.5341796875 305.29296875 -50 c 0
 293.29296875 -20 207.873046875 178.619140625 186.29296875 228 c 0
 154.901367188 299.83203125 34.4970703125 559.622070312 22.29296875 585 c 0
 8.2626953125 614.174804688 86.6630859375 649.506835938 98.29296875 618 c 0
 105.784179688 597.705078125 224.07421875 312.998046875 255.059570312 242.6875 c 0
 277.171875 192.510742188 369.240234375 9.451171875 380.29296875 -15 c 0
EndSplineSet
Validated: 33
EndChar

StartChar: bracketleft
Encoding: 91 91 94
Width: 294
Flags: W
HStem: -74 54<178.033 278.538> 549 54<178.058 278.538>
VStem: 65 113<-20 549>
LayerCount: 2
Fore
SplineSet
65 -27 m 2
 65 556 l 2
 65 591 71 603 130 603 c 2
 222 603 l 6
 270 603 279 595 279 575 c 4
 279 555 260.873046875 549.291015625 244 549 c 6
 196 549 l 6
 182.881835938 549 178 537 178 525 c 6
 178 4 l 6
 178 -12 182.881835938 -20 196 -20 c 6
 244 -20 l 6
 260.873046875 -20.291015625 279 -26 279 -46 c 4
 279 -66 270 -74 222 -74 c 6
 130 -74 l 2
 71 -74 65 -62 65 -27 c 2
EndSplineSet
Validated: 1
EndChar

StartChar: braceleft
Encoding: 123 123 95
Width: 319
Flags: W
HStem: -78.7529 59<178.775 268.011> 270.371 54.8408<25.478 44.2969 67.415 107.385> 555.217 59<183.595 260.501>
VStem: 51.6895 116.972<-9.67644 95.2102> 59.665 116.972<438.788 551.678> 114.226 90.0762<339.247 421.708> 124 91.0137<140.666 259.831>
LayerCount: 2
Back
SplineSet
146.1875 127 m 0xe2
 146.1875 175 116.9375 198 98.25 198 c 0
 87.6875 198 78.23046875 192.020507812 66.400390625 192.020507812 c 0
 24.2763671875 192.020507812 26.541015625 271.25390625 66.7021484375 271.25390625 c 0
 71.4375 271.25390625 76.3125 268.975585938 90.9375 268.975585938 c 0
 117.75 268.975585938 140.009765625 293 140.009765625 328 c 0xe4
 140.009765625 389 82.8125 442 82.8125 525 c 0
 82.8125 617 186.708984375 643.008789062 231.5 643.008789062 c 0
 322.1875 643.008789062 346.62109375 611.153320312 346.62109375 587 c 0
 346.62109375 570.993164062 335 559 315 559 c 0
 300.774414062 559 289 570.9765625 265 570.9765625 c 0
 243 570.9765625 205.435546875 557 205.435546875 512.647460938 c 0xe8
 205.435546875 455.28515625 234.4375 417 234.4375 366 c 0xe4
 234.4375 297 190.5625 268 190.5625 248 c 0
 190.5625 230.5625 245.666992188 191 245.666992188 96 c 0xe2
 245.666992188 18.9951171875 197.419921875 -46.1162109375 197.419921875 -103.478515625 c 0
 197.419921875 -177.831054688 252.984375 -181.807617188 274.984375 -181.807617188 c 0
 298.984375 -181.807617188 310.758789062 -169.831054688 324.984375 -169.831054688 c 0
 344.984375 -169.831054688 356.60546875 -181.82421875 356.60546875 -197.831054688 c 0
 356.60546875 -221.984375 332.171875 -253.83984375 241.484375 -253.83984375 c 0
 196.693359375 -253.83984375 74.796875 -237.831054688 74.796875 -115.831054688 c 0xf0
 74.796875 -32.8310546875 146.1875 0 146.1875 127 c 0xe2
EndSplineSet
Fore
SplineSet
215.013671875 191.55859375 m 0xe2
 215.013671875 264.962890625 162.44921875 295.53125 162.44921875 309.004882812 c 0
 162.44921875 324.458007812 204.301757812 346.866210938 204.301757812 400.1796875 c 0xe4
 204.301757812 439.586914062 176.63671875 459.168945312 176.63671875 503.490234375 c 0
 176.63671875 537.760742188 193.513671875 555.216796875 210 555.216796875 c 0
 228.357421875 555.216796875 230.5 536.216796875 252.5 536.216796875 c 0
 266.5 536.216796875 280.5 545.216796875 280.5 567.216796875 c 0
 280.5 598 243 614.216796875 200 614.216796875 c 0
 136 614.216796875 59.6650390625 590 59.6650390625 502 c 0xe8
 59.6650390625 437.868164062 114.225585938 417.951171875 114.225585938 370.818359375 c 0xe4
 114.225585938 343.775390625 92.9921875 325.211914062 67.4150390625 325.211914062 c 0
 53.4638671875 325.211914062 48.8134765625 326.97265625 44.296875 326.97265625 c 0
 5.986328125 326.97265625 3.826171875 265.750976562 44.0087890625 265.750976562 c 0
 55.2939453125 265.750976562 64.3154296875 270.37109375 74.390625 270.37109375 c 0
 92.216796875 270.37109375 124 257 124 209 c 0xe2
 124 135.262695312 51.689453125 97.595703125 51.689453125 33.4638671875 c 0
 51.689453125 -54.5361328125 143.024414062 -78.7529296875 207.024414062 -78.7529296875 c 0
 250.024414062 -78.7529296875 287.524414062 -64 287.524414062 -31.7529296875 c 0
 287.524414062 -9.7529296875 273.524414062 -0.7529296875 259.524414062 -0.7529296875 c 0
 237.524414062 -0.7529296875 235.381835938 -19.7529296875 217.024414062 -19.7529296875 c 0
 200.538085938 -19.7529296875 168.661132812 -2.296875 168.661132812 31.9736328125 c 0xf0
 168.661132812 76.294921875 215.013671875 122 215.013671875 191.55859375 c 0xe2
EndSplineSet
Validated: 41
EndChar

StartChar: bracketright
Encoding: 93 93 96
Width: 294
Flags: W
HStem: -74 54<35.462 135.967> 549 54<35.462 135.942>
VStem: 136 113<-20 549>
LayerCount: 2
Fore
SplineSet
249 -27 m 2
 249 -62 243 -74 184 -74 c 2
 92 -74 l 2
 44 -74 35 -66 35 -46 c 0
 35 -26 53.126953125 -20.291015625 70 -20 c 2
 118 -20 l 2
 131.118164062 -20 136 -12 136 4 c 2
 136 525 l 2
 136 537 131.118164062 549 118 549 c 2
 70 549 l 2
 53.126953125 549.291015625 35 555 35 575 c 0
 35 595 44 603 92 603 c 2
 184 603 l 2
 243 603 249 591 249 556 c 2
 249 -27 l 2
EndSplineSet
Validated: 1
EndChar

StartChar: braceright
Encoding: 125 125 97
Width: 319
Flags: W
HStem: -78.7529 59<51.2242 140.46> 270.371 54.8408<211.851 293.757> 555.217 59<58.7347 135.64>
VStem: 104.222 91.0137<140.666 259.831> 114.934 90.0762<339.247 421.708> 142.599 116.972<438.788 551.678> 150.574 116.972<-9.67644 95.2102>
LayerCount: 2
Fore
SplineSet
104.221679688 191.55859375 m 4xf0
 104.221679688 264.962890625 156.786132812 295.53125 156.786132812 309.004882812 c 4
 156.786132812 324.458007812 114.93359375 346.866210938 114.93359375 400.1796875 c 4xe8
 114.93359375 439.586914062 142.598632812 459.168945312 142.598632812 503.490234375 c 4
 142.598632812 537.760742188 125.721679688 555.216796875 109.235351562 555.216796875 c 4
 90.8779296875 555.216796875 88.7353515625 536.216796875 66.7353515625 536.216796875 c 4
 52.7353515625 536.216796875 38.7353515625 545.216796875 38.7353515625 567.216796875 c 4
 38.7353515625 598 76.2353515625 614.216796875 119.235351562 614.216796875 c 4
 183.235351562 614.216796875 259.5703125 590 259.5703125 502 c 4xe4
 259.5703125 437.868164062 205.009765625 417.951171875 205.009765625 370.818359375 c 4xe8
 205.009765625 343.775390625 226.243164062 325.211914062 251.8203125 325.211914062 c 4
 265.771484375 325.211914062 270.421875 326.97265625 274.938476562 326.97265625 c 4
 313.249023438 326.97265625 315.409179688 265.750976562 275.2265625 265.750976562 c 4
 263.94140625 265.750976562 254.919921875 270.37109375 244.844726562 270.37109375 c 4
 227.018554688 270.37109375 195.235351562 257 195.235351562 209 c 4xf0
 195.235351562 135.262695312 267.545898438 97.595703125 267.545898438 33.4638671875 c 4
 267.545898438 -54.5361328125 176.2109375 -78.7529296875 112.2109375 -78.7529296875 c 4
 69.2109375 -78.7529296875 31.7109375 -64 31.7109375 -31.7529296875 c 4
 31.7109375 -9.7529296875 45.7109375 -0.7529296875 59.7109375 -0.7529296875 c 4
 81.7109375 -0.7529296875 83.853515625 -19.7529296875 102.2109375 -19.7529296875 c 4
 118.697265625 -19.7529296875 150.57421875 -2.296875 150.57421875 31.9736328125 c 4xe2
 150.57421875 76.294921875 104.221679688 122 104.221679688 191.55859375 c 4xf0
EndSplineSet
Validated: 33
EndChar

StartChar: underscore
Encoding: 95 95 98
Width: 742
Flags: W
HStem: -83.9795 79.2334<37.042 706.264>
LayerCount: 2
Fore
SplineSet
45.5703125 -4.74609375 m 0
 83.908203125 -4.74609375 143.497070312 -7.0244140625 359.25390625 -7.0244140625 c 4
 621.982421875 -7.0244140625 660.908203125 -6.34765625 694.08203125 -6.34765625 c 0
 727.666992188 -6.34765625 727.711914062 -88.7275390625 695.337890625 -88.7275390625 c 0
 655.908203125 -88.7275390625 625.23046875 -84 357.177734375 -84 c 0
 155.432617188 -84 82.908203125 -83.9794921875 44.5947265625 -83.9794921875 c 0
 14.939453125 -83.9794921875 15.1533203125 -4.74609375 45.5703125 -4.74609375 c 0
EndSplineSet
Validated: 33
EndChar

StartChar: c_h
Encoding: 65539 -1 99
Width: 784
Flags: W
HStem: -6 60<181.66 267.161> 0 48<313.892 350.644 474 513.968 572.246 608.814 728.404 768.381> 324 41<481.932 534.69> 332 60<186.555 252.134> 543 52<302.285 350.677>
VStem: 16 142<105.1 280.759> 311 40<26 84> 351 123<50.582 314.21 365.008 542.897> 609 119<47.8379 301.706>
LayerCount: 2
Fore
SplineSet
302 566 m 4x6d80
 302 577 302 595 336 595 c 6
 449 595 l 6
 459 595 474.771484375 587.99609375 475.108398438 562 c 6
 475.108398438 392 l 6x5d80
 475.108398438 375.7890625 476 365 484 365 c 4x2d80
 498 365 517 392 594 392 c 4x1d80
 671 392 728 338 728 248 c 6
 728 78 l 6
 728 54 737 48 746 48 c 4
 755 48 769 45 769 28 c 4
 769 11 758 -1 733 -1 c 4
 708 -1 687 6 664 6 c 4
 641 6 633 1 609 1 c 4
 585 1 572 8 572 26 c 4
 572 44 579 47 589 47 c 4
 604 47 609 56 609 76 c 6
 609 225 l 6
 609 306 569 324 533 324 c 4
 497 324 474.180664062 301.040039062 474 288 c 6
 474 66 l 6x6d80
 474 55.98828125 476 48 489 48 c 4
 503 48 514 37 514 25 c 4
 514 13 515 0 478 0 c 4
 441 0 427 4 411 4 c 4
 395 4 395 0 356 0 c 4
 317 0 311 10 311 26 c 4
 311 42 319 51 335 51 c 4
 351 51 351 70 351 79 c 6x6e80
 351 513 l 6
 351 541 342 543 324 543 c 4
 306 543 302 555 302 566 c 4x6d80
16 193 m 4
 16 304 111 392 217 392 c 4
 330 392 351 335 351 312 c 4x9d80
 351 292 333 272 309 272 c 4
 252 272 260 332 224 332 c 4
 190 332 158 293 158 185 c 4
 158 77 190 54 224 54 c 4
 280 54 280 124 317 124 c 4
 341 124 351 104 351 84 c 4
 351 61 310 -6 217 -6 c 4x9e80
 111 -6 16 82 16 193 c 4
EndSplineSet
Validated: 524325
Ligature2: "'dlig' Discretionary Ligatures in Latin lookup 0-1" c h
EndChar

StartChar: bar
Encoding: 124 124 100
Width: 176
Flags: W
VStem: 49.5771 82.3799<-56.6611 593.561>
LayerCount: 2
Fore
SplineSet
47.9755859375 -48.1328125 m 0
 47.9755859375 -9.794921875 50.25390625 197.205078125 50.25390625 260.302734375 c 0
 50.25390625 337.137695312 49.5771484375 548.205078125 49.5771484375 581.37890625 c 0
 49.5771484375 614.963867188 131.95703125 615.008789062 131.95703125 582.634765625 c 0
 131.95703125 543.205078125 127.229492188 341.596679688 127.229492188 263.205078125 c 0
 127.229492188 204.205078125 127.208984375 -10.794921875 127.208984375 -49.1083984375 c 0
 127.208984375 -78.763671875 47.9755859375 -78.5498046875 47.9755859375 -48.1328125 c 0
EndSplineSet
Validated: 33
EndChar

StartChar: longs
Encoding: 383 383 101
Width: 300
Flags: W
HStem: 1 51<24.2154 76.992 199.35 254.274> 541 71<200.169 273.262>
VStem: 77 122<54.125 483.926>
LayerCount: 2
Fore
SplineSet
236 612 m 0
 267 612 296 598 296 563 c 0
 296 545.052734375 282.892578125 528 260 528 c 0
 237 528 234 541 215 541 c 0
 198.01953125 541 198 509 198 472 c 0
 198 414.07421875 199 331.145655387 199 274 c 2
 199 80 l 2
 199 64 205 52 215 52 c 0
 225 52 229 57 239 57 c 0
 249 57 255 48 255 28 c 0
 255 8 227 1 205 1 c 0
 183 1 155 7 132 7 c 0
 109 7 93 0 64 0 c 0
 35 0 24 0 24 29 c 0
 24 58 36 54 51 54 c 0
 66 54 77 52 77 75 c 2
 77 307 l 2
 77 369 84.8455375362 425.44528104 96 474 c 0
 113 548 171 612 236 612 c 0
EndSplineSet
Validated: 524321
EndChar

StartChar: c_k
Encoding: 65540 -1 102
Width: 764
Flags: W
HStem: 0 57<181.067 268.431 698.188 743.222> 0 50<684.747 717.443> 310 77<625.605 711.165> 332 60<186.555 252.134> 539 48<307.693 350.637>
VStem: 16 142<105.1 280.759> 351 119<53.931 208.997 253.809 538.993>
LayerCount: 2
Fore
SplineSet
285 559 m 4x4e
 285 580 307 587 327 587 c 4
 347 587 364 582 379 582 c 4
 394 582 409 587 426 587 c 4
 469 587 470 561 470 540 c 6
 470 278 l 6
 470 248 476.290039062 240.030273438 500 260 c 6
 628 367.80859375 l 6
 645.0546875 382.172851562 665.911132812 387 681 387 c 4
 730 387 749 359 749 334 c 4
 749 309 735 287 700 287 c 4
 661 287 651 310 632 310 c 4
 610 310 600 293 600 278 c 4
 600 258.97265625 605.228515625 246.43359375 611.330078125 233 c 6
 683.548828125 74 l 6
 690.037109375 59.71484375 695 50 698 50 c 4x6e
 702 50 706 57 718 57 c 4
 730 57 745 53 745 31 c 4
 745 9 719 0 700 0 c 4x8e
 681 0 670 5 642 5 c 4
 614 5 604 0 578 0 c 4
 552 0 534 0 534 24 c 4
 534 57 570.900390625 41.9599609375 565 56 c 6
 507 194 l 6
 501.755859375 206.477539062 496 209 491 209 c 4
 486 209 474 205 474 187 c 6
 474 66 l 6
 474 49.8740234375 519 58 519 29 c 4
 519 9 508 0 477 0 c 4
 446 0 428 6 407 6 c 4
 386 6 361 0 343 0 c 4
 325 0 310 4 310 23 c 4
 310 50 351 47 351 62 c 6
 351 511 l 6
 351 529 343 539 333 539 c 4
 323 539 322 531 307 531 c 4
 292 531 285 538 285 559 c 4x4e
16 193 m 0
 16 304 111 392 217 392 c 0
 330 392 351 335 351 312 c 0
 351 292 333 272 309 272 c 0
 252 272 260 332 224 332 c 0x1e
 190 332 158 293 158 185 c 0
 158 77 190 54 224 54 c 0
 280 54 280 124 317 124 c 0
 341 124 351 104 351 84 c 0
 351 61 310 -6 217 -6 c 0
 111 -6 16 82 16 193 c 0
EndSplineSet
LCarets2: 1 0
Ligature2: "'dlig' Discretionary Ligatures in Latin lookup 0-1" c k
EndChar

StartChar: asciicircum
Encoding: 94 94 103
Width: 273
Flags: W
HStem: 496 96.0674<89.1123 172.851>
VStem: 19.4629 234.137
LayerCount: 2
Fore
SplineSet
130.268554688 592.067382812 m 0
 141.996480706 592.067382812 161.258907339 584.444671875 177.735638493 566.000000787 c 2
 238.480430865 498.000000958 l 2
 252.926937875 481.828038954 257.163219234 466.401317218 253.599609375 458.474609375 c 0
 239 426 158 496 134.653320312 496 c 0
 111 496 33 436 19.462890625 457.849609375 c 0
 14.2611315979 466.24552313 15.7142679402 482.754884398 29.1514676363 498.999999039 c 2
 82.9164303081 563.999999191 l 2
 101.964942153 587.028998213 118.899973181 592.067382812 130.268554688 592.067382812 c 0
EndSplineSet
Validated: 524321
EndChar

StartChar: bullet
Encoding: 8226 8226 104
Width: 400
Flags: W
LayerCount: 2
Fore
SplineSet
161.5 394 m 0
 204.5 394 187.5 482 262.5 482 c 0
 295.5 482 311.5 456 311.5 434 c 0
 311.5 394 279.5 393 279.5 366 c 0
 279.5 320 376.5 347 376.5 281 c 0
 376.5 244 356.5 230 333.5 230 c 8
 296.5 230 296.5 259 264.5 259 c 0
 245.5 259 234.5 247 234.5 229 c 8
 234.5 211 267.5 208 267.5 163 c 0
 267.5 131 238.5 122 216.5 122 c 0
 171.5 122 177.5 207 134.5 207 c 0
 103.5 207 99.5 166 64.5 166 c 0
 36.5 166 23.5 190 23.5 208 c 0
 23.5 258 98.5 271 98.5 303 c 0
 98.5 335 36.5 338 36.5 386 c 8
 36.5 434 70.5 434 86.5 434 c 0
 127.5 434 129.5 394 161.5 394 c 0
EndSplineSet
Validated: 524289
EndChar

StartChar: yen
Encoding: 165 165 105
Width: 548
Flags: W
HStem: 0.0859375 52<161.911 207.639 355.169 399.639> 75.748 59.2334<119.599 442.095> 165.748 59.2334<119.599 442.095> 424.086 62<-3.10986 63.7431 486.387 554.512>
VStem: 210.559 143<57.5884 247.215>
LayerCount: 2
Fore
SplineSet
129.232421875 224.981445312 m 0
 167.5703125 224.981445312 208.5703125 222.703125 271.66796875 222.703125 c 0
 348.502929688 222.703125 394.5703125 223.379882812 427.744140625 223.379882812 c 0
 461.329101562 223.379882812 461.374023438 161 429 161 c 0
 389.5703125 161 352.961914062 165.727539062 274.5703125 165.727539062 c 0
 215.5703125 165.727539062 166.5703125 165.748046875 128.256835938 165.748046875 c 0
 98.6015625 165.748046875 98.8154296875 224.981445312 129.232421875 224.981445312 c 0
129.232421875 134.981445312 m 0
 167.5703125 134.981445312 208.5703125 132.703125 271.66796875 132.703125 c 0
 348.502929688 132.703125 394.5703125 133.379882812 427.744140625 133.379882812 c 0
 461.329101562 133.379882812 461.374023438 71 429 71 c 0
 389.5703125 71 352.961914062 75.7275390625 274.5703125 75.7275390625 c 0
 215.5703125 75.7275390625 166.5703125 75.748046875 128.256835938 75.748046875 c 0
 98.6015625 75.748046875 98.8154296875 134.981445312 129.232421875 134.981445312 c 0
210.55859375 197.239257812 m 2
 210.55859375 227 198.86328125 235.390625 175.811523438 263 c 2
 99 360 l 2
 57.3984375 409.828125 52.55859375 423.0859375 28.55859375 423.0859375 c 0
 8.55859375 423.0859375 -4.44140625 437.0859375 -4.44140625 454.0859375 c 0
 -4.44140625 471.0859375 3.55859375 487.0859375 39.55859375 487.0859375 c 0
 75.55859375 487.0859375 89.55859375 482.0859375 117.55859375 482.0859375 c 0
 145.55859375 482.0859375 172.55859375 486.0859375 211.55859375 486.0859375 c 0
 250.55859375 486.0859375 263.55859375 483.0859375 263.55859375 453.0859375 c 0
 263.55859375 423.0859375 230.55859375 448.0859375 230.55859375 413.0859375 c 0
 230.55859375 399.0859375 238.212890625 388.6328125 255.55859375 370.0859375 c 2
 288.55859375 334.799804688 l 2
 300.966796875 321.532226562 309.836914062 314.0859375 325.55859375 314.0859375 c 0
 341.55859375 314.0859375 351.331054688 324.283203125 359.55859375 333.762695312 c 2
 394.55859375 374.0859375 l 2
 404.366210938 385.384765625 411.55859375 393.0859375 411.55859375 409.0859375 c 0
 411.55859375 431.0859375 360.55859375 412.0859375 360.55859375 457.0859375 c 0
 360.55859375 480.469726562 377.5 486.124023438 396.55859375 486.0859375 c 0
 417.4375 486.043945312 441.057617188 479.0859375 452.55859375 479.0859375 c 0
 474.55859375 479.0859375 483.55859375 486.0859375 511.55859375 486.0859375 c 0
 539.55859375 486.0859375 555.55859375 480.0859375 555.55859375 455.0859375 c 0
 555.55859375 430.0859375 536.55859375 422.0859375 527.55859375 422.0859375 c 0
 518.55859375 422.0859375 514.55859375 424.0859375 504.55859375 424.0859375 c 0
 494.55859375 424.0859375 495.455078125 414.823242188 484.55859375 400.0859375 c 2
 383.94140625 259 l 2
 373.779296875 245.255859375 353.55859375 229.184570312 353.55859375 198 c 2
 353.55859375 92.0859375 l 2
 353.55859375 74 355.55859375 57.0859375 377.55859375 57.0859375 c 0
 393.55859375 57.0859375 400.55859375 45.0859375 400.55859375 34.0859375 c 0
 400.55859375 -6.9140625 383.55859375 0.0859375 286.55859375 0.0859375 c 0
 188.55859375 0.0859375 161.55859375 -1.9140625 161.55859375 27.0859375 c 0
 161.55859375 34.0859375 162.55859375 52.0859375 184.55859375 52.0859375 c 0
 206.55859375 52.0859375 210.55859375 78.0859375 210.55859375 100.0859375 c 2
 210.55859375 197.239257812 l 2
EndSplineSet
EndChar

StartChar: sterling
Encoding: 163 163 106
Width: 544
Flags: W
HStem: -14 89<386.912 451.51> 248 59.2334<35.3418 357.838> 464 67<256.265 363.313>
VStem: 80 151<309.853 436.629>
LayerCount: 2
Back
SplineSet
44.564453125 318.278320312 m 0
 82.90234375 318.278320312 173.90234375 316 237 316 c 0
 313.834960938 316 409.90234375 316.676757812 443.076171875 316.676757812 c 0
 476.661132812 316.676757812 476.706054688 254.296875 444.33203125 254.296875 c 0
 404.90234375 254.296875 318.293945312 259.024414062 239.90234375 259.024414062 c 0
 180.90234375 259.024414062 81.90234375 259.044921875 43.5888671875 259.044921875 c 0
 13.93359375 259.044921875 14.1474609375 318.278320312 44.564453125 318.278320312 c 0
667 387 m 0
 667 355 645 322 608 322 c 0
 481 322 506 464 406 464 c 16
 354 464 321 435 321 369 c 0
 321 272 317 219 317 198 c 0
 317 184 324 172 338 172 c 0
 363 172 374 188 425 188 c 0
 507 188 521 102 560 102 c 0
 599 102 567 176 618 176 c 0
 653 176 667 151 667 116 c 0
 667 53 614 -14 520 -14 c 0
 379 -14 348 72 313 72 c 0
 278 72 247 -17 167 -17 c 0
 124 -17 97 11 97 41 c 0
 97 124 221 143 221 163 c 0
 221 186 108 225 108 350 c 0
 108 445 214 531 414 531 c 0
 614 531 667 445 667 387 c 0
EndSplineSet
Fore
SplineSet
44.9755859375 307.233398438 m 0
 83.3134765625 307.233398438 124.313476562 304.955078125 187.411132812 304.955078125 c 0
 264.24609375 304.955078125 310.313476562 305.631835938 343.487304688 305.631835938 c 0
 377.072265625 305.631835938 377.1171875 243.251953125 344.743164062 243.251953125 c 0
 305.313476562 243.251953125 268.705078125 247.979492188 190.313476562 247.979492188 c 0
 131.313476562 247.979492188 82.3134765625 248 44 248 c 0
 14.3447265625 248 14.55859375 307.233398438 44.9755859375 307.233398438 c 0
504 404.5 m 0
 504 374 484 354 452 354 c 0
 363.100585938 354 407 464 308 464 c 0
 256 464 231 431 231 357 c 0
 231 270 239.796191406 183.611425783 248 159 c 0
 253 144 260 135 274 135 c 0
 285 135 297 139 312 139 c 0
 381 139 379 75 423 75 c 0
 476 75 436 146 483 146 c 0
 513 146 527 121 527 86 c 0
 527 36 482 -14 398 -14 c 0
 292 -14 269 63 234 63 c 0
 199 63 177 -17 97 -17 c 0
 54 -17 38 18 38 36 c 0
 38 119 151 115 151 135 c 0
 151 158 80 225 80 358 c 0
 80 445 152 531 316 531 c 0
 434 531 504 465 504 404.5 c 0
EndSplineSet
EndChar

StartChar: cent
Encoding: 162 162 107
Width: 397
Flags: W
HStem: -86.54 133.54<200.13 275.748> -12 57.7178<209.395 254.359> 343.46 48.54<215.26 248.495>
VStem: 16 142<91.4725 275.731> 192.777 77.2227<-83.7454 31.6191 352.859 472.964>
LayerCount: 2
Fore
SplineSet
195.709960938 -18.732421875 m 4xb8
 195.709960938 -5.9775390625 194.732421875 2.080078125 194.732421875 17.5205078125 c 4
 194.732421875 36.318359375 209.39453125 45.7177734375 231.876953125 45.7177734375 c 4x78
 254.359375 45.7177734375 270 31.619140625 270 16.8486328125 c 4
 270 2.080078125 266.08984375 -10.0048828125 266.08984375 -18.732421875 c 4
 266.08984375 -27.4599609375 270 -36.859375 270 -57 c 4
 270 -77.140625 248.495117188 -86.5400390625 231.876953125 -86.5400390625 c 4
 215.259765625 -86.5400390625 192.77734375 -78.4833984375 192.77734375 -57 c 4
 192.77734375 -41.55859375 195.709960938 -32.16015625 195.709960938 -18.732421875 c 4xb8
195.709960938 411.267578125 m 0
 195.709960938 424.022460938 194.732421875 432.080078125 194.732421875 447.520507812 c 0
 194.732421875 466.318359375 209.39453125 475.717773438 231.876953125 475.717773438 c 0
 254.359375 475.717773438 270 461.619140625 270 446.848632812 c 0
 270 432.080078125 266.08984375 419.995117188 266.08984375 411.267578125 c 0
 266.08984375 402.540039062 270 393.140625 270 373 c 0
 270 352.859375 248.495117188 343.459960938 231.876953125 343.459960938 c 0
 215.259765625 343.459960938 192.77734375 351.516601562 192.77734375 373 c 0
 192.77734375 388.44140625 195.709960938 397.83984375 195.709960938 411.267578125 c 0
16 193 m 0
 16 304 121 392 227 392 c 0
 350 392 371 335 371 312 c 0
 371 292 353 272 329 272 c 0
 272 272 280 332 234 332 c 0
 200 332 158 293 158 185 c 0
 158 97 185 47 244 47 c 0xb8
 303 47 309 108 356 108 c 0
 374 108 385 96 385 78 c 0
 385 34 308 -12 231 -12 c 0
 134 -12 16 32 16 193 c 0
EndSplineSet
Validated: 524293
EndChar

StartChar: uni00AD
Encoding: 173 173 108
Width: 329
Flags: W
HStem: 155.266 104.734<85.064 243.664>
LayerCount: 2
Fore
SplineSet
207.999023438 155.265625 m 6
 102 155.265625 l 6
 95.9990234375 155.265625 82 138 56 138 c 4
 30 138 28.5390625 164.354492188 39 178 c 6
 85 238 l 6
 97.0234375 253.682617188 105 260 121 260 c 6
 233 260 l 6
 242 260 246.999023438 277.265625 272.999023438 277.265625 c 4
 298.999023438 277.265625 300.4609375 250.911132812 289.999023438 237.265625 c 6
 243.999023438 177.265625 l 6
 231.9765625 161.583007812 224 155.265625 207.999023438 155.265625 c 6
EndSplineSet
Validated: 524321
EndChar

StartChar: uni2011
Encoding: 8209 8209 109
Width: 329
Flags: W
HStem: 155.266 104.734<85.064 243.664>
LayerCount: 2
Fore
SplineSet
207.999023438 155.265625 m 6
 102 155.265625 l 6
 95.9990234375 155.265625 82 138 56 138 c 4
 30 138 28.5390625 164.354492188 39 178 c 6
 85 238 l 6
 97.0234375 253.682617188 105 260 121 260 c 6
 233 260 l 6
 242 260 246.999023438 277.265625 272.999023438 277.265625 c 4
 298.999023438 277.265625 300.4609375 250.911132812 289.999023438 237.265625 c 6
 243.999023438 177.265625 l 6
 231.9765625 161.583007812 224 155.265625 207.999023438 155.265625 c 6
EndSplineSet
Validated: 524321
EndChar

StartChar: endash
Encoding: 8211 8211 110
Width: 449
Flags: W
HStem: 155.266 104.734<85.064 363.664>
LayerCount: 2
Fore
SplineSet
327.999023438 155.265625 m 6
 102 155.265625 l 2
 95.9990234375 155.265625 82 138 56 138 c 0
 30 138 28.5390625 164.354492188 39 178 c 2
 85 238 l 2
 97.0234375 253.682617188 105 260 121 260 c 2
 353 260 l 6
 362 260 366.999023438 277.265625 392.999023438 277.265625 c 4
 418.999023438 277.265625 420.4609375 250.911132812 409.999023438 237.265625 c 6
 363.999023438 177.265625 l 6
 351.9765625 161.583007812 344 155.265625 327.999023438 155.265625 c 6
EndSplineSet
Validated: 524321
EndChar

StartChar: emdash
Encoding: 8212 8212 111
Width: 639
Flags: W
HStem: 155.266 104.734<85.064 553.664>
LayerCount: 2
Fore
SplineSet
517.999023438 155.265625 m 6
 102 155.265625 l 2
 95.9990234375 155.265625 82 138 56 138 c 0
 30 138 28.5390625 164.354492188 39 178 c 2
 85 238 l 2
 97.0234375 253.682617188 105 260 121 260 c 2
 543 260 l 6
 552 260 556.999023438 277.265625 582.999023438 277.265625 c 4
 608.999023438 277.265625 610.4609375 250.911132812 599.999023438 237.265625 c 6
 553.999023438 177.265625 l 6
 541.9765625 161.583007812 534 155.265625 517.999023438 155.265625 c 6
EndSplineSet
Validated: 524321
EndChar

StartChar: perthousand
Encoding: 8240 8240 112
Width: 1063
Flags: W
HStem: -4 47.2695<484.018 556.643 834.018 906.643> 263.66 43.4199<480.48 557.095 830.48 907.095> 289 47.2695<143.018 215.643> 556.66 43.4199<139.48 216.095>
VStem: 20.0703 101.64<363.994 525.349> 235.67 110.11<365.174 525.637> 361.07 101.64<70.9944 232.349> 576.67 110.11<72.1743 232.637> 711.07 101.64<70.9944 232.349> 926.67 110.11<72.1743 232.637>
LayerCount: 2
Fore
SplineSet
812.709960938 156.860351562 m 0xdfc0
 812.709960938 74.1123046875 839.66015625 43.26953125 871.23046875 43.26953125 c 0
 902.799804688 43.26953125 926.669921875 74.1123046875 926.669921875 156.860351562 c 0
 926.669921875 239.608398438 900.799804688 263.66015625 869.23046875 263.66015625 c 0
 837.66015625 263.66015625 812.709960938 239.608398438 812.709960938 156.860351562 c 0xdfc0
711.0703125 151.540039062 m 0
 711.0703125 243.940429688 780.370117188 307.080078125 872 307.080078125 c 0
 963.629882812 307.080078125 1036.78027344 244.709960938 1036.78027344 152.309570312 c 0
 1036.78027344 59.91015625 963.629882812 -4 872 -4 c 0
 780.370117188 -4 711.0703125 59.1396484375 711.0703125 151.540039062 c 0
121.709960938 449.860351562 m 0
 121.709960938 367.112304688 148.66015625 336.26953125 180.23046875 336.26953125 c 0xbfc0
 211.799804688 336.26953125 235.669921875 367.112304688 235.669921875 449.860351562 c 0
 235.669921875 532.608398438 209.799804688 556.66015625 178.23046875 556.66015625 c 0
 146.66015625 556.66015625 121.709960938 532.608398438 121.709960938 449.860351562 c 0
20.0703125 444.540039062 m 0
 20.0703125 536.940429688 89.3701171875 600.080078125 181 600.080078125 c 0
 272.629882812 600.080078125 345.780273438 537.709960938 345.780273438 445.309570312 c 0
 345.780273438 352.91015625 272.629882812 289 181 289 c 0
 89.3701171875 289 20.0703125 352.139648438 20.0703125 444.540039062 c 0
462.709960938 156.860351562 m 0
 462.709960938 74.1123046875 489.66015625 43.26953125 521.23046875 43.26953125 c 0
 552.799804688 43.26953125 576.669921875 74.1123046875 576.669921875 156.860351562 c 0
 576.669921875 239.608398438 550.799804688 263.66015625 519.23046875 263.66015625 c 0xdfc0
 487.66015625 263.66015625 462.709960938 239.608398438 462.709960938 156.860351562 c 0
361.0703125 151.540039062 m 0
 361.0703125 243.940429688 430.370117188 307.080078125 522 307.080078125 c 0
 613.629882812 307.080078125 686.780273438 244.709960938 686.780273438 152.309570312 c 0
 686.780273438 59.91015625 613.629882812 -4 522 -4 c 0
 430.370117188 -4 361.0703125 59.1396484375 361.0703125 151.540039062 c 0
148.963867188 66.7392578125 m 0
 164.5625 88.5732421875 306.586914062 279.196289062 338.037109375 324.112304688 c 0
 382.107421875 387.053710938 477.130859375 536.5859375 488.426757812 555.036132812 c 0
 505.962890625 583.678710938 565.993164062 543.772460938 546.555664062 517.883789062 c 0
 529.649414062 495.364257812 437.3984375 370.684570312 392.633789062 306.330078125 c 0
 361.861328125 262.08984375 223.330078125 54.912109375 205.723632812 27.8193359375 c 0
 189.565429688 2.953125 131.283203125 41.98828125 148.963867188 66.7392578125 c 0
EndSplineSet
Validated: 524321
EndChar

StartChar: guillemotleft
Encoding: 171 171 113
Width: 438
Flags: W
HStem: 66.6862 269.314<179 221 359 401>
VStem: 28.0928 119.907<163.589 236.74> 208.093 119.907<163.589 236.74>
LayerCount: 2
Fore
SplineSet
208.092773438 205 m 0
 208.092773438 231.840820312 223.454101562 243.385742188 248 262 c 0
 322.279296875 318.329101562 349 336 388 336 c 0
 401 336 410.416992188 329 410.416992188 315 c 0
 410.416992188 301.541992188 401.705078125 286 353 240 c 0
 335.465820312 223.439453125 328 206.831054688 328 197 c 0
 328 187.831054688 331.45703125 172.61328125 352 155 c 0
 396.321289062 117 410.416992188 108.131835938 410.416992188 84 c 0
 410.416992188 73.94921875 404 66.6865234375 391 66.6865234375 c 0
 359 66.6865234375 321.796875 83.818359375 250 146 c 0
 228.525390625 164.598632812 208.092773438 178.159179688 208.092773438 205 c 0
28.0927734375 205 m 0
 28.0927734375 231.840820312 43.4541015625 243.385742188 68 262 c 0
 142.279296875 318.329101562 169 336 208 336 c 0
 221 336 230.416992188 329 230.416992188 315 c 0
 230.416992188 301.541992188 221.705078125 286 173 240 c 0
 155.465820312 223.439453125 148 206.831054688 148 197 c 0
 148 187.831054688 151.45703125 172.61328125 172 155 c 0
 216.321289062 117 230.416992188 108.131835938 230.416992188 84 c 0
 230.416992188 73.9492212973 224 66.6862002393 211 66.6862002393 c 0
 179 66.6862002393 141.796875 83.818359375 70 146 c 0
 48.525390625 164.598632812 28.0927734375 178.159179688 28.0927734375 205 c 0
EndSplineSet
Validated: 524289
EndChar

StartChar: guillemotright
Encoding: 187 187 114
Width: 438
Flags: W
HStem: 66.6865 269.313<35.5098 77.5098 215.51 257.51>
VStem: 108.51 119.907<163.589 236.74> 288.51 119.907<163.589 236.74>
LayerCount: 2
Fore
SplineSet
228.416992188 205 m 0
 228.416992188 178.159179688 207.984375 164.598632812 186.509765625 146 c 0
 114.712890625 83.818359375 77.509765625 66.6865234375 45.509765625 66.6865234375 c 0
 32.509765625 66.6865234375 26.0927734375 73.94921875 26.0927734375 84 c 0
 26.0927734375 108.131835938 40.1884765625 117 84.509765625 155 c 0
 105.052734375 172.61328125 108.509765625 187.831054688 108.509765625 197 c 0
 108.509765625 206.831054688 101.043945312 223.439453125 83.509765625 240 c 0
 34.8046875 286 26.0927734375 301.541992188 26.0927734375 315 c 0
 26.0927734375 329 35.509765625 336 48.509765625 336 c 0
 87.509765625 336 114.23046875 318.329101562 188.509765625 262 c 0
 213.055664062 243.385742188 228.416992188 231.840820312 228.416992188 205 c 0
408.416992188 205 m 0
 408.416992188 178.159179688 387.984375 164.598632812 366.509765625 146 c 0
 294.712890625 83.818359375 257.509765625 66.6865234375 225.509765625 66.6865234375 c 0
 212.509765625 66.6865234375 206.092773438 73.94921875 206.092773438 84 c 0
 206.092773438 108.131835938 220.188476562 117 264.509765625 155 c 0
 285.052734375 172.61328125 288.509765625 187.831054688 288.509765625 197 c 0
 288.509765625 206.831054688 281.043945312 223.439453125 263.509765625 240 c 0
 214.8046875 286 206.092773438 301.541992188 206.092773438 315 c 0
 206.092773438 329 215.509765625 336 228.509765625 336 c 0
 267.509765625 336 294.23046875 318.329101562 368.509765625 262 c 0
 393.055664062 243.385742188 408.416992188 231.840820312 408.416992188 205 c 0
EndSplineSet
Validated: 524289
EndChar

StartChar: guilsinglleft
Encoding: 8249 8249 115
Width: 257
Flags: W
HStem: 66.6862 269.314<179 221>
VStem: 28.0928 119.907<163.589 236.74>
LayerCount: 2
Fore
SplineSet
28.0927734375 205 m 0
 28.0927734375 231.840820312 43.4541015625 243.385742188 68 262 c 0
 142.279296875 318.329101562 169 336 208 336 c 0
 221 336 230.416992188 329 230.416992188 315 c 0
 230.416992188 301.541992188 221.705078125 286 173 240 c 0
 155.465820312 223.439453125 148 206.831054688 148 197 c 0
 148 187.831054688 151.45703125 172.61328125 172 155 c 0
 216.321289062 117 230.416992188 108.131835938 230.416992188 84 c 0
 230.416992188 73.9492212973 224 66.6862002393 211 66.6862002393 c 0
 179 66.6862002393 141.796875 83.818359375 70 146 c 0
 48.525390625 164.598632812 28.0927734375 178.159179688 28.0927734375 205 c 0
EndSplineSet
Validated: 524289
EndChar

StartChar: guilsinglright
Encoding: 8250 8250 116
Width: 257
Flags: W
HStem: 66.6865 269.313<35.5098 77.5098>
VStem: 108.51 119.907<163.589 236.74>
LayerCount: 2
Fore
SplineSet
228.416992188 205 m 4
 228.416992188 178.159179688 207.984375 164.598632812 186.509765625 146 c 4
 114.712890625 83.818359375 77.509765625 66.6865234375 45.509765625 66.6865234375 c 4
 32.509765625 66.6865234375 26.0927734375 73.94921875 26.0927734375 84 c 4
 26.0927734375 108.131835938 40.1884765625 117 84.509765625 155 c 4
 105.052734375 172.61328125 108.509765625 187.831054688 108.509765625 197 c 4
 108.509765625 206.831054688 101.043945312 223.439453125 83.509765625 240 c 4
 34.8046875 286 26.0927734375 301.541992188 26.0927734375 315 c 4
 26.0927734375 329 35.509765625 336 48.509765625 336 c 4
 87.509765625 336 114.23046875 318.329101562 188.509765625 262 c 4
 213.055664062 243.385742188 228.416992188 231.840820312 228.416992188 205 c 4
EndSplineSet
Validated: 524289
EndChar

StartChar: section
Encoding: 167 167 117
Width: 307
Flags: W
HStem: -3 55<128.336 195.154> 546 52<110.039 170.822>
VStem: 17.8682 92<225.25 328.772 456.896 543.864> 196.868 94<55.4936 116.636 272.516 388>
LayerCount: 2
Fore
SplineSet
196.868164062 288 m 0
 196.868164062 318 156.965820312 337 133.868164062 337 c 0
 119.868164062 337 109.868164062 330 109.868164062 318 c 0
 109.868164062 288 141.602539062 263.147460938 172 263.147460938 c 0
 185.602539062 263.147460938 196.868164062 274.711914062 196.868164062 288 c 0
22.8681640625 79 m 0
 22.8681640625 100 34 118 61.8681640625 118 c 0
 115.868164062 118 120.868164062 52 167.868164062 52 c 0
 185.868164062 52 196.868164062 66 196.868164062 82 c 0
 196.868164062 138 17.8681640625 173 17.8681640625 273 c 0
 17.8681640625 337 84.244140625 356 84.244140625 372.529296875 c 0
 84.244140625 385 17.8681640625 421.2890625 17.8681640625 482 c 0
 17.8681640625 548 83.8681640625 598 149.868164062 598 c 0
 215.868164062 598 249.58984375 571.150390625 249.58984375 541.044921875 c 0
 249.58984375 522.08984375 236.209960938 504.25 213.91015625 504.25 c 0
 176 504.25 161.868164062 546 133.868164062 546 c 0
 119.868164062 546 109.868164062 539 109.868164062 527 c 0
 109.868164062 463 290.868164062 445 290.868164062 331 c 0
 290.868164062 270 233.520507812 246 233.520507812 231.309570312 c 0
 233.520507812 216 290.868164062 182.174783327 290.868164062 121 c 0
 290.868164062 44 217.868164062 -3 149.868164062 -3 c 0
 85 -3 22.8681640625 35 22.8681640625 79 c 0
EndSplineSet
Validated: 524289
EndChar

StartChar: degree
Encoding: 176 176 118
Width: 266
Flags: W
HStem: 349 53<85.4834 170.517> 514 51<85.4834 170.517>
VStem: 20 54<413.958 502.247> 182 54<413.958 502.247>
LayerCount: 2
Fore
SplineSet
74 458 m 4
 74 427 97 402 128 402 c 4
 159 402 182 427 182 458 c 4
 182 489 159 514 128 514 c 4
 97 514 74 489 74 458 c 4
20 457 m 4
 20 517 68 565 128 565 c 4
 188 565 236 517 236 457 c 4
 236 397 188 349 128 349 c 4
 68 349 20 397 20 457 c 4
EndSplineSet
EndChar

StartChar: macron
Encoding: 175 175 119
Width: 302
Flags: W
HStem: 483.021 79.2334<37.042 266.264>
LayerCount: 2
Fore
SplineSet
45.5703125 562.25390625 m 0
 83.908203125 562.25390625 94.908203125 559.975585938 147 559.975585938 c 0
 194.840820312 559.975585938 220.908203125 560.65234375 254.08203125 560.65234375 c 0
 287.666992188 560.65234375 287.711914062 478.272460938 255.337890625 478.272460938 c 0
 215.908203125 478.272460938 199.299804688 483 150 483 c 0
 101.908203125 483 82.908203125 483.020507812 44.5947265625 483.020507812 c 0
 14.939453125 483.020507812 15.1533203125 562.25390625 45.5703125 562.25390625 c 0
EndSplineSet
EndChar

StartChar: brokenbar
Encoding: 166 166 120
Width: 176
Flags: W
VStem: 47.9756 79.2334<-56.6611 223.253 313.339 592.403>
LayerCount: 2
Fore
SplineSet
47.9755859375 -48.1328125 m 0
 47.9755859375 -9.794921875 50.25390625 -2.794921875 50.25390625 60.302734375 c 4
 50.25390625 137.137695312 46.5771484375 178.205078125 46.5771484375 211.37890625 c 4
 46.5771484375 244.963867188 128.95703125 245.008789062 128.95703125 212.634765625 c 4
 128.95703125 173.205078125 127.229492188 141.596679688 127.229492188 63.205078125 c 4
 127.229492188 4.205078125 127.208984375 -10.794921875 127.208984375 -49.1083984375 c 0
 127.208984375 -78.763671875 47.9755859375 -78.5498046875 47.9755859375 -48.1328125 c 0
47.9755859375 321.8671875 m 0
 47.9755859375 360.205078125 50.25390625 377.205078125 50.25390625 440.302734375 c 0
 50.25390625 517.137695312 49.5771484375 548.205078125 49.5771484375 581.37890625 c 0
 49.5771484375 614.963867188 131.95703125 615.008789062 131.95703125 582.634765625 c 0
 131.95703125 543.205078125 127.229492188 521.596679688 127.229492188 443.205078125 c 0
 127.229492188 384.205078125 127.208984375 359.205078125 127.208984375 320.891601562 c 0
 127.208984375 291.236328125 47.9755859375 291.450195312 47.9755859375 321.8671875 c 0
EndSplineSet
EndChar

StartChar: plusminus
Encoding: 177 177 121
Width: 392
Flags: W
HStem: 83.0205 79.2334<37.042 152.976 232.209 356.264> 253.021 79.2334<37.042 356.264>
VStem: 154.577 82.3799<102.339 421.561>
LayerCount: 2
Fore
SplineSet
45.5703125 162.25390625 m 4
 83.908203125 162.25390625 124.908203125 159.975585938 188.005859375 159.975585938 c 4
 264.840820312 159.975585938 310.908203125 160.65234375 344.08203125 160.65234375 c 4
 377.666992188 160.65234375 377.711914062 78.2724609375 345.337890625 78.2724609375 c 4
 305.908203125 78.2724609375 269.299804688 83 190.908203125 83 c 4
 131.908203125 83 82.908203125 83.0205078125 44.5947265625 83.0205078125 c 4
 14.939453125 83.0205078125 15.1533203125 162.25390625 45.5703125 162.25390625 c 4
152.975585938 110.8671875 m 0
 152.975585938 149.205078125 155.25390625 190.205078125 155.25390625 253.302734375 c 0
 155.25390625 330.137695312 154.577148438 376.205078125 154.577148438 409.37890625 c 0
 154.577148438 442.963867188 236.95703125 443.008789062 236.95703125 410.634765625 c 0
 236.95703125 371.205078125 232.229492188 334.596679688 232.229492188 256.205078125 c 0
 232.229492188 197.205078125 232.208984375 148.205078125 232.208984375 109.891601562 c 0
 232.208984375 80.236328125 152.975585938 80.4501953125 152.975585938 110.8671875 c 0
45.5703125 332.25390625 m 4
 83.908203125 332.25390625 124.908203125 329.975585938 188.005859375 329.975585938 c 4
 264.840820312 329.975585938 310.908203125 330.65234375 344.08203125 330.65234375 c 4
 377.666992188 330.65234375 377.711914062 248.272460938 345.337890625 248.272460938 c 4
 305.908203125 248.272460938 269.299804688 253 190.908203125 253 c 4
 131.908203125 253 82.908203125 253.020507812 44.5947265625 253.020507812 c 4
 14.939453125 253.020507812 15.1533203125 332.25390625 45.5703125 332.25390625 c 4
EndSplineSet
EndChar

StartChar: mu
Encoding: 181 181 122
Width: 479
Flags: W
HStem: 0 57<420 467.645> 31 30<264.621 276> 329 60<12.7381 59 245.738 294>
VStem: 23 103<-88.4568 130.338> 59 54<96.7659 314.313> 59 119<77.1641 329.559> 294 126<74.2891 329.726>
LayerCount: 2
Fore
SplineSet
59 281 m 4x2a
 59 309 72 317 84 317 c 4
 123 317 113 164 113 98 c 4x2a
 113 32 126 0 126 -53 c 4
 126 -79 109 -100 73 -100 c 4
 39 -100 23 -64 23 -22 c 4x32
 23 80 59 136 59 281 c 4x2a
EndSplineSet
Refer: 64 117 N 1 0 0 1 14 0 2
EndChar

StartChar: copyright
Encoding: 169 169 123
Width: 654
Flags: W
HStem: -14 61.4004<228.747 425.672> 111.6 33.6<317.984 399.255> 436.8 39.6<316.675 393.61> 538.6 61.4004<228.315 432.916>
VStem: 23 60.7998<192.118 397.047> 165 98.4<219.898 361.247> 426.6 38.4<348.538 401.868> 570.2 60.7998<193.992 398.185>
LayerCount: 2
Fore
SplineSet
83.7998046875 294.599609375 m 0
 83.7998046875 138.599609375 205.400390625 47.400390625 328.599609375 47.400390625 c 0
 451.799804688 47.400390625 570.200195312 145 570.200195312 292.83984375 c 0
 570.200195312 440.6796875 467 538.599609375 335.799804688 538.599609375 c 0
 204.599609375 538.599609375 83.7998046875 450.599609375 83.7998046875 294.599609375 c 0
23 295 m 0
 23 490 174 600 338 600 c 0
 502 600 631 477.599609375 631 292.799804688 c 0
 631 108 483 -14 329 -14 c 0
 175 -14 23 100 23 295 c 0
EndSplineSet
Refer: 20 67 N 0.6 0 0 0.6 156 117.6 2
EndChar

StartChar: registered
Encoding: 174 174 124
Width: 654
Flags: W
HStem: -14 61.4004<228.747 425.672> 122.6 43.2<420.855 475.701> 125.6 31.2<172.468 199.668 288.813 314.528> 295.4 32.4<289.658 349.238> 440 35.4<167.545 201.206> 444.2 31.2<288.178 358.74> 538.6 61.4004<228.315 432.916>
VStem: 23 60.7998<192.118 397.047> 201.42 85.8<160.102 294.453 330.363 439.862> 360.555 90<167.923 283.369> 374.82 85.2<346.959 428.144> 570.2 60.7998<193.992 398.185>
LayerCount: 2
Fore
SplineSet
83.7998046875 294.599609375 m 0x9390
 83.7998046875 138.599609375 205.400390625 47.400390625 328.599609375 47.400390625 c 0
 451.799804688 47.400390625 570.200195312 145 570.200195312 292.83984375 c 0
 570.200195312 440.6796875 467 538.599609375 335.799804688 538.599609375 c 0
 204.599609375 538.599609375 83.7998046875 450.599609375 83.7998046875 294.599609375 c 0x9390
23 295 m 0
 23 490 174 600 338 600 c 0
 502 600 631 477.599609375 631 292.799804688 c 0
 631 108 483 -14 329 -14 c 0
 175 -14 23 100 23 295 c 0
EndSplineSet
Refer: 35 82 N 0.6 0 0 0.6 160.155 125.6 2
EndChar

StartChar: circumflex
Encoding: 710 710 125
Width: 273
Flags: W
HStem: 496 96.0674<89.1123 172.851>
VStem: 19.4629 234.137
LayerCount: 2
Fore
SplineSet
130.268554688 592.067382812 m 0
 141.996480706 592.067382812 161.258907339 584.444671875 177.735638493 566.000000787 c 2
 238.480430865 498.000000958 l 2
 252.926937875 481.828038954 257.163219234 466.401317218 253.599609375 458.474609375 c 0
 239 426 158 496 134.653320312 496 c 0
 111 496 33 436 19.462890625 457.849609375 c 0
 14.2611315979 466.24552313 15.7142679402 482.754884398 29.1514676363 498.999999039 c 2
 82.9164303081 563.999999191 l 2
 101.964942153 587.028998213 118.899973181 592.067382812 130.268554688 592.067382812 c 0
EndSplineSet
EndChar

StartChar: caron
Encoding: 711 711 126
Width: 273
Flags: W
HStem: 449.879 96.0674<98.6163 182.355>
VStem: 17.8682 234.137
LayerCount: 2
Fore
SplineSet
141.19921875 449.87890625 m 0
 129.470703125 449.87890625 110.208984375 457.500976562 93.7314453125 475.946289062 c 2
 32.9873046875 543.946289062 l 2
 18.541015625 560.118164062 14.3046875 575.544921875 17.8681640625 583.471679688 c 0
 32.4677734375 615.946289062 113.467773438 545.946289062 136.814453125 545.946289062 c 0
 160.467773438 545.946289062 238.467773438 605.946289062 252.004882812 584.096679688 c 0
 257.206054688 575.700195312 255.752929688 559.19140625 242.31640625 542.946289062 c 2
 188.55078125 477.946289062 l 2
 169.502929688 454.916992188 152.567382812 449.87890625 141.19921875 449.87890625 c 0
EndSplineSet
EndChar

StartChar: hungarumlaut
Encoding: 733 733 127
Width: 411
Flags: W
HStem: 433 47<134.745 207.614 314.745 387.614>
VStem: 25 103<486.139 576.724> 205 103<486.139 576.724>
LayerCount: 2
Fore
SplineSet
388 459 m 0
 388 439 367 433 327 433 c 0
 287 433 205 449 205 531 c 0
 205 570 220 592 253 592 c 0
 289 592 299 561 308 516 c 0
 313.491210938 488.54296875 331 480 354 480 c 0
 373 480 388 479 388 459 c 0
208 459 m 0
 208 439 187 433 147 433 c 0
 107 433 25 449 25 531 c 0
 25 570 40 592 73 592 c 0
 109 592 119 561 128 516 c 0
 133.491210938 488.54296875 151 480 174 480 c 0
 193 480 208 479 208 459 c 0
EndSplineSet
EndChar

StartChar: dotaccent
Encoding: 729 729 128
Width: 190
Flags: W
HStem: 470 133.935<60.8162 123.839>
VStem: 16.7217 151.212<510.537 563.397>
LayerCount: 2
Fore
SplineSet
16.7216796875 516.4296875 m 0
 16.7216796875 561.965820312 77.5009765625 603.934570312 122.655273438 603.934570312 c 0
 154.93359375 603.934570312 167.93359375 583.041015625 167.93359375 557.504882812 c 0
 167.93359375 511.967773438 107.154296875 470 62 470 c 0
 22.93359375 470 16.7216796875 490.892578125 16.7216796875 516.4296875 c 0
EndSplineSet
EndChar

StartChar: tilde
Encoding: 732 732 129
Width: 336
Flags: W
LayerCount: 2
Fore
SplineSet
179.9375 452.4765625 m 2
 132.740234375 478.028320312 l 2
 107.050816098 491.936113179 74.9853515625 467.1015625 53.9853515625 467.1015625 c 0
 22.689453125 467.1015625 25.482421875 495.583984375 39.2109375 509.517578125 c 2
 75.076171875 545.91796875 l 2
 108.030273438 579.36328125 132.607421875 586.2265625 171 567 c 2
 214.383789062 544.657226562 l 2
 244.932617188 528.924804688 260.985351562 548.788085938 281.985351562 548.788085938 c 0
 313.3125 548.788085938 311.081054688 520.903320312 296.791992188 506.37109375 c 2
 278.919921875 488.1953125 l 2
 240.201055938 448.818473375 212.463867188 433.592773438 179.9375 452.4765625 c 2
EndSplineSet
EndChar

StartChar: ring
Encoding: 730 730 130
Width: 266
Flags: W
HStem: 382 53<87.9364 168.064> 547 51<87.9364 168.064>
VStem: 20 58<444.603 537.586> 178 58<444.603 537.586>
LayerCount: 2
Fore
SplineSet
78 491 m 0
 78 460 97 435 128 435 c 0
 159 435 178 460 178 491 c 0
 178 522 159 547 128 547 c 0
 97 547 78 522 78 491 c 0
20 490 m 0
 20 550 68 598 128 598 c 0
 188 598 236 550 236 490 c 0
 236 430 188 382 128 382 c 0
 68 382 20 430 20 490 c 0
EndSplineSet
EndChar

StartChar: breve
Encoding: 728 728 131
Width: 293
Flags: W
HStem: 449.946 90.0537<81.8895 211.765>
LayerCount: 2
Fore
SplineSet
146.814453125 540 m 0
 214.62890625 540 241.62890625 601 267.62890625 585 c 0
 275.030273438 580.4453125 277.536132812 570.038085938 270.62890625 550 c 0
 259.616210938 518.053710938 227.62890625 449.946289062 146.897460938 449.946289062 c 0
 66 449.946289062 34.0126953125 518.053710938 23 550 c 0
 16.0924075236 570.037959801 18.5981860475 580.445037568 26 585 c 0
 52 601 79 540 146.814453125 540 c 0
EndSplineSet
EndChar

StartChar: ogonek
Encoding: 731 731 132
Width: 242
Flags: W
HStem: -150.96 57.6201<113.534 199.843>
VStem: 21.1504 89.25<-90.8285 -8.80954>
LayerCount: 2
Fore
SplineSet
181 46 m 4
 181 11.16015625 110.400390625 4 110.400390625 -57 c 0
 110.400390625 -76 121 -93.33984375 147 -93.33984375 c 0
 175.150390625 -93.33984375 186 -73.8798828125 206 -73.8798828125 c 0
 216 -73.8798828125 223 -82 223 -93 c 0
 223 -118 183.650390625 -150.959960938 133.049804688 -150.959960938 c 0
 64 -150.959960938 21.150390625 -116 21.150390625 -66.51953125 c 0
 21.150390625 15.2197265625 117.75 60.259765625 160.299804688 60.259765625 c 0
 174 60.259765625 181 53 181 46 c 4
EndSplineSet
EndChar

StartChar: cedilla
Encoding: 184 184 133
Width: 242
Flags: W
HStem: -150.96 57.6201<40.3069 129.079>
VStem: 76.2178 57.2227<6.17957 60.8831> 129.75 89.25<-91.2164 -40.8243>
LayerCount: 2
Fore
SplineSet
139.51953125 5.986328125 m 0xc0
 187.286280075 -16.5172639969 219 -34.759765625 219 -83 c 0
 219 -116 176.150390625 -150.959960938 107.100585938 -150.959960938 c 0
 56.5 -150.959960938 17.150390625 -118 17.150390625 -93 c 0
 17.150390625 -82 24.150390625 -73.8798828125 34.150390625 -73.8798828125 c 0
 54.150390625 -73.8798828125 65 -93.33984375 93.150390625 -93.33984375 c 0
 119.150390625 -93.33984375 129.75 -81 129.75 -67 c 0xa0
 129.75 -38 75.3837890625 -36.62109375 63.150390625 -4 c 0
 60.150390625 4 68 19 76.2177734375 34.267578125 c 0
 86.3999459846 53.1847600146 94.3828125 63.8076171875 111 63.8076171875 c 0
 127.618164062 63.8076171875 138.495935153 53.7634899183 133.440429688 34.267578125 c 0
 130 21 131 10 139.51953125 5.986328125 c 0xc0
EndSplineSet
EndChar

StartChar: periodcentered
Encoding: 183 183 134
Width: 204
Flags: W
HStem: 230 152<49.5543 154.446>
VStem: 26 152<253.554 358.446>
LayerCount: 2
Fore
SplineSet
26 306 m 0
 26 348 60 382 102 382 c 0
 144 382 178 348 178 306 c 0
 178 264 144 230 102 230 c 0
 60 230 26 264 26 306 c 0
EndSplineSet
EndChar

StartChar: paragraph
Encoding: 182 182 135
Width: 513
Flags: WO
HStem: -100 58.4824<193.326 238.299 312.774 358.774 432.118 479.573> 523 60<312.774 358.774 431.778 488.232>
VStem: 238.774 74<-41.3982 283> 358.774 73.1348<-41.1776 522.894>
LayerCount: 2
Fore
SplineSet
358.774414062 -26.1318359375 m 6
 358.774414062 502 l 2
 358.774414062 514 350 523 335.548828125 523 c 0
 319.548828125 523 312.774414062 515 312.774414062 504 c 2
 312.774414062 -26.9677734375 l 6
 312.774414062 -36.04296875 320 -41.517578125 336 -41.517578125 c 4
 352 -41.517578125 358.774414062 -36.994140625 358.774414062 -26.1318359375 c 6
263 -100 m 6
 211.548828125 -100 191.774414062 -97 191.774414062 -66 c 4
 191.774414062 -47 205.548828125 -43 214.774414062 -43 c 4
 236.774414062 -43 238.774414062 -27 238.774414062 -8 c 6
 238.774414062 265 l 2
 238.774414062 283 229.548828125 283 217.548828125 283 c 0
 207.202148438 283 192.548828125 280 171 280 c 0
 110 280 20.7744140625 302 20.7744140625 429 c 0
 20.7744140625 525.729492188 70 583 179.774414062 583 c 2
 356.774414062 583 l 2
 466.774414062 583 489.774414062 578 489.774414062 552 c 0
 489.774414062 526 476.774414062 524 450.774414062 524 c 0
 431.774414062 524 431.768554688 515 431.774414062 498 c 2
 431.909179688 -13.099609375 l 6
 431.909179688 -31 435.774414062 -48 457.774414062 -48 c 4
 470.548828125 -48 480.774414062 -54 480.774414062 -73 c 4
 480.774414062 -95 453.774414062 -100 434 -100 c 6
 263 -100 l 6
EndSplineSet
EndChar
